G04 #@! TF.GenerationSoftware,KiCad,Pcbnew,9.0.6*
G04 #@! TF.CreationDate,2026-06-25T21:53:15+03:00*
G04 #@! TF.ProjectId,trial_project,74726961-6c5f-4707-926f-6a6563742e6b,rev?*
G04 #@! TF.SameCoordinates,Original*
G04 #@! TF.FileFunction,Copper,L1,Top*
G04 #@! TF.FilePolarity,Positive*
%FSLAX46Y46*%
G04 Gerber Fmt 4.6, Leading zero omitted, Abs format (unit mm)*
G04 Created by KiCad (PCBNEW 9.0.6) date 2026-06-25 21:53:15*
%MOMM*%
%LPD*%
G01*
G04 APERTURE LIST*
G04 #@! TA.AperFunction,ComponentPad*
%ADD10R,1.524000X1.524000*%
G04 #@! TD*
G04 #@! TA.AperFunction,ComponentPad*
%ADD11C,1.524000*%
G04 #@! TD*
G04 #@! TA.AperFunction,ComponentPad*
%ADD12C,1.600000*%
G04 #@! TD*
G04 #@! TA.AperFunction,ComponentPad*
%ADD13C,2.000000*%
G04 #@! TD*
G04 #@! TA.AperFunction,ComponentPad*
%ADD14R,1.800000X1.800000*%
G04 #@! TD*
G04 #@! TA.AperFunction,ComponentPad*
%ADD15C,1.800000*%
G04 #@! TD*
G04 #@! TA.AperFunction,ComponentPad*
%ADD16R,1.600000X1.600000*%
G04 #@! TD*
G04 #@! TA.AperFunction,ComponentPad*
%ADD17O,1.600000X1.600000*%
G04 #@! TD*
G04 #@! TA.AperFunction,ViaPad*
%ADD18C,0.600000*%
G04 #@! TD*
G04 #@! TA.AperFunction,Conductor*
%ADD19C,0.127000*%
G04 #@! TD*
G04 #@! TA.AperFunction,Conductor*
%ADD20C,0.400000*%
G04 #@! TD*
G04 APERTURE END LIST*
D10*
X76200000Y-106680000D03*
D11*
X78740000Y-106680000D03*
X81280000Y-106680000D03*
X83820000Y-106680000D03*
X78740000Y-138430000D03*
X76200000Y-138430000D03*
X73660000Y-138430000D03*
X71120000Y-138430000D03*
D10*
X68580000Y-138430000D03*
D12*
X127000000Y-139740000D03*
X127000000Y-144740000D03*
D13*
X146760000Y-133060000D03*
X140260000Y-133060000D03*
X146760000Y-128560000D03*
X140260000Y-128560000D03*
D12*
X125190000Y-108000000D03*
X132810000Y-108000000D03*
D13*
X140260000Y-117130000D03*
X146760000Y-117130000D03*
X140260000Y-121630000D03*
X146760000Y-121630000D03*
D12*
X134620000Y-127000000D03*
X134620000Y-134620000D03*
X127000000Y-121880000D03*
X127000000Y-116880000D03*
X134620000Y-146050000D03*
X134620000Y-138430000D03*
D13*
X146760000Y-144490000D03*
X140260000Y-144490000D03*
X146760000Y-139990000D03*
X140260000Y-139990000D03*
D14*
X145540000Y-108000000D03*
D15*
X143000000Y-108000000D03*
D12*
X127000000Y-128310000D03*
X127000000Y-133310000D03*
X134620000Y-115570000D03*
X134620000Y-123190000D03*
D16*
X119380000Y-146050000D03*
D17*
X119380000Y-143510000D03*
X119380000Y-140970000D03*
X119380000Y-138430000D03*
X119380000Y-135890000D03*
X119380000Y-133350000D03*
X119380000Y-130810000D03*
X119380000Y-128270000D03*
X119380000Y-125730000D03*
X119380000Y-123190000D03*
X119380000Y-120650000D03*
X119380000Y-118110000D03*
X119380000Y-115570000D03*
X119380000Y-113030000D03*
X119380000Y-110490000D03*
X104140000Y-110490000D03*
X104140000Y-113030000D03*
X104140000Y-115570000D03*
X104140000Y-118110000D03*
X104140000Y-120650000D03*
X104140000Y-123190000D03*
X104140000Y-125730000D03*
X104140000Y-128270000D03*
X104140000Y-130810000D03*
X104140000Y-133350000D03*
X104140000Y-135890000D03*
X104140000Y-138430000D03*
X104140000Y-140970000D03*
X104140000Y-143510000D03*
X104140000Y-146050000D03*
D18*
X81280000Y-130810000D03*
D19*
X132810000Y-108000000D02*
X143000000Y-108000000D01*
X122700000Y-110490000D02*
X125190000Y-108000000D01*
X119380000Y-110490000D02*
X122700000Y-110490000D01*
D20*
X83820000Y-128090000D02*
X84000000Y-128270000D01*
X84000000Y-128270000D02*
X104140000Y-128270000D01*
X83820000Y-106680000D02*
X83820000Y-128090000D01*
X81280000Y-128270000D02*
X84000000Y-128270000D01*
X71120000Y-138430000D02*
X81280000Y-128270000D01*
X78740000Y-138430000D02*
X104140000Y-138430000D01*
X81280000Y-130810000D02*
X104140000Y-130810000D01*
X73660000Y-138430000D02*
X81280000Y-130810000D01*
D19*
X146760000Y-139990000D02*
X140260000Y-139990000D01*
X134620000Y-138430000D02*
X138700000Y-138430000D01*
X133310000Y-139740000D02*
X134620000Y-138430000D01*
X119380000Y-135890000D02*
X123150000Y-135890000D01*
X123150000Y-135890000D02*
X127000000Y-139740000D01*
X138700000Y-138430000D02*
X140260000Y-139990000D01*
X127000000Y-139740000D02*
X133310000Y-139740000D01*
X83820000Y-106680000D02*
X83820000Y-106812193D01*
X127000000Y-121880000D02*
X133310000Y-121880000D01*
X119380000Y-130810000D02*
X127000000Y-123190000D01*
X127000000Y-123190000D02*
X127000000Y-121880000D01*
X138700000Y-123190000D02*
X140260000Y-121630000D01*
X134620000Y-123190000D02*
X138700000Y-123190000D01*
X133310000Y-121880000D02*
X134620000Y-123190000D01*
X140260000Y-121630000D02*
X146760000Y-121630000D01*
X127000000Y-128310000D02*
X128310000Y-128310000D01*
X140260000Y-128980000D02*
X140260000Y-128560000D01*
X134620000Y-134620000D02*
X140260000Y-128980000D01*
X119380000Y-133350000D02*
X121960000Y-133350000D01*
X128310000Y-128310000D02*
X134620000Y-134620000D01*
X121960000Y-133350000D02*
X127000000Y-128310000D01*
X140260000Y-128560000D02*
X146760000Y-128560000D01*
X140010000Y-116880000D02*
X140260000Y-117130000D01*
X146050000Y-116420000D02*
X146760000Y-117130000D01*
X127000000Y-116880000D02*
X140010000Y-116880000D01*
X140260000Y-117130000D02*
X146760000Y-117130000D01*
X119380000Y-138430000D02*
X120690000Y-138430000D01*
X120690000Y-138430000D02*
X127000000Y-144740000D01*
X118000000Y-152000000D02*
X132000000Y-152000000D01*
X134620000Y-149380000D02*
X134620000Y-146050000D01*
X132000000Y-152000000D02*
X134620000Y-149380000D01*
X104140000Y-138430000D02*
X104430000Y-138430000D01*
X104430000Y-138430000D02*
X118000000Y-152000000D01*
G04 #@! TA.AperFunction,Conductor*
G36*
X103045295Y-131530185D02*
G01*
X103078575Y-131561616D01*
X103148030Y-131657215D01*
X103292786Y-131801971D01*
X103447749Y-131914556D01*
X103458390Y-131922287D01*
X103549840Y-131968883D01*
X103551080Y-131969515D01*
X103601876Y-132017490D01*
X103618671Y-132085311D01*
X103596134Y-132151446D01*
X103551080Y-132190485D01*
X103458386Y-132237715D01*
X103292786Y-132358028D01*
X103148028Y-132502786D01*
X103027715Y-132668386D01*
X102934781Y-132850776D01*
X102871522Y-133045465D01*
X102839500Y-133247648D01*
X102839500Y-133452351D01*
X102871522Y-133654534D01*
X102934781Y-133849223D01*
X102975484Y-133929105D01*
X103007199Y-133991350D01*
X103027715Y-134031613D01*
X103148028Y-134197213D01*
X103292786Y-134341971D01*
X103402745Y-134421859D01*
X103458390Y-134462287D01*
X103549840Y-134508883D01*
X103551080Y-134509515D01*
X103601876Y-134557490D01*
X103618671Y-134625311D01*
X103596134Y-134691446D01*
X103551080Y-134730485D01*
X103458386Y-134777715D01*
X103292786Y-134898028D01*
X103148028Y-135042786D01*
X103027715Y-135208386D01*
X102934781Y-135390776D01*
X102871522Y-135585465D01*
X102839500Y-135787648D01*
X102839500Y-135992351D01*
X102871522Y-136194534D01*
X102934781Y-136389223D01*
X103027715Y-136571613D01*
X103148028Y-136737213D01*
X103292786Y-136881971D01*
X103404036Y-136962797D01*
X103458390Y-137002287D01*
X103549840Y-137048883D01*
X103551080Y-137049515D01*
X103601876Y-137097490D01*
X103618671Y-137165311D01*
X103596134Y-137231446D01*
X103551080Y-137270485D01*
X103458386Y-137317715D01*
X103292786Y-137438028D01*
X103148030Y-137582784D01*
X103078575Y-137678384D01*
X103023245Y-137721051D01*
X102978256Y-137729500D01*
X79854774Y-137729500D01*
X79787735Y-137709815D01*
X79754457Y-137678387D01*
X79702981Y-137607536D01*
X79562464Y-137467019D01*
X79401694Y-137350213D01*
X79224632Y-137259994D01*
X79224629Y-137259993D01*
X79035637Y-137198587D01*
X78917601Y-137179892D01*
X78839361Y-137167500D01*
X78640639Y-137167500D01*
X78575214Y-137177862D01*
X78444362Y-137198587D01*
X78255370Y-137259993D01*
X78255367Y-137259994D01*
X78078305Y-137350213D01*
X77917533Y-137467021D01*
X77777021Y-137607533D01*
X77660213Y-137768305D01*
X77580204Y-137925331D01*
X77532229Y-137976127D01*
X77464408Y-137992922D01*
X77398273Y-137970384D01*
X77359234Y-137925331D01*
X77279358Y-137768567D01*
X77252268Y-137731283D01*
X76581000Y-138402551D01*
X76581000Y-138379840D01*
X76555036Y-138282939D01*
X76504876Y-138196060D01*
X76433940Y-138125124D01*
X76347061Y-138074964D01*
X76250160Y-138049000D01*
X76227446Y-138049000D01*
X76898715Y-137377730D01*
X76861432Y-137350641D01*
X76684437Y-137260457D01*
X76495522Y-137199075D01*
X76299321Y-137168000D01*
X76212016Y-137168000D01*
X76144977Y-137148315D01*
X76099222Y-137095511D01*
X76089278Y-137026353D01*
X76118303Y-136962797D01*
X76124310Y-136956345D01*
X81474584Y-131606070D01*
X81481512Y-131601441D01*
X81484456Y-131597202D01*
X81514810Y-131579193D01*
X81657864Y-131519939D01*
X81705316Y-131510500D01*
X102978256Y-131510500D01*
X103045295Y-131530185D01*
G37*
G04 #@! TD.AperFunction*
G04 #@! TA.AperFunction,Conductor*
G36*
X150442539Y-102520185D02*
G01*
X150488294Y-102572989D01*
X150499500Y-102624500D01*
X150499500Y-154375500D01*
X150479815Y-154442539D01*
X150427011Y-154488294D01*
X150375500Y-154499500D01*
X64624500Y-154499500D01*
X64557461Y-154479815D01*
X64511706Y-154427011D01*
X64500500Y-154375500D01*
X64500500Y-137620135D01*
X67317500Y-137620135D01*
X67317500Y-139239870D01*
X67317501Y-139239876D01*
X67323908Y-139299483D01*
X67374202Y-139434328D01*
X67374206Y-139434335D01*
X67460452Y-139549544D01*
X67460455Y-139549547D01*
X67575664Y-139635793D01*
X67575671Y-139635797D01*
X67710517Y-139686091D01*
X67710516Y-139686091D01*
X67717444Y-139686835D01*
X67770127Y-139692500D01*
X69389872Y-139692499D01*
X69449483Y-139686091D01*
X69584331Y-139635796D01*
X69699546Y-139549546D01*
X69785796Y-139434331D01*
X69836091Y-139299483D01*
X69842500Y-139239873D01*
X69842499Y-139201197D01*
X69862182Y-139134161D01*
X69914985Y-139088405D01*
X69984143Y-139078460D01*
X70047699Y-139107483D01*
X70066817Y-139128312D01*
X70082709Y-139150185D01*
X70157019Y-139252464D01*
X70297536Y-139392981D01*
X70458306Y-139509787D01*
X70522085Y-139542284D01*
X70635367Y-139600005D01*
X70635370Y-139600006D01*
X70722369Y-139628273D01*
X70824364Y-139661413D01*
X71020639Y-139692500D01*
X71020640Y-139692500D01*
X71219360Y-139692500D01*
X71219361Y-139692500D01*
X71415636Y-139661413D01*
X71604632Y-139600005D01*
X71781694Y-139509787D01*
X71942464Y-139392981D01*
X72082981Y-139252464D01*
X72199787Y-139091694D01*
X72279515Y-138935218D01*
X72327490Y-138884423D01*
X72395311Y-138867628D01*
X72461446Y-138890165D01*
X72500484Y-138935218D01*
X72580213Y-139091694D01*
X72697019Y-139252464D01*
X72837536Y-139392981D01*
X72998306Y-139509787D01*
X73062085Y-139542284D01*
X73175367Y-139600005D01*
X73175370Y-139600006D01*
X73262369Y-139628273D01*
X73364364Y-139661413D01*
X73560639Y-139692500D01*
X73560640Y-139692500D01*
X73759360Y-139692500D01*
X73759361Y-139692500D01*
X73955636Y-139661413D01*
X74144632Y-139600005D01*
X74321694Y-139509787D01*
X74482464Y-139392981D01*
X74622981Y-139252464D01*
X74739787Y-139091694D01*
X74819796Y-138934667D01*
X74867769Y-138883872D01*
X74935590Y-138867077D01*
X75001725Y-138889614D01*
X75040765Y-138934668D01*
X75120641Y-139091432D01*
X75147730Y-139128715D01*
X75819000Y-138457445D01*
X75819000Y-138480160D01*
X75844964Y-138577061D01*
X75895124Y-138663940D01*
X75966060Y-138734876D01*
X76052939Y-138785036D01*
X76149840Y-138811000D01*
X76172553Y-138811000D01*
X75501283Y-139482268D01*
X75501283Y-139482269D01*
X75538567Y-139509358D01*
X75715562Y-139599542D01*
X75904477Y-139660924D01*
X76100679Y-139692000D01*
X76299321Y-139692000D01*
X76495520Y-139660924D01*
X76495523Y-139660924D01*
X76684437Y-139599542D01*
X76861425Y-139509362D01*
X76898716Y-139482268D01*
X76227448Y-138811000D01*
X76250160Y-138811000D01*
X76347061Y-138785036D01*
X76433940Y-138734876D01*
X76504876Y-138663940D01*
X76555036Y-138577061D01*
X76581000Y-138480160D01*
X76581000Y-138457447D01*
X77252268Y-139128715D01*
X77279364Y-139091422D01*
X77359234Y-138934669D01*
X77407208Y-138883872D01*
X77475029Y-138867077D01*
X77541164Y-138889614D01*
X77580203Y-138934667D01*
X77660213Y-139091694D01*
X77777019Y-139252464D01*
X77917536Y-139392981D01*
X78078306Y-139509787D01*
X78142085Y-139542284D01*
X78255367Y-139600005D01*
X78255370Y-139600006D01*
X78342369Y-139628273D01*
X78444364Y-139661413D01*
X78640639Y-139692500D01*
X78640640Y-139692500D01*
X78839360Y-139692500D01*
X78839361Y-139692500D01*
X79035636Y-139661413D01*
X79224632Y-139600005D01*
X79401694Y-139509787D01*
X79562464Y-139392981D01*
X79702981Y-139252464D01*
X79754457Y-139181613D01*
X79809786Y-139138949D01*
X79854774Y-139130500D01*
X102978256Y-139130500D01*
X103045295Y-139150185D01*
X103078575Y-139181616D01*
X103148030Y-139277215D01*
X103292786Y-139421971D01*
X103413657Y-139509787D01*
X103458390Y-139542287D01*
X103549840Y-139588883D01*
X103551080Y-139589515D01*
X103601876Y-139637490D01*
X103618671Y-139705311D01*
X103596134Y-139771446D01*
X103551080Y-139810485D01*
X103458386Y-139857715D01*
X103292786Y-139978028D01*
X103148028Y-140122786D01*
X103027715Y-140288386D01*
X102934781Y-140470776D01*
X102871522Y-140665465D01*
X102839500Y-140867648D01*
X102839500Y-141072351D01*
X102871522Y-141274534D01*
X102934781Y-141469223D01*
X103027715Y-141651613D01*
X103148028Y-141817213D01*
X103292786Y-141961971D01*
X103447749Y-142074556D01*
X103458390Y-142082287D01*
X103530424Y-142118990D01*
X103551629Y-142129795D01*
X103602425Y-142177770D01*
X103619220Y-142245591D01*
X103596682Y-142311726D01*
X103551629Y-142350765D01*
X103458650Y-142398140D01*
X103293105Y-142518417D01*
X103293104Y-142518417D01*
X103148417Y-142663104D01*
X103148417Y-142663105D01*
X103028140Y-142828650D01*
X102935244Y-143010970D01*
X102872009Y-143205586D01*
X102863391Y-143260000D01*
X103706988Y-143260000D01*
X103674075Y-143317007D01*
X103640000Y-143444174D01*
X103640000Y-143575826D01*
X103674075Y-143702993D01*
X103706988Y-143760000D01*
X102863391Y-143760000D01*
X102872009Y-143814413D01*
X102935244Y-144009029D01*
X103028140Y-144191349D01*
X103148417Y-144356894D01*
X103148417Y-144356895D01*
X103293104Y-144501582D01*
X103458652Y-144621861D01*
X103551628Y-144669234D01*
X103602425Y-144717208D01*
X103619220Y-144785029D01*
X103596683Y-144851164D01*
X103551630Y-144890203D01*
X103458388Y-144937713D01*
X103292786Y-145058028D01*
X103148028Y-145202786D01*
X103027715Y-145368386D01*
X102934781Y-145550776D01*
X102871522Y-145745465D01*
X102839500Y-145947648D01*
X102839500Y-146152351D01*
X102871522Y-146354534D01*
X102934781Y-146549223D01*
X103027715Y-146731613D01*
X103148028Y-146897213D01*
X103292786Y-147041971D01*
X103447749Y-147154556D01*
X103458390Y-147162287D01*
X103547212Y-147207544D01*
X103640776Y-147255218D01*
X103640778Y-147255218D01*
X103640781Y-147255220D01*
X103745137Y-147289127D01*
X103835465Y-147318477D01*
X103936557Y-147334488D01*
X104037648Y-147350500D01*
X104037649Y-147350500D01*
X104242351Y-147350500D01*
X104242352Y-147350500D01*
X104444534Y-147318477D01*
X104639219Y-147255220D01*
X104821610Y-147162287D01*
X104917901Y-147092328D01*
X104987213Y-147041971D01*
X104987215Y-147041968D01*
X104987219Y-147041966D01*
X105131966Y-146897219D01*
X105131968Y-146897215D01*
X105131971Y-146897213D01*
X105184732Y-146824590D01*
X105252287Y-146731610D01*
X105345220Y-146549219D01*
X105408477Y-146354534D01*
X105440500Y-146152352D01*
X105440500Y-145947648D01*
X105412825Y-145772918D01*
X105408477Y-145745465D01*
X105345218Y-145550776D01*
X105301982Y-145465922D01*
X105252287Y-145368390D01*
X105185289Y-145276174D01*
X105131971Y-145202786D01*
X104987213Y-145058028D01*
X104821611Y-144937713D01*
X104728369Y-144890203D01*
X104677574Y-144842229D01*
X104660779Y-144774407D01*
X104683317Y-144708273D01*
X104728371Y-144669234D01*
X104821347Y-144621861D01*
X104986894Y-144501582D01*
X104986895Y-144501582D01*
X105131582Y-144356895D01*
X105131582Y-144356894D01*
X105251859Y-144191349D01*
X105344755Y-144009029D01*
X105407990Y-143814413D01*
X105416609Y-143760000D01*
X104573012Y-143760000D01*
X104605925Y-143702993D01*
X104640000Y-143575826D01*
X104640000Y-143444174D01*
X104605925Y-143317007D01*
X104573012Y-143260000D01*
X105416609Y-143260000D01*
X105407990Y-143205586D01*
X105344755Y-143010970D01*
X105251859Y-142828650D01*
X105131582Y-142663105D01*
X105131582Y-142663104D01*
X104986895Y-142518417D01*
X104821349Y-142398140D01*
X104728370Y-142350765D01*
X104677574Y-142302790D01*
X104660779Y-142234969D01*
X104683316Y-142168835D01*
X104728370Y-142129795D01*
X104728920Y-142129515D01*
X104821610Y-142082287D01*
X104842770Y-142066913D01*
X104987213Y-141961971D01*
X104987215Y-141961968D01*
X104987219Y-141961966D01*
X105131966Y-141817219D01*
X105131968Y-141817215D01*
X105131971Y-141817213D01*
X105184732Y-141744590D01*
X105252287Y-141651610D01*
X105345220Y-141469219D01*
X105408477Y-141274534D01*
X105440500Y-141072352D01*
X105440500Y-140867648D01*
X105408477Y-140665466D01*
X105346983Y-140476209D01*
X105344989Y-140406370D01*
X105381069Y-140346537D01*
X105443770Y-140315709D01*
X105513184Y-140323673D01*
X105552596Y-140350212D01*
X117544346Y-152341962D01*
X117544356Y-152341973D01*
X117548686Y-152346303D01*
X117548687Y-152346304D01*
X117653696Y-152451313D01*
X117782304Y-152525565D01*
X117925747Y-152564000D01*
X117925748Y-152564000D01*
X117925749Y-152564000D01*
X132074251Y-152564000D01*
X132074253Y-152564000D01*
X132217696Y-152525565D01*
X132346304Y-152451313D01*
X132451313Y-152346304D01*
X132451313Y-152346302D01*
X132461517Y-152336099D01*
X132461520Y-152336094D01*
X135071313Y-149726304D01*
X135145565Y-149597696D01*
X135184001Y-149454252D01*
X135184001Y-149305747D01*
X135184001Y-149298152D01*
X135184000Y-149298134D01*
X135184000Y-147298199D01*
X135203685Y-147231160D01*
X135251706Y-147187714D01*
X135301610Y-147162287D01*
X135351144Y-147126298D01*
X135467213Y-147041971D01*
X135467215Y-147041968D01*
X135467219Y-147041966D01*
X135611966Y-146897219D01*
X135611968Y-146897215D01*
X135611971Y-146897213D01*
X135664732Y-146824590D01*
X135732287Y-146731610D01*
X135825220Y-146549219D01*
X135888477Y-146354534D01*
X135920500Y-146152352D01*
X135920500Y-145947648D01*
X135892825Y-145772918D01*
X135888477Y-145745465D01*
X135874912Y-145703718D01*
X135825220Y-145550781D01*
X135732287Y-145368390D01*
X135665289Y-145276174D01*
X135611971Y-145202786D01*
X135467213Y-145058028D01*
X135301613Y-144937715D01*
X135301612Y-144937714D01*
X135301610Y-144937713D01*
X135216592Y-144894394D01*
X135119223Y-144844781D01*
X134924534Y-144781522D01*
X134737751Y-144751939D01*
X134722352Y-144749500D01*
X134517648Y-144749500D01*
X134502249Y-144751939D01*
X134315465Y-144781522D01*
X134120776Y-144844781D01*
X133938386Y-144937715D01*
X133772786Y-145058028D01*
X133628028Y-145202786D01*
X133507715Y-145368386D01*
X133414781Y-145550776D01*
X133351522Y-145745465D01*
X133319500Y-145947648D01*
X133319500Y-146152351D01*
X133351522Y-146354534D01*
X133414781Y-146549223D01*
X133507715Y-146731613D01*
X133628028Y-146897213D01*
X133772786Y-147041971D01*
X133938388Y-147162286D01*
X133988294Y-147187714D01*
X134039090Y-147235687D01*
X134056000Y-147298199D01*
X134056000Y-149095021D01*
X134036315Y-149162060D01*
X134019681Y-149182702D01*
X131802703Y-151399681D01*
X131741380Y-151433166D01*
X131715022Y-151436000D01*
X118284978Y-151436000D01*
X118217939Y-151416315D01*
X118197297Y-151399681D01*
X105470062Y-138672446D01*
X105436577Y-138611123D01*
X105435270Y-138565369D01*
X105440500Y-138532352D01*
X105440500Y-138327648D01*
X105417390Y-138181740D01*
X105408477Y-138125465D01*
X105360786Y-137978689D01*
X105345220Y-137930781D01*
X105345218Y-137930778D01*
X105345218Y-137930776D01*
X105302182Y-137846315D01*
X105252287Y-137748390D01*
X105201427Y-137678386D01*
X105131971Y-137582786D01*
X104987213Y-137438028D01*
X104821614Y-137317715D01*
X104807363Y-137310454D01*
X104728917Y-137270483D01*
X104678123Y-137222511D01*
X104661328Y-137154690D01*
X104683865Y-137088555D01*
X104728917Y-137049516D01*
X104821610Y-137002287D01*
X104885568Y-136955819D01*
X104987213Y-136881971D01*
X104987215Y-136881968D01*
X104987219Y-136881966D01*
X105131966Y-136737219D01*
X105131968Y-136737215D01*
X105131971Y-136737213D01*
X105184732Y-136664590D01*
X105252287Y-136571610D01*
X105345220Y-136389219D01*
X105408477Y-136194534D01*
X105440500Y-135992352D01*
X105440500Y-135787648D01*
X105408477Y-135585466D01*
X105345220Y-135390781D01*
X105345218Y-135390778D01*
X105345218Y-135390776D01*
X105302182Y-135306315D01*
X105252287Y-135208390D01*
X105244556Y-135197749D01*
X105131971Y-135042786D01*
X104987213Y-134898028D01*
X104821614Y-134777715D01*
X104815006Y-134774348D01*
X104728917Y-134730483D01*
X104678123Y-134682511D01*
X104661328Y-134614690D01*
X104683865Y-134548555D01*
X104728917Y-134509516D01*
X104821610Y-134462287D01*
X104877255Y-134421859D01*
X104987213Y-134341971D01*
X104987215Y-134341968D01*
X104987219Y-134341966D01*
X105131966Y-134197219D01*
X105131968Y-134197215D01*
X105131971Y-134197213D01*
X105184732Y-134124590D01*
X105252287Y-134031610D01*
X105345220Y-133849219D01*
X105408477Y-133654534D01*
X105440500Y-133452352D01*
X105440500Y-133247648D01*
X105408477Y-133045466D01*
X105345220Y-132850781D01*
X105345218Y-132850778D01*
X105345218Y-132850776D01*
X105279751Y-132722292D01*
X105252287Y-132668390D01*
X105244556Y-132657749D01*
X105131971Y-132502786D01*
X104987213Y-132358028D01*
X104821614Y-132237715D01*
X104743957Y-132198147D01*
X104728917Y-132190483D01*
X104678123Y-132142511D01*
X104661328Y-132074690D01*
X104683865Y-132008555D01*
X104728917Y-131969516D01*
X104821610Y-131922287D01*
X104842770Y-131906913D01*
X104987213Y-131801971D01*
X104987215Y-131801968D01*
X104987219Y-131801966D01*
X105131966Y-131657219D01*
X105131968Y-131657215D01*
X105131971Y-131657213D01*
X105185991Y-131582860D01*
X105252287Y-131491610D01*
X105345220Y-131309219D01*
X105408477Y-131114534D01*
X105440500Y-130912352D01*
X105440500Y-130707648D01*
X105408477Y-130505465D01*
X105367687Y-130379928D01*
X105345220Y-130310781D01*
X105345218Y-130310778D01*
X105345218Y-130310776D01*
X105282767Y-130188211D01*
X105252287Y-130128390D01*
X105219050Y-130082643D01*
X105131971Y-129962786D01*
X104987213Y-129818028D01*
X104821614Y-129697715D01*
X104815006Y-129694348D01*
X104728917Y-129650483D01*
X104678123Y-129602511D01*
X104661328Y-129534690D01*
X104683865Y-129468555D01*
X104728917Y-129429516D01*
X104821610Y-129382287D01*
X104872673Y-129345188D01*
X104987213Y-129261971D01*
X104987215Y-129261968D01*
X104987219Y-129261966D01*
X105131966Y-129117219D01*
X105131968Y-129117215D01*
X105131971Y-129117213D01*
X105207614Y-129013097D01*
X105252287Y-128951610D01*
X105345220Y-128769219D01*
X105408477Y-128574534D01*
X105440500Y-128372352D01*
X105440500Y-128167648D01*
X105431731Y-128112284D01*
X105408477Y-127965465D01*
X105358215Y-127810776D01*
X105345220Y-127770781D01*
X105345218Y-127770778D01*
X105345218Y-127770776D01*
X105311503Y-127704607D01*
X105252287Y-127588390D01*
X105224261Y-127549815D01*
X105131971Y-127422786D01*
X104987213Y-127278028D01*
X104821614Y-127157715D01*
X104815006Y-127154348D01*
X104728917Y-127110483D01*
X104678123Y-127062511D01*
X104661328Y-126994690D01*
X104683865Y-126928555D01*
X104728917Y-126889516D01*
X104821610Y-126842287D01*
X104842770Y-126826913D01*
X104987213Y-126721971D01*
X104987215Y-126721968D01*
X104987219Y-126721966D01*
X105131966Y-126577219D01*
X105131968Y-126577215D01*
X105131971Y-126577213D01*
X105187505Y-126500776D01*
X105252287Y-126411610D01*
X105345220Y-126229219D01*
X105408477Y-126034534D01*
X105440500Y-125832352D01*
X105440500Y-125627648D01*
X105408477Y-125425466D01*
X105345220Y-125230781D01*
X105345218Y-125230778D01*
X105345218Y-125230776D01*
X105311503Y-125164607D01*
X105252287Y-125048390D01*
X105244556Y-125037749D01*
X105131971Y-124882786D01*
X104987213Y-124738028D01*
X104821614Y-124617715D01*
X104815006Y-124614348D01*
X104728917Y-124570483D01*
X104678123Y-124522511D01*
X104661328Y-124454690D01*
X104683865Y-124388555D01*
X104728917Y-124349516D01*
X104821610Y-124302287D01*
X104842770Y-124286913D01*
X104987213Y-124181971D01*
X104987215Y-124181968D01*
X104987219Y-124181966D01*
X105131966Y-124037219D01*
X105131968Y-124037215D01*
X105131971Y-124037213D01*
X105184732Y-123964590D01*
X105252287Y-123871610D01*
X105345220Y-123689219D01*
X105408477Y-123494534D01*
X105440500Y-123292352D01*
X105440500Y-123087648D01*
X105408477Y-122885466D01*
X105408476Y-122885464D01*
X105372427Y-122774517D01*
X105345220Y-122690781D01*
X105345218Y-122690778D01*
X105345218Y-122690776D01*
X105293707Y-122589681D01*
X105252287Y-122508390D01*
X105244556Y-122497749D01*
X105131971Y-122342786D01*
X104987213Y-122198028D01*
X104821614Y-122077715D01*
X104815006Y-122074348D01*
X104728917Y-122030483D01*
X104678123Y-121982511D01*
X104661328Y-121914690D01*
X104683865Y-121848555D01*
X104728917Y-121809516D01*
X104821610Y-121762287D01*
X104842770Y-121746913D01*
X104987213Y-121641971D01*
X104987215Y-121641968D01*
X104987219Y-121641966D01*
X105131966Y-121497219D01*
X105131968Y-121497215D01*
X105131971Y-121497213D01*
X105216566Y-121380776D01*
X105252287Y-121331610D01*
X105345220Y-121149219D01*
X105408477Y-120954534D01*
X105440500Y-120752352D01*
X105440500Y-120547648D01*
X105408477Y-120345466D01*
X105345220Y-120150781D01*
X105345218Y-120150778D01*
X105345218Y-120150776D01*
X105311503Y-120084607D01*
X105252287Y-119968390D01*
X105244556Y-119957749D01*
X105131971Y-119802786D01*
X104987213Y-119658028D01*
X104821614Y-119537715D01*
X104815006Y-119534348D01*
X104728917Y-119490483D01*
X104678123Y-119442511D01*
X104661328Y-119374690D01*
X104683865Y-119308555D01*
X104728917Y-119269516D01*
X104821610Y-119222287D01*
X104842770Y-119206913D01*
X104987213Y-119101971D01*
X104987215Y-119101968D01*
X104987219Y-119101966D01*
X105131966Y-118957219D01*
X105131968Y-118957215D01*
X105131971Y-118957213D01*
X105184732Y-118884590D01*
X105252287Y-118791610D01*
X105345220Y-118609219D01*
X105408477Y-118414534D01*
X105440500Y-118212352D01*
X105440500Y-118007648D01*
X105408477Y-117805466D01*
X105345220Y-117610781D01*
X105345218Y-117610778D01*
X105345218Y-117610776D01*
X105311503Y-117544607D01*
X105252287Y-117428390D01*
X105189734Y-117342292D01*
X105131971Y-117262786D01*
X104987213Y-117118028D01*
X104821614Y-116997715D01*
X104801911Y-116987676D01*
X104728917Y-116950483D01*
X104678123Y-116902511D01*
X104661328Y-116834690D01*
X104683865Y-116768555D01*
X104728917Y-116729516D01*
X104821610Y-116682287D01*
X104887530Y-116634394D01*
X104987213Y-116561971D01*
X104987215Y-116561968D01*
X104987219Y-116561966D01*
X105131966Y-116417219D01*
X105131968Y-116417215D01*
X105131971Y-116417213D01*
X105185287Y-116343828D01*
X105252287Y-116251610D01*
X105345220Y-116069219D01*
X105408477Y-115874534D01*
X105440500Y-115672352D01*
X105440500Y-115467648D01*
X105408477Y-115265466D01*
X105345220Y-115070781D01*
X105345218Y-115070778D01*
X105345218Y-115070776D01*
X105311503Y-115004607D01*
X105252287Y-114888390D01*
X105244556Y-114877749D01*
X105131971Y-114722786D01*
X104987213Y-114578028D01*
X104821614Y-114457715D01*
X104815006Y-114454348D01*
X104728917Y-114410483D01*
X104678123Y-114362511D01*
X104661328Y-114294690D01*
X104683865Y-114228555D01*
X104728917Y-114189516D01*
X104821610Y-114142287D01*
X104842770Y-114126913D01*
X104987213Y-114021971D01*
X104987215Y-114021968D01*
X104987219Y-114021966D01*
X105131966Y-113877219D01*
X105131968Y-113877215D01*
X105131971Y-113877213D01*
X105184732Y-113804590D01*
X105252287Y-113711610D01*
X105345220Y-113529219D01*
X105408477Y-113334534D01*
X105440500Y-113132352D01*
X105440500Y-112927648D01*
X105408477Y-112725466D01*
X105345220Y-112530781D01*
X105345218Y-112530778D01*
X105345218Y-112530776D01*
X105311503Y-112464607D01*
X105252287Y-112348390D01*
X105244556Y-112337749D01*
X105131971Y-112182786D01*
X104987213Y-112038028D01*
X104821614Y-111917715D01*
X104815006Y-111914348D01*
X104728917Y-111870483D01*
X104678123Y-111822511D01*
X104661328Y-111754690D01*
X104683865Y-111688555D01*
X104728917Y-111649516D01*
X104821610Y-111602287D01*
X104842770Y-111586913D01*
X104987213Y-111481971D01*
X104987215Y-111481968D01*
X104987219Y-111481966D01*
X105131966Y-111337219D01*
X105131968Y-111337215D01*
X105131971Y-111337213D01*
X105184732Y-111264590D01*
X105252287Y-111171610D01*
X105345220Y-110989219D01*
X105408477Y-110794534D01*
X105440500Y-110592352D01*
X105440500Y-110387648D01*
X118079500Y-110387648D01*
X118079500Y-110592351D01*
X118111522Y-110794534D01*
X118174781Y-110989223D01*
X118267715Y-111171613D01*
X118388028Y-111337213D01*
X118532786Y-111481971D01*
X118687749Y-111594556D01*
X118698390Y-111602287D01*
X118789840Y-111648883D01*
X118791080Y-111649515D01*
X118841876Y-111697490D01*
X118858671Y-111765311D01*
X118836134Y-111831446D01*
X118791080Y-111870485D01*
X118698386Y-111917715D01*
X118532786Y-112038028D01*
X118388028Y-112182786D01*
X118267715Y-112348386D01*
X118174781Y-112530776D01*
X118111522Y-112725465D01*
X118079500Y-112927648D01*
X118079500Y-113132351D01*
X118111522Y-113334534D01*
X118174781Y-113529223D01*
X118267715Y-113711613D01*
X118388028Y-113877213D01*
X118532786Y-114021971D01*
X118687749Y-114134556D01*
X118698390Y-114142287D01*
X118789840Y-114188883D01*
X118791080Y-114189515D01*
X118841876Y-114237490D01*
X118858671Y-114305311D01*
X118836134Y-114371446D01*
X118791080Y-114410485D01*
X118698386Y-114457715D01*
X118532786Y-114578028D01*
X118388028Y-114722786D01*
X118267715Y-114888386D01*
X118174781Y-115070776D01*
X118111522Y-115265465D01*
X118079500Y-115467648D01*
X118079500Y-115672351D01*
X118111522Y-115874534D01*
X118174781Y-116069223D01*
X118218017Y-116154076D01*
X118240728Y-116198650D01*
X118267715Y-116251613D01*
X118388028Y-116417213D01*
X118532786Y-116561971D01*
X118632470Y-116634394D01*
X118698390Y-116682287D01*
X118783408Y-116725606D01*
X118791080Y-116729515D01*
X118841876Y-116777490D01*
X118858671Y-116845311D01*
X118836134Y-116911446D01*
X118791080Y-116950485D01*
X118698386Y-116997715D01*
X118532786Y-117118028D01*
X118388028Y-117262786D01*
X118267715Y-117428386D01*
X118174781Y-117610776D01*
X118111522Y-117805465D01*
X118079500Y-118007648D01*
X118079500Y-118212351D01*
X118111522Y-118414534D01*
X118174781Y-118609223D01*
X118267715Y-118791613D01*
X118388028Y-118957213D01*
X118532786Y-119101971D01*
X118687749Y-119214556D01*
X118698390Y-119222287D01*
X118789840Y-119268883D01*
X118791080Y-119269515D01*
X118841876Y-119317490D01*
X118858671Y-119385311D01*
X118836134Y-119451446D01*
X118791080Y-119490485D01*
X118698386Y-119537715D01*
X118532786Y-119658028D01*
X118388028Y-119802786D01*
X118267715Y-119968386D01*
X118174781Y-120150776D01*
X118111522Y-120345465D01*
X118079500Y-120547648D01*
X118079500Y-120752351D01*
X118111522Y-120954534D01*
X118174781Y-121149223D01*
X118225262Y-121248295D01*
X118259759Y-121316000D01*
X118267715Y-121331613D01*
X118388028Y-121497213D01*
X118532786Y-121641971D01*
X118678852Y-121748092D01*
X118698390Y-121762287D01*
X118789840Y-121808883D01*
X118791080Y-121809515D01*
X118841876Y-121857490D01*
X118858671Y-121925311D01*
X118836134Y-121991446D01*
X118791080Y-122030485D01*
X118698386Y-122077715D01*
X118532786Y-122198028D01*
X118388028Y-122342786D01*
X118267715Y-122508386D01*
X118174781Y-122690776D01*
X118111522Y-122885465D01*
X118079500Y-123087648D01*
X118079500Y-123292351D01*
X118111522Y-123494534D01*
X118174781Y-123689223D01*
X118267715Y-123871613D01*
X118388028Y-124037213D01*
X118532786Y-124181971D01*
X118687749Y-124294556D01*
X118698390Y-124302287D01*
X118789840Y-124348883D01*
X118791080Y-124349515D01*
X118841876Y-124397490D01*
X118858671Y-124465311D01*
X118836134Y-124531446D01*
X118791080Y-124570485D01*
X118698386Y-124617715D01*
X118532786Y-124738028D01*
X118388028Y-124882786D01*
X118267715Y-125048386D01*
X118174781Y-125230776D01*
X118111522Y-125425465D01*
X118079500Y-125627648D01*
X118079500Y-125832351D01*
X118111522Y-126034534D01*
X118174781Y-126229223D01*
X118267715Y-126411613D01*
X118388028Y-126577213D01*
X118532786Y-126721971D01*
X118687749Y-126834556D01*
X118698390Y-126842287D01*
X118789840Y-126888883D01*
X118791080Y-126889515D01*
X118841876Y-126937490D01*
X118858671Y-127005311D01*
X118836134Y-127071446D01*
X118791080Y-127110485D01*
X118698386Y-127157715D01*
X118532786Y-127278028D01*
X118388028Y-127422786D01*
X118267715Y-127588386D01*
X118174781Y-127770776D01*
X118111522Y-127965465D01*
X118079500Y-128167648D01*
X118079500Y-128372351D01*
X118111522Y-128574534D01*
X118174781Y-128769223D01*
X118214198Y-128846582D01*
X118260514Y-128937482D01*
X118267715Y-128951613D01*
X118388028Y-129117213D01*
X118532786Y-129261971D01*
X118687749Y-129374556D01*
X118698390Y-129382287D01*
X118789840Y-129428883D01*
X118791080Y-129429515D01*
X118841876Y-129477490D01*
X118858671Y-129545311D01*
X118836134Y-129611446D01*
X118791080Y-129650485D01*
X118698386Y-129697715D01*
X118532786Y-129818028D01*
X118388028Y-129962786D01*
X118267715Y-130128386D01*
X118174781Y-130310776D01*
X118111522Y-130505465D01*
X118079500Y-130707648D01*
X118079500Y-130912351D01*
X118111522Y-131114534D01*
X118174781Y-131309223D01*
X118267715Y-131491613D01*
X118388028Y-131657213D01*
X118532786Y-131801971D01*
X118687749Y-131914556D01*
X118698390Y-131922287D01*
X118789840Y-131968883D01*
X118791080Y-131969515D01*
X118841876Y-132017490D01*
X118858671Y-132085311D01*
X118836134Y-132151446D01*
X118791080Y-132190485D01*
X118698386Y-132237715D01*
X118532786Y-132358028D01*
X118388028Y-132502786D01*
X118267715Y-132668386D01*
X118174781Y-132850776D01*
X118111522Y-133045465D01*
X118079500Y-133247648D01*
X118079500Y-133452351D01*
X118111522Y-133654534D01*
X118174781Y-133849223D01*
X118215484Y-133929105D01*
X118247199Y-133991350D01*
X118267715Y-134031613D01*
X118388028Y-134197213D01*
X118532786Y-134341971D01*
X118642745Y-134421859D01*
X118698390Y-134462287D01*
X118789840Y-134508883D01*
X118791080Y-134509515D01*
X118841876Y-134557490D01*
X118858671Y-134625311D01*
X118836134Y-134691446D01*
X118791080Y-134730485D01*
X118698386Y-134777715D01*
X118532786Y-134898028D01*
X118388028Y-135042786D01*
X118267715Y-135208386D01*
X118174781Y-135390776D01*
X118111522Y-135585465D01*
X118079500Y-135787648D01*
X118079500Y-135992351D01*
X118111522Y-136194534D01*
X118174781Y-136389223D01*
X118267715Y-136571613D01*
X118388028Y-136737213D01*
X118532786Y-136881971D01*
X118644036Y-136962797D01*
X118698390Y-137002287D01*
X118770424Y-137038990D01*
X118791629Y-137049795D01*
X118842425Y-137097770D01*
X118859220Y-137165591D01*
X118836682Y-137231726D01*
X118791629Y-137270765D01*
X118698650Y-137318140D01*
X118533105Y-137438417D01*
X118533104Y-137438417D01*
X118388417Y-137583104D01*
X118388417Y-137583105D01*
X118268140Y-137748650D01*
X118175244Y-137930970D01*
X118112009Y-138125586D01*
X118103391Y-138180000D01*
X118946988Y-138180000D01*
X118914075Y-138237007D01*
X118880000Y-138364174D01*
X118880000Y-138495826D01*
X118914075Y-138622993D01*
X118946988Y-138680000D01*
X118103391Y-138680000D01*
X118112009Y-138734413D01*
X118175244Y-138929029D01*
X118268140Y-139111349D01*
X118388417Y-139276894D01*
X118388417Y-139276895D01*
X118533104Y-139421582D01*
X118698652Y-139541861D01*
X118791628Y-139589234D01*
X118842425Y-139637208D01*
X118859220Y-139705029D01*
X118836683Y-139771164D01*
X118791630Y-139810203D01*
X118698388Y-139857713D01*
X118532786Y-139978028D01*
X118388028Y-140122786D01*
X118267715Y-140288386D01*
X118174781Y-140470776D01*
X118111522Y-140665465D01*
X118079500Y-140867648D01*
X118079500Y-141072351D01*
X118111522Y-141274534D01*
X118174781Y-141469223D01*
X118267715Y-141651613D01*
X118388028Y-141817213D01*
X118532786Y-141961971D01*
X118687749Y-142074556D01*
X118698390Y-142082287D01*
X118789840Y-142128883D01*
X118791080Y-142129515D01*
X118841876Y-142177490D01*
X118858671Y-142245311D01*
X118836134Y-142311446D01*
X118791080Y-142350485D01*
X118698386Y-142397715D01*
X118532786Y-142518028D01*
X118388028Y-142662786D01*
X118267715Y-142828386D01*
X118174781Y-143010776D01*
X118111522Y-143205465D01*
X118079500Y-143407648D01*
X118079500Y-143612351D01*
X118111522Y-143814534D01*
X118174781Y-144009223D01*
X118199963Y-144058644D01*
X118247679Y-144152292D01*
X118267715Y-144191613D01*
X118388028Y-144357213D01*
X118532784Y-144501969D01*
X118569068Y-144528330D01*
X118611735Y-144583659D01*
X118617715Y-144653273D01*
X118585109Y-144715068D01*
X118524271Y-144749426D01*
X118509440Y-144751938D01*
X118472519Y-144755907D01*
X118337671Y-144806202D01*
X118337664Y-144806206D01*
X118222455Y-144892452D01*
X118222452Y-144892455D01*
X118136206Y-145007664D01*
X118136202Y-145007671D01*
X118085908Y-145142517D01*
X118079501Y-145202116D01*
X118079501Y-145202123D01*
X118079500Y-145202135D01*
X118079500Y-146897870D01*
X118079501Y-146897876D01*
X118085908Y-146957483D01*
X118136202Y-147092328D01*
X118136206Y-147092335D01*
X118222452Y-147207544D01*
X118222455Y-147207547D01*
X118337664Y-147293793D01*
X118337671Y-147293797D01*
X118472517Y-147344091D01*
X118472516Y-147344091D01*
X118479444Y-147344835D01*
X118532127Y-147350500D01*
X120227872Y-147350499D01*
X120287483Y-147344091D01*
X120422331Y-147293796D01*
X120537546Y-147207546D01*
X120623796Y-147092331D01*
X120674091Y-146957483D01*
X120680500Y-146897873D01*
X120680499Y-145202128D01*
X120674091Y-145142517D01*
X120673152Y-145140000D01*
X120623797Y-145007671D01*
X120623793Y-145007664D01*
X120537547Y-144892455D01*
X120537544Y-144892452D01*
X120422335Y-144806206D01*
X120422328Y-144806202D01*
X120287482Y-144755908D01*
X120287483Y-144755908D01*
X120250560Y-144751939D01*
X120186008Y-144725201D01*
X120146160Y-144667809D01*
X120145084Y-144637682D01*
X125700000Y-144637682D01*
X125700000Y-144842317D01*
X125732009Y-145044417D01*
X125795244Y-145239031D01*
X125888141Y-145421350D01*
X125888147Y-145421359D01*
X125920523Y-145465921D01*
X125920524Y-145465922D01*
X126600000Y-144786446D01*
X126600000Y-144792661D01*
X126627259Y-144894394D01*
X126679920Y-144985606D01*
X126754394Y-145060080D01*
X126845606Y-145112741D01*
X126947339Y-145140000D01*
X126953553Y-145140000D01*
X126274076Y-145819474D01*
X126318650Y-145851859D01*
X126500968Y-145944755D01*
X126695582Y-146007990D01*
X126897683Y-146040000D01*
X127102317Y-146040000D01*
X127304417Y-146007990D01*
X127499031Y-145944755D01*
X127681349Y-145851859D01*
X127725921Y-145819474D01*
X127046447Y-145140000D01*
X127052661Y-145140000D01*
X127154394Y-145112741D01*
X127245606Y-145060080D01*
X127320080Y-144985606D01*
X127372741Y-144894394D01*
X127400000Y-144792661D01*
X127400000Y-144786448D01*
X128079474Y-145465922D01*
X128079474Y-145465921D01*
X128111859Y-145421349D01*
X128204755Y-145239031D01*
X128267990Y-145044417D01*
X128300000Y-144842317D01*
X128300000Y-144637682D01*
X128267990Y-144435582D01*
X128258181Y-144405394D01*
X128247313Y-144371947D01*
X138760000Y-144371947D01*
X138760000Y-144608052D01*
X138796934Y-144841247D01*
X138869897Y-145065802D01*
X138977087Y-145276174D01*
X139037338Y-145359104D01*
X139037340Y-145359105D01*
X139736212Y-144660233D01*
X139747482Y-144702292D01*
X139819890Y-144827708D01*
X139922292Y-144930110D01*
X140047708Y-145002518D01*
X140089765Y-145013787D01*
X139390893Y-145712658D01*
X139473828Y-145772914D01*
X139684197Y-145880102D01*
X139908752Y-145953065D01*
X139908751Y-145953065D01*
X140141948Y-145990000D01*
X140378052Y-145990000D01*
X140611247Y-145953065D01*
X140835802Y-145880102D01*
X141046163Y-145772918D01*
X141046169Y-145772914D01*
X141129104Y-145712658D01*
X141129105Y-145712658D01*
X140430233Y-145013787D01*
X140472292Y-145002518D01*
X140597708Y-144930110D01*
X140700110Y-144827708D01*
X140772518Y-144702292D01*
X140783787Y-144660234D01*
X141482658Y-145359105D01*
X141482658Y-145359104D01*
X141542914Y-145276169D01*
X141542918Y-145276163D01*
X141650102Y-145065802D01*
X141723065Y-144841247D01*
X141760000Y-144608052D01*
X141760000Y-144371947D01*
X145260000Y-144371947D01*
X145260000Y-144608052D01*
X145296934Y-144841247D01*
X145369897Y-145065802D01*
X145477087Y-145276174D01*
X145537338Y-145359104D01*
X145537340Y-145359105D01*
X146236212Y-144660233D01*
X146247482Y-144702292D01*
X146319890Y-144827708D01*
X146422292Y-144930110D01*
X146547708Y-145002518D01*
X146589765Y-145013787D01*
X145890893Y-145712658D01*
X145973828Y-145772914D01*
X146184197Y-145880102D01*
X146408752Y-145953065D01*
X146408751Y-145953065D01*
X146641948Y-145990000D01*
X146878052Y-145990000D01*
X147111247Y-145953065D01*
X147335802Y-145880102D01*
X147546163Y-145772918D01*
X147546169Y-145772914D01*
X147629104Y-145712658D01*
X147629105Y-145712658D01*
X146930233Y-145013787D01*
X146972292Y-145002518D01*
X147097708Y-144930110D01*
X147200110Y-144827708D01*
X147272518Y-144702292D01*
X147283787Y-144660234D01*
X147982658Y-145359105D01*
X147982658Y-145359104D01*
X148042914Y-145276169D01*
X148042918Y-145276163D01*
X148150102Y-145065802D01*
X148223065Y-144841247D01*
X148260000Y-144608052D01*
X148260000Y-144371947D01*
X148223065Y-144138752D01*
X148150102Y-143914197D01*
X148042914Y-143703828D01*
X147982658Y-143620894D01*
X147982658Y-143620893D01*
X147283787Y-144319765D01*
X147272518Y-144277708D01*
X147200110Y-144152292D01*
X147097708Y-144049890D01*
X146972292Y-143977482D01*
X146930234Y-143966212D01*
X147629105Y-143267340D01*
X147629104Y-143267338D01*
X147546174Y-143207087D01*
X147335802Y-143099897D01*
X147111247Y-143026934D01*
X147111248Y-143026934D01*
X146878052Y-142990000D01*
X146641948Y-142990000D01*
X146408752Y-143026934D01*
X146184197Y-143099897D01*
X145973830Y-143207084D01*
X145890894Y-143267340D01*
X146589766Y-143966212D01*
X146547708Y-143977482D01*
X146422292Y-144049890D01*
X146319890Y-144152292D01*
X146247482Y-144277708D01*
X146236212Y-144319766D01*
X145537340Y-143620894D01*
X145477084Y-143703830D01*
X145369897Y-143914197D01*
X145296934Y-144138752D01*
X145260000Y-144371947D01*
X141760000Y-144371947D01*
X141723065Y-144138752D01*
X141650102Y-143914197D01*
X141542914Y-143703828D01*
X141482658Y-143620894D01*
X141482658Y-143620893D01*
X140783787Y-144319765D01*
X140772518Y-144277708D01*
X140700110Y-144152292D01*
X140597708Y-144049890D01*
X140472292Y-143977482D01*
X140430234Y-143966212D01*
X141129105Y-143267340D01*
X141129104Y-143267339D01*
X141046174Y-143207087D01*
X140835802Y-143099897D01*
X140611247Y-143026934D01*
X140611248Y-143026934D01*
X140378052Y-142990000D01*
X140141948Y-142990000D01*
X139908752Y-143026934D01*
X139684197Y-143099897D01*
X139473830Y-143207084D01*
X139390894Y-143267340D01*
X140089766Y-143966212D01*
X140047708Y-143977482D01*
X139922292Y-144049890D01*
X139819890Y-144152292D01*
X139747482Y-144277708D01*
X139736212Y-144319766D01*
X139037340Y-143620894D01*
X138977084Y-143703830D01*
X138869897Y-143914197D01*
X138796934Y-144138752D01*
X138760000Y-144371947D01*
X128247313Y-144371947D01*
X128204755Y-144240968D01*
X128111859Y-144058650D01*
X128079474Y-144014077D01*
X128079474Y-144014076D01*
X127400000Y-144693551D01*
X127400000Y-144687339D01*
X127372741Y-144585606D01*
X127320080Y-144494394D01*
X127245606Y-144419920D01*
X127154394Y-144367259D01*
X127052661Y-144340000D01*
X127046446Y-144340000D01*
X127725922Y-143660524D01*
X127725921Y-143660523D01*
X127681359Y-143628147D01*
X127681350Y-143628141D01*
X127499031Y-143535244D01*
X127304417Y-143472009D01*
X127102317Y-143440000D01*
X126897683Y-143440000D01*
X126695582Y-143472009D01*
X126500968Y-143535244D01*
X126318644Y-143628143D01*
X126274077Y-143660523D01*
X126274077Y-143660524D01*
X126953554Y-144340000D01*
X126947339Y-144340000D01*
X126845606Y-144367259D01*
X126754394Y-144419920D01*
X126679920Y-144494394D01*
X126627259Y-144585606D01*
X126600000Y-144687339D01*
X126600000Y-144693553D01*
X125920524Y-144014077D01*
X125920523Y-144014077D01*
X125888143Y-144058644D01*
X125795244Y-144240968D01*
X125732009Y-144435582D01*
X125700000Y-144637682D01*
X120145084Y-144637682D01*
X120143667Y-144597984D01*
X120179320Y-144537895D01*
X120190930Y-144528331D01*
X120227219Y-144501966D01*
X120371966Y-144357219D01*
X120371968Y-144357215D01*
X120371971Y-144357213D01*
X120429734Y-144277708D01*
X120492287Y-144191610D01*
X120585220Y-144009219D01*
X120648477Y-143814534D01*
X120680500Y-143612352D01*
X120680500Y-143407648D01*
X120680500Y-143407647D01*
X120668835Y-143333996D01*
X120648477Y-143205465D01*
X120617426Y-143109901D01*
X120585220Y-143010781D01*
X120585218Y-143010778D01*
X120585218Y-143010776D01*
X120492419Y-142828650D01*
X120492287Y-142828390D01*
X120484556Y-142817749D01*
X120371971Y-142662786D01*
X120227213Y-142518028D01*
X120061614Y-142397715D01*
X120055006Y-142394348D01*
X119968917Y-142350483D01*
X119918123Y-142302511D01*
X119901328Y-142234690D01*
X119923865Y-142168555D01*
X119968917Y-142129516D01*
X120061610Y-142082287D01*
X120082770Y-142066913D01*
X120227213Y-141961971D01*
X120227215Y-141961968D01*
X120227219Y-141961966D01*
X120371966Y-141817219D01*
X120371968Y-141817215D01*
X120371971Y-141817213D01*
X120424732Y-141744590D01*
X120492287Y-141651610D01*
X120585220Y-141469219D01*
X120648477Y-141274534D01*
X120680500Y-141072352D01*
X120680500Y-140867648D01*
X120648477Y-140665466D01*
X120585220Y-140470781D01*
X120585218Y-140470778D01*
X120585218Y-140470776D01*
X120534738Y-140371705D01*
X120492287Y-140288390D01*
X120475702Y-140265563D01*
X120371971Y-140122786D01*
X120227213Y-139978028D01*
X120061611Y-139857713D01*
X119968369Y-139810203D01*
X119917574Y-139762229D01*
X119900779Y-139694407D01*
X119923317Y-139628273D01*
X119968371Y-139589234D01*
X120061347Y-139541861D01*
X120226894Y-139421582D01*
X120226895Y-139421582D01*
X120371582Y-139276895D01*
X120371582Y-139276894D01*
X120491859Y-139111349D01*
X120584755Y-138929029D01*
X120647990Y-138734413D01*
X120656609Y-138680000D01*
X119813012Y-138680000D01*
X119845925Y-138622993D01*
X119880000Y-138495826D01*
X119880000Y-138364174D01*
X119845925Y-138237007D01*
X119813012Y-138180000D01*
X120656609Y-138180000D01*
X120647990Y-138125586D01*
X120584755Y-137930970D01*
X120491859Y-137748650D01*
X120371582Y-137583105D01*
X120371582Y-137583104D01*
X120226895Y-137438417D01*
X120061349Y-137318140D01*
X119968370Y-137270765D01*
X119917574Y-137222790D01*
X119900779Y-137154969D01*
X119923316Y-137088835D01*
X119968370Y-137049795D01*
X119968920Y-137049515D01*
X120061610Y-137002287D01*
X120125568Y-136955819D01*
X120227213Y-136881971D01*
X120227215Y-136881968D01*
X120227219Y-136881966D01*
X120371966Y-136737219D01*
X120371968Y-136737215D01*
X120371971Y-136737213D01*
X120424732Y-136664590D01*
X120492287Y-136571610D01*
X120517715Y-136521705D01*
X120565690Y-136470909D01*
X120628200Y-136454000D01*
X122865022Y-136454000D01*
X122932061Y-136473685D01*
X122952703Y-136490319D01*
X125718581Y-139256197D01*
X125752066Y-139317520D01*
X125748831Y-139382196D01*
X125731523Y-139435464D01*
X125699500Y-139637648D01*
X125699500Y-139842351D01*
X125731522Y-140044534D01*
X125794781Y-140239223D01*
X125887715Y-140421613D01*
X126008028Y-140587213D01*
X126152786Y-140731971D01*
X126307749Y-140844556D01*
X126318390Y-140852287D01*
X126434607Y-140911503D01*
X126500776Y-140945218D01*
X126500778Y-140945218D01*
X126500781Y-140945220D01*
X126569383Y-140967510D01*
X126695465Y-141008477D01*
X126796557Y-141024488D01*
X126897648Y-141040500D01*
X126897649Y-141040500D01*
X127102351Y-141040500D01*
X127102352Y-141040500D01*
X127304534Y-141008477D01*
X127499219Y-140945220D01*
X127681610Y-140852287D01*
X127786015Y-140776433D01*
X127847213Y-140731971D01*
X127847215Y-140731968D01*
X127847219Y-140731966D01*
X127991966Y-140587219D01*
X127991968Y-140587215D01*
X127991971Y-140587213D01*
X128044732Y-140514590D01*
X128112287Y-140421610D01*
X128137715Y-140371705D01*
X128185690Y-140320909D01*
X128248200Y-140304000D01*
X133384251Y-140304000D01*
X133384253Y-140304000D01*
X133527696Y-140265565D01*
X133656304Y-140191313D01*
X133761313Y-140086304D01*
X133761313Y-140086302D01*
X133771517Y-140076099D01*
X133771521Y-140076094D01*
X134136198Y-139711416D01*
X134197519Y-139677933D01*
X134262194Y-139681167D01*
X134315466Y-139698477D01*
X134517648Y-139730500D01*
X134517649Y-139730500D01*
X134722351Y-139730500D01*
X134722352Y-139730500D01*
X134924534Y-139698477D01*
X135119219Y-139635220D01*
X135301610Y-139542287D01*
X135448638Y-139435466D01*
X135467213Y-139421971D01*
X135467215Y-139421968D01*
X135467219Y-139421966D01*
X135611966Y-139277219D01*
X135611968Y-139277215D01*
X135611971Y-139277213D01*
X135681425Y-139181616D01*
X135732287Y-139111610D01*
X135757715Y-139061705D01*
X135805690Y-139010909D01*
X135868200Y-138994000D01*
X138415022Y-138994000D01*
X138482061Y-139013685D01*
X138502703Y-139030319D01*
X138819859Y-139347475D01*
X138853344Y-139408798D01*
X138850109Y-139473474D01*
X138796447Y-139638627D01*
X138796447Y-139638630D01*
X138759500Y-139871902D01*
X138759500Y-140108097D01*
X138796446Y-140341368D01*
X138869433Y-140565996D01*
X138954000Y-140731966D01*
X138976657Y-140776433D01*
X139115483Y-140967510D01*
X139282490Y-141134517D01*
X139473567Y-141273343D01*
X139572991Y-141324002D01*
X139684003Y-141380566D01*
X139684005Y-141380566D01*
X139684008Y-141380568D01*
X139804412Y-141419689D01*
X139908631Y-141453553D01*
X140141903Y-141490500D01*
X140141908Y-141490500D01*
X140378097Y-141490500D01*
X140611368Y-141453553D01*
X140835992Y-141380568D01*
X141046433Y-141273343D01*
X141237510Y-141134517D01*
X141404517Y-140967510D01*
X141543343Y-140776433D01*
X141622181Y-140621705D01*
X141670156Y-140570909D01*
X141732666Y-140554000D01*
X145287334Y-140554000D01*
X145354373Y-140573685D01*
X145397819Y-140621705D01*
X145454000Y-140731966D01*
X145476657Y-140776433D01*
X145615483Y-140967510D01*
X145782490Y-141134517D01*
X145973567Y-141273343D01*
X146072991Y-141324002D01*
X146184003Y-141380566D01*
X146184005Y-141380566D01*
X146184008Y-141380568D01*
X146304412Y-141419689D01*
X146408631Y-141453553D01*
X146641903Y-141490500D01*
X146641908Y-141490500D01*
X146878097Y-141490500D01*
X147111368Y-141453553D01*
X147335992Y-141380568D01*
X147546433Y-141273343D01*
X147737510Y-141134517D01*
X147904517Y-140967510D01*
X148043343Y-140776433D01*
X148150568Y-140565992D01*
X148223553Y-140341368D01*
X148227617Y-140315709D01*
X148260500Y-140108097D01*
X148260500Y-139871902D01*
X148223553Y-139638631D01*
X148157539Y-139435464D01*
X148150568Y-139414008D01*
X148150566Y-139414005D01*
X148150566Y-139414003D01*
X148092214Y-139299482D01*
X148043343Y-139203567D01*
X147904517Y-139012490D01*
X147737510Y-138845483D01*
X147546433Y-138706657D01*
X147494116Y-138680000D01*
X147335996Y-138599433D01*
X147111368Y-138526446D01*
X146878097Y-138489500D01*
X146878092Y-138489500D01*
X146641908Y-138489500D01*
X146641903Y-138489500D01*
X146408631Y-138526446D01*
X146184003Y-138599433D01*
X145973566Y-138706657D01*
X145867729Y-138783553D01*
X145782490Y-138845483D01*
X145782488Y-138845485D01*
X145782487Y-138845485D01*
X145615485Y-139012487D01*
X145615485Y-139012488D01*
X145615483Y-139012490D01*
X145582138Y-139058386D01*
X145476657Y-139203566D01*
X145397819Y-139358295D01*
X145349844Y-139409091D01*
X145287334Y-139426000D01*
X141732666Y-139426000D01*
X141665627Y-139406315D01*
X141622181Y-139358295D01*
X141592214Y-139299482D01*
X141543343Y-139203567D01*
X141404517Y-139012490D01*
X141237510Y-138845483D01*
X141046433Y-138706657D01*
X140994116Y-138680000D01*
X140835996Y-138599433D01*
X140611368Y-138526446D01*
X140378097Y-138489500D01*
X140378092Y-138489500D01*
X140141908Y-138489500D01*
X140141903Y-138489500D01*
X139908630Y-138526447D01*
X139908627Y-138526447D01*
X139743474Y-138580109D01*
X139673633Y-138582104D01*
X139617475Y-138549859D01*
X139158383Y-138090767D01*
X139158381Y-138090764D01*
X139046306Y-137978689D01*
X139046304Y-137978687D01*
X138917698Y-137904436D01*
X138917697Y-137904435D01*
X138883082Y-137895160D01*
X138848469Y-137885886D01*
X138848468Y-137885885D01*
X138794138Y-137871328D01*
X138774253Y-137866000D01*
X138774252Y-137866000D01*
X135868200Y-137866000D01*
X135801161Y-137846315D01*
X135757715Y-137798295D01*
X135748562Y-137780332D01*
X135732287Y-137748390D01*
X135681427Y-137678386D01*
X135611971Y-137582786D01*
X135467213Y-137438028D01*
X135301613Y-137317715D01*
X135301612Y-137317714D01*
X135301610Y-137317713D01*
X135209470Y-137270765D01*
X135119223Y-137224781D01*
X134924534Y-137161522D01*
X134749995Y-137133878D01*
X134722352Y-137129500D01*
X134517648Y-137129500D01*
X134493329Y-137133351D01*
X134315465Y-137161522D01*
X134120776Y-137224781D01*
X133938386Y-137317715D01*
X133772786Y-137438028D01*
X133628028Y-137582786D01*
X133507715Y-137748386D01*
X133414781Y-137930776D01*
X133351522Y-138125465D01*
X133319500Y-138327648D01*
X133319500Y-138532351D01*
X133351522Y-138734531D01*
X133368831Y-138787804D01*
X133370825Y-138857646D01*
X133338580Y-138913802D01*
X133112701Y-139139682D01*
X133051381Y-139173166D01*
X133025022Y-139176000D01*
X128248200Y-139176000D01*
X128181161Y-139156315D01*
X128137715Y-139108295D01*
X128129123Y-139091432D01*
X128112287Y-139058390D01*
X128104556Y-139047749D01*
X127991971Y-138892786D01*
X127847213Y-138748028D01*
X127681613Y-138627715D01*
X127681612Y-138627714D01*
X127681610Y-138627713D01*
X127624653Y-138598691D01*
X127499223Y-138534781D01*
X127304534Y-138471522D01*
X127129995Y-138443878D01*
X127102352Y-138439500D01*
X126897648Y-138439500D01*
X126830254Y-138450174D01*
X126695464Y-138471523D01*
X126642196Y-138488831D01*
X126572355Y-138490826D01*
X126516197Y-138458581D01*
X123608383Y-135550767D01*
X123608381Y-135550764D01*
X123496306Y-135438689D01*
X123496304Y-135438687D01*
X123367696Y-135364435D01*
X123224253Y-135326000D01*
X123224252Y-135326000D01*
X120628200Y-135326000D01*
X120561161Y-135306315D01*
X120517715Y-135258295D01*
X120512390Y-135247846D01*
X120492287Y-135208390D01*
X120484556Y-135197749D01*
X120371971Y-135042786D01*
X120227213Y-134898028D01*
X120061614Y-134777715D01*
X120055006Y-134774348D01*
X119968917Y-134730483D01*
X119918123Y-134682511D01*
X119901328Y-134614690D01*
X119923865Y-134548555D01*
X119968917Y-134509516D01*
X120061610Y-134462287D01*
X120117255Y-134421859D01*
X120227213Y-134341971D01*
X120227215Y-134341968D01*
X120227219Y-134341966D01*
X120371966Y-134197219D01*
X120371968Y-134197215D01*
X120371971Y-134197213D01*
X120424732Y-134124590D01*
X120492287Y-134031610D01*
X120517715Y-133981705D01*
X120565690Y-133930909D01*
X120628200Y-133914000D01*
X122034251Y-133914000D01*
X122034253Y-133914000D01*
X122177696Y-133875565D01*
X122306304Y-133801313D01*
X122411313Y-133696304D01*
X122411313Y-133696302D01*
X122421517Y-133686099D01*
X122421521Y-133686094D01*
X122899933Y-133207682D01*
X125700000Y-133207682D01*
X125700000Y-133412317D01*
X125732009Y-133614417D01*
X125795244Y-133809031D01*
X125888141Y-133991350D01*
X125888147Y-133991359D01*
X125920523Y-134035921D01*
X125920524Y-134035922D01*
X126600000Y-133356446D01*
X126600000Y-133362661D01*
X126627259Y-133464394D01*
X126679920Y-133555606D01*
X126754394Y-133630080D01*
X126845606Y-133682741D01*
X126947339Y-133710000D01*
X126953553Y-133710000D01*
X126274076Y-134389474D01*
X126318650Y-134421859D01*
X126500968Y-134514755D01*
X126695582Y-134577990D01*
X126897683Y-134610000D01*
X127102317Y-134610000D01*
X127304417Y-134577990D01*
X127499031Y-134514755D01*
X127681349Y-134421859D01*
X127725921Y-134389474D01*
X127046447Y-133710000D01*
X127052661Y-133710000D01*
X127154394Y-133682741D01*
X127245606Y-133630080D01*
X127320080Y-133555606D01*
X127372741Y-133464394D01*
X127400000Y-133362661D01*
X127400000Y-133356448D01*
X128079474Y-134035922D01*
X128079474Y-134035921D01*
X128111859Y-133991349D01*
X128204755Y-133809031D01*
X128267990Y-133614417D01*
X128300000Y-133412317D01*
X128300000Y-133207682D01*
X128267990Y-133005582D01*
X128204755Y-132810968D01*
X128111859Y-132628650D01*
X128079474Y-132584077D01*
X128079474Y-132584076D01*
X127400000Y-133263551D01*
X127400000Y-133257339D01*
X127372741Y-133155606D01*
X127320080Y-133064394D01*
X127245606Y-132989920D01*
X127154394Y-132937259D01*
X127052661Y-132910000D01*
X127046446Y-132910000D01*
X127725922Y-132230524D01*
X127725921Y-132230523D01*
X127681359Y-132198147D01*
X127681350Y-132198141D01*
X127499031Y-132105244D01*
X127304417Y-132042009D01*
X127102317Y-132010000D01*
X126897683Y-132010000D01*
X126695582Y-132042009D01*
X126500968Y-132105244D01*
X126318644Y-132198143D01*
X126274077Y-132230523D01*
X126274077Y-132230524D01*
X126953554Y-132910000D01*
X126947339Y-132910000D01*
X126845606Y-132937259D01*
X126754394Y-132989920D01*
X126679920Y-133064394D01*
X126627259Y-133155606D01*
X126600000Y-133257339D01*
X126600000Y-133263553D01*
X125920524Y-132584077D01*
X125920523Y-132584077D01*
X125888143Y-132628644D01*
X125795244Y-132810968D01*
X125732009Y-133005582D01*
X125700000Y-133207682D01*
X122899933Y-133207682D01*
X126516198Y-129591416D01*
X126577519Y-129557933D01*
X126642194Y-129561167D01*
X126695466Y-129578477D01*
X126897648Y-129610500D01*
X126897649Y-129610500D01*
X127102351Y-129610500D01*
X127102352Y-129610500D01*
X127304534Y-129578477D01*
X127499219Y-129515220D01*
X127681610Y-129422287D01*
X127787729Y-129345188D01*
X127847213Y-129301971D01*
X127847215Y-129301968D01*
X127847219Y-129301966D01*
X127991966Y-129157219D01*
X128061333Y-129061742D01*
X128116660Y-129019078D01*
X128186273Y-129013097D01*
X128248069Y-129045702D01*
X128249329Y-129046945D01*
X130799317Y-131596934D01*
X133338580Y-134136197D01*
X133372065Y-134197520D01*
X133368831Y-134262194D01*
X133351522Y-134315466D01*
X133319500Y-134517648D01*
X133319500Y-134722351D01*
X133351522Y-134924534D01*
X133414781Y-135119223D01*
X133507715Y-135301613D01*
X133628028Y-135467213D01*
X133772786Y-135611971D01*
X133927749Y-135724556D01*
X133938390Y-135732287D01*
X134047042Y-135787648D01*
X134120776Y-135825218D01*
X134120778Y-135825218D01*
X134120781Y-135825220D01*
X134225137Y-135859127D01*
X134315465Y-135888477D01*
X134416557Y-135904488D01*
X134517648Y-135920500D01*
X134517649Y-135920500D01*
X134722351Y-135920500D01*
X134722352Y-135920500D01*
X134924534Y-135888477D01*
X135119219Y-135825220D01*
X135301610Y-135732287D01*
X135394590Y-135664732D01*
X135467213Y-135611971D01*
X135467215Y-135611968D01*
X135467219Y-135611966D01*
X135611966Y-135467219D01*
X135611968Y-135467215D01*
X135611971Y-135467213D01*
X135667505Y-135390776D01*
X135732287Y-135301610D01*
X135825220Y-135119219D01*
X135888477Y-134924534D01*
X135920500Y-134722352D01*
X135920500Y-134517648D01*
X135888477Y-134315466D01*
X135871168Y-134262197D01*
X135869172Y-134192357D01*
X135901416Y-134136198D01*
X137095667Y-132941947D01*
X138760000Y-132941947D01*
X138760000Y-133178052D01*
X138796934Y-133411247D01*
X138869897Y-133635802D01*
X138977087Y-133846174D01*
X139037338Y-133929104D01*
X139037340Y-133929105D01*
X139736212Y-133230233D01*
X139747482Y-133272292D01*
X139819890Y-133397708D01*
X139922292Y-133500110D01*
X140047708Y-133572518D01*
X140089765Y-133583787D01*
X139390893Y-134282658D01*
X139473828Y-134342914D01*
X139684197Y-134450102D01*
X139908752Y-134523065D01*
X139908751Y-134523065D01*
X140141948Y-134560000D01*
X140378052Y-134560000D01*
X140611247Y-134523065D01*
X140835802Y-134450102D01*
X141046163Y-134342918D01*
X141046169Y-134342914D01*
X141129104Y-134282658D01*
X141129105Y-134282658D01*
X140430233Y-133583787D01*
X140472292Y-133572518D01*
X140597708Y-133500110D01*
X140700110Y-133397708D01*
X140772518Y-133272292D01*
X140783787Y-133230234D01*
X141482658Y-133929105D01*
X141482658Y-133929104D01*
X141542914Y-133846169D01*
X141542918Y-133846163D01*
X141650102Y-133635802D01*
X141723065Y-133411247D01*
X141760000Y-133178052D01*
X141760000Y-132941947D01*
X145260000Y-132941947D01*
X145260000Y-133178052D01*
X145296934Y-133411247D01*
X145369897Y-133635802D01*
X145477087Y-133846174D01*
X145537338Y-133929104D01*
X145537340Y-133929105D01*
X146236212Y-133230233D01*
X146247482Y-133272292D01*
X146319890Y-133397708D01*
X146422292Y-133500110D01*
X146547708Y-133572518D01*
X146589765Y-133583787D01*
X145890893Y-134282658D01*
X145973828Y-134342914D01*
X146184197Y-134450102D01*
X146408752Y-134523065D01*
X146408751Y-134523065D01*
X146641948Y-134560000D01*
X146878052Y-134560000D01*
X147111247Y-134523065D01*
X147335802Y-134450102D01*
X147546163Y-134342918D01*
X147546169Y-134342914D01*
X147629104Y-134282658D01*
X147629105Y-134282658D01*
X146930233Y-133583787D01*
X146972292Y-133572518D01*
X147097708Y-133500110D01*
X147200110Y-133397708D01*
X147272518Y-133272292D01*
X147283787Y-133230234D01*
X147982658Y-133929105D01*
X147982658Y-133929104D01*
X148042914Y-133846169D01*
X148042918Y-133846163D01*
X148150102Y-133635802D01*
X148223065Y-133411247D01*
X148260000Y-133178052D01*
X148260000Y-132941947D01*
X148223065Y-132708752D01*
X148150102Y-132484197D01*
X148042914Y-132273828D01*
X147982658Y-132190894D01*
X147982658Y-132190893D01*
X147283787Y-132889765D01*
X147272518Y-132847708D01*
X147200110Y-132722292D01*
X147097708Y-132619890D01*
X146972292Y-132547482D01*
X146930234Y-132536212D01*
X147629105Y-131837340D01*
X147629104Y-131837338D01*
X147546174Y-131777087D01*
X147335802Y-131669897D01*
X147111247Y-131596934D01*
X147111248Y-131596934D01*
X146878052Y-131560000D01*
X146641948Y-131560000D01*
X146408752Y-131596934D01*
X146184197Y-131669897D01*
X145973830Y-131777084D01*
X145890894Y-131837340D01*
X146589766Y-132536212D01*
X146547708Y-132547482D01*
X146422292Y-132619890D01*
X146319890Y-132722292D01*
X146247482Y-132847708D01*
X146236212Y-132889766D01*
X145537340Y-132190894D01*
X145477084Y-132273830D01*
X145369897Y-132484197D01*
X145296934Y-132708752D01*
X145260000Y-132941947D01*
X141760000Y-132941947D01*
X141723065Y-132708752D01*
X141650102Y-132484197D01*
X141542914Y-132273828D01*
X141482658Y-132190894D01*
X141482658Y-132190893D01*
X140783787Y-132889765D01*
X140772518Y-132847708D01*
X140700110Y-132722292D01*
X140597708Y-132619890D01*
X140472292Y-132547482D01*
X140430234Y-132536212D01*
X141129105Y-131837340D01*
X141129104Y-131837339D01*
X141046174Y-131777087D01*
X140835802Y-131669897D01*
X140611247Y-131596934D01*
X140611248Y-131596934D01*
X140378052Y-131560000D01*
X140141948Y-131560000D01*
X139908752Y-131596934D01*
X139684197Y-131669897D01*
X139473830Y-131777084D01*
X139390894Y-131837340D01*
X140089766Y-132536212D01*
X140047708Y-132547482D01*
X139922292Y-132619890D01*
X139819890Y-132722292D01*
X139747482Y-132847708D01*
X139736212Y-132889766D01*
X139037340Y-132190894D01*
X138977084Y-132273830D01*
X138869897Y-132484197D01*
X138796934Y-132708752D01*
X138760000Y-132941947D01*
X137095667Y-132941947D01*
X139954973Y-130082641D01*
X140016294Y-130049158D01*
X140062046Y-130047851D01*
X140141908Y-130060500D01*
X140141910Y-130060500D01*
X140378097Y-130060500D01*
X140611368Y-130023553D01*
X140835992Y-129950568D01*
X141046433Y-129843343D01*
X141237510Y-129704517D01*
X141404517Y-129537510D01*
X141543343Y-129346433D01*
X141622181Y-129191705D01*
X141670156Y-129140909D01*
X141732666Y-129124000D01*
X145287334Y-129124000D01*
X145354373Y-129143685D01*
X145397819Y-129191705D01*
X145476657Y-129346433D01*
X145615483Y-129537510D01*
X145782490Y-129704517D01*
X145973567Y-129843343D01*
X146072991Y-129894002D01*
X146184003Y-129950566D01*
X146184005Y-129950566D01*
X146184008Y-129950568D01*
X146304412Y-129989689D01*
X146408631Y-130023553D01*
X146641903Y-130060500D01*
X146641908Y-130060500D01*
X146878097Y-130060500D01*
X147111368Y-130023553D01*
X147335992Y-129950568D01*
X147546433Y-129843343D01*
X147737510Y-129704517D01*
X147904517Y-129537510D01*
X148043343Y-129346433D01*
X148150568Y-129135992D01*
X148223553Y-128911368D01*
X148233814Y-128846582D01*
X148260500Y-128678097D01*
X148260500Y-128441902D01*
X148223553Y-128208631D01*
X148153155Y-127991971D01*
X148150568Y-127984008D01*
X148150566Y-127984005D01*
X148150566Y-127984003D01*
X148086713Y-127858685D01*
X148043343Y-127773567D01*
X147904517Y-127582490D01*
X147737510Y-127415483D01*
X147546433Y-127276657D01*
X147335996Y-127169433D01*
X147111368Y-127096446D01*
X146878097Y-127059500D01*
X146878092Y-127059500D01*
X146641908Y-127059500D01*
X146641903Y-127059500D01*
X146408631Y-127096446D01*
X146184003Y-127169433D01*
X145973566Y-127276657D01*
X145864550Y-127355862D01*
X145782490Y-127415483D01*
X145782488Y-127415485D01*
X145782487Y-127415485D01*
X145615485Y-127582487D01*
X145615485Y-127582488D01*
X145615483Y-127582490D01*
X145605362Y-127596421D01*
X145476657Y-127773566D01*
X145397819Y-127928295D01*
X145349844Y-127979091D01*
X145287334Y-127996000D01*
X141732666Y-127996000D01*
X141665627Y-127976315D01*
X141622181Y-127928295D01*
X141586713Y-127858685D01*
X141543343Y-127773567D01*
X141404517Y-127582490D01*
X141237510Y-127415483D01*
X141046433Y-127276657D01*
X140835996Y-127169433D01*
X140611368Y-127096446D01*
X140378097Y-127059500D01*
X140378092Y-127059500D01*
X140141908Y-127059500D01*
X140141903Y-127059500D01*
X139908631Y-127096446D01*
X139684003Y-127169433D01*
X139473566Y-127276657D01*
X139364550Y-127355862D01*
X139282490Y-127415483D01*
X139282488Y-127415485D01*
X139282487Y-127415485D01*
X139115485Y-127582487D01*
X139115485Y-127582488D01*
X139115483Y-127582490D01*
X139105362Y-127596421D01*
X138976657Y-127773566D01*
X138869433Y-127984003D01*
X138796446Y-128208631D01*
X138759500Y-128441902D01*
X138759500Y-128678097D01*
X138796446Y-128911368D01*
X138809522Y-128951610D01*
X138869432Y-129135992D01*
X138869433Y-129135995D01*
X138869434Y-129135996D01*
X138976022Y-129345188D01*
X138988918Y-129413858D01*
X138962641Y-129478598D01*
X138953218Y-129489164D01*
X135103802Y-133338580D01*
X135042479Y-133372065D01*
X134977804Y-133368831D01*
X134924531Y-133351522D01*
X134769220Y-133326923D01*
X134722352Y-133319500D01*
X134517648Y-133319500D01*
X134490004Y-133323878D01*
X134315466Y-133351522D01*
X134262194Y-133368831D01*
X134192353Y-133370825D01*
X134136197Y-133338580D01*
X128768383Y-127970767D01*
X128768381Y-127970764D01*
X128656306Y-127858689D01*
X128656304Y-127858687D01*
X128527696Y-127784435D01*
X128384253Y-127746000D01*
X128384252Y-127746000D01*
X128248200Y-127746000D01*
X128181161Y-127726315D01*
X128137715Y-127678295D01*
X128132390Y-127667846D01*
X128112287Y-127628390D01*
X128104556Y-127617749D01*
X127991971Y-127462786D01*
X127847213Y-127318028D01*
X127681613Y-127197715D01*
X127681612Y-127197714D01*
X127681610Y-127197713D01*
X127603106Y-127157713D01*
X127499223Y-127104781D01*
X127304534Y-127041522D01*
X127138649Y-127015249D01*
X127102352Y-127009500D01*
X126897648Y-127009500D01*
X126873329Y-127013351D01*
X126695465Y-127041522D01*
X126500776Y-127104781D01*
X126318386Y-127197715D01*
X126152786Y-127318028D01*
X126008028Y-127462786D01*
X125887715Y-127628386D01*
X125794781Y-127810776D01*
X125731522Y-128005465D01*
X125699500Y-128207648D01*
X125699500Y-128412351D01*
X125731522Y-128614531D01*
X125748831Y-128667804D01*
X125750825Y-128737646D01*
X125718580Y-128793802D01*
X121762703Y-132749681D01*
X121701380Y-132783166D01*
X121675022Y-132786000D01*
X120628200Y-132786000D01*
X120561161Y-132766315D01*
X120517715Y-132718295D01*
X120511677Y-132706446D01*
X120492287Y-132668390D01*
X120484556Y-132657749D01*
X120371971Y-132502786D01*
X120227213Y-132358028D01*
X120061614Y-132237715D01*
X119983957Y-132198147D01*
X119968917Y-132190483D01*
X119918123Y-132142511D01*
X119901328Y-132074690D01*
X119923865Y-132008555D01*
X119968917Y-131969516D01*
X120061610Y-131922287D01*
X120082770Y-131906913D01*
X120227213Y-131801971D01*
X120227215Y-131801968D01*
X120227219Y-131801966D01*
X120371966Y-131657219D01*
X120371968Y-131657215D01*
X120371971Y-131657213D01*
X120425991Y-131582860D01*
X120492287Y-131491610D01*
X120585220Y-131309219D01*
X120648477Y-131114534D01*
X120680500Y-130912352D01*
X120680500Y-130707648D01*
X120648477Y-130505466D01*
X120631167Y-130452194D01*
X120629173Y-130382354D01*
X120661416Y-130326198D01*
X124089967Y-126897648D01*
X133319500Y-126897648D01*
X133319500Y-127102351D01*
X133351522Y-127304534D01*
X133414781Y-127499223D01*
X133460213Y-127588386D01*
X133491210Y-127649222D01*
X133507715Y-127681613D01*
X133628028Y-127847213D01*
X133772786Y-127991971D01*
X133927749Y-128104556D01*
X133938390Y-128112287D01*
X134047042Y-128167648D01*
X134120776Y-128205218D01*
X134120778Y-128205218D01*
X134120781Y-128205220D01*
X134225137Y-128239127D01*
X134315465Y-128268477D01*
X134416557Y-128284488D01*
X134517648Y-128300500D01*
X134517649Y-128300500D01*
X134722351Y-128300500D01*
X134722352Y-128300500D01*
X134924534Y-128268477D01*
X135119219Y-128205220D01*
X135301610Y-128112287D01*
X135448638Y-128005466D01*
X135467213Y-127991971D01*
X135467215Y-127991968D01*
X135467219Y-127991966D01*
X135611966Y-127847219D01*
X135611968Y-127847215D01*
X135611971Y-127847213D01*
X135700118Y-127725887D01*
X135732287Y-127681610D01*
X135825220Y-127499219D01*
X135888477Y-127304534D01*
X135920500Y-127102352D01*
X135920500Y-126897648D01*
X135888477Y-126695466D01*
X135825220Y-126500781D01*
X135825218Y-126500778D01*
X135825218Y-126500776D01*
X135791503Y-126434607D01*
X135732287Y-126318390D01*
X135724556Y-126307749D01*
X135611971Y-126152786D01*
X135467213Y-126008028D01*
X135301613Y-125887715D01*
X135301612Y-125887714D01*
X135301610Y-125887713D01*
X135244653Y-125858691D01*
X135119223Y-125794781D01*
X134924534Y-125731522D01*
X134749995Y-125703878D01*
X134722352Y-125699500D01*
X134517648Y-125699500D01*
X134493329Y-125703351D01*
X134315465Y-125731522D01*
X134120776Y-125794781D01*
X133938386Y-125887715D01*
X133772786Y-126008028D01*
X133628028Y-126152786D01*
X133507715Y-126318386D01*
X133414781Y-126500776D01*
X133351522Y-126695465D01*
X133319500Y-126897648D01*
X124089967Y-126897648D01*
X127336094Y-123651521D01*
X127336099Y-123651517D01*
X127346302Y-123641313D01*
X127346304Y-123641313D01*
X127451313Y-123536304D01*
X127499602Y-123452666D01*
X127525565Y-123407697D01*
X127564000Y-123264253D01*
X127564000Y-123128199D01*
X127583685Y-123061160D01*
X127631706Y-123017714D01*
X127637341Y-123014843D01*
X127681610Y-122992287D01*
X127731144Y-122956298D01*
X127847213Y-122871971D01*
X127847215Y-122871968D01*
X127847219Y-122871966D01*
X127991966Y-122727219D01*
X127991968Y-122727215D01*
X127991971Y-122727213D01*
X128067564Y-122623166D01*
X128112287Y-122561610D01*
X128137715Y-122511705D01*
X128185690Y-122460909D01*
X128248200Y-122444000D01*
X133025022Y-122444000D01*
X133092061Y-122463685D01*
X133112703Y-122480319D01*
X133338581Y-122706197D01*
X133372066Y-122767520D01*
X133368831Y-122832196D01*
X133351523Y-122885464D01*
X133319500Y-123087648D01*
X133319500Y-123292351D01*
X133351522Y-123494534D01*
X133414781Y-123689223D01*
X133507715Y-123871613D01*
X133628028Y-124037213D01*
X133772786Y-124181971D01*
X133927749Y-124294556D01*
X133938390Y-124302287D01*
X134031080Y-124349515D01*
X134120776Y-124395218D01*
X134120778Y-124395218D01*
X134120781Y-124395220D01*
X134225137Y-124429127D01*
X134315465Y-124458477D01*
X134334697Y-124461523D01*
X134517648Y-124490500D01*
X134517649Y-124490500D01*
X134722351Y-124490500D01*
X134722352Y-124490500D01*
X134924534Y-124458477D01*
X135119219Y-124395220D01*
X135301610Y-124302287D01*
X135394590Y-124234732D01*
X135467213Y-124181971D01*
X135467215Y-124181968D01*
X135467219Y-124181966D01*
X135611966Y-124037219D01*
X135611968Y-124037215D01*
X135611971Y-124037213D01*
X135664732Y-123964590D01*
X135732287Y-123871610D01*
X135757715Y-123821705D01*
X135805690Y-123770909D01*
X135868200Y-123754000D01*
X138774251Y-123754000D01*
X138774253Y-123754000D01*
X138917696Y-123715565D01*
X139046304Y-123641313D01*
X139151313Y-123536304D01*
X139151313Y-123536302D01*
X139161517Y-123526099D01*
X139161521Y-123526094D01*
X139617477Y-123070137D01*
X139678798Y-123036654D01*
X139743471Y-123039888D01*
X139869956Y-123080986D01*
X139908631Y-123093553D01*
X140141903Y-123130500D01*
X140141908Y-123130500D01*
X140378097Y-123130500D01*
X140611368Y-123093553D01*
X140835992Y-123020568D01*
X141046433Y-122913343D01*
X141237510Y-122774517D01*
X141404517Y-122607510D01*
X141543343Y-122416433D01*
X141622181Y-122261705D01*
X141670156Y-122210909D01*
X141732666Y-122194000D01*
X145287334Y-122194000D01*
X145354373Y-122213685D01*
X145397819Y-122261705D01*
X145457698Y-122379223D01*
X145476657Y-122416433D01*
X145615483Y-122607510D01*
X145782490Y-122774517D01*
X145973567Y-122913343D01*
X146028497Y-122941331D01*
X146184003Y-123020566D01*
X146184005Y-123020566D01*
X146184008Y-123020568D01*
X146243472Y-123039889D01*
X146408631Y-123093553D01*
X146641903Y-123130500D01*
X146641908Y-123130500D01*
X146878097Y-123130500D01*
X147111368Y-123093553D01*
X147335992Y-123020568D01*
X147546433Y-122913343D01*
X147737510Y-122774517D01*
X147904517Y-122607510D01*
X148043343Y-122416433D01*
X148150568Y-122205992D01*
X148223553Y-121981368D01*
X148230290Y-121938831D01*
X148260500Y-121748097D01*
X148260500Y-121511902D01*
X148223553Y-121278631D01*
X148150566Y-121054003D01*
X148043342Y-120843566D01*
X147904517Y-120652490D01*
X147737510Y-120485483D01*
X147546433Y-120346657D01*
X147544094Y-120345465D01*
X147335996Y-120239433D01*
X147111368Y-120166446D01*
X146878097Y-120129500D01*
X146878092Y-120129500D01*
X146641908Y-120129500D01*
X146641903Y-120129500D01*
X146408631Y-120166446D01*
X146184003Y-120239433D01*
X145973566Y-120346657D01*
X145864550Y-120425862D01*
X145782490Y-120485483D01*
X145782488Y-120485485D01*
X145782487Y-120485485D01*
X145615485Y-120652487D01*
X145615485Y-120652488D01*
X145615483Y-120652490D01*
X145599288Y-120674781D01*
X145476657Y-120843566D01*
X145397819Y-120998295D01*
X145349844Y-121049091D01*
X145287334Y-121066000D01*
X141732666Y-121066000D01*
X141665627Y-121046315D01*
X141622181Y-120998295D01*
X141543342Y-120843566D01*
X141404517Y-120652490D01*
X141237510Y-120485483D01*
X141046433Y-120346657D01*
X141044094Y-120345465D01*
X140835996Y-120239433D01*
X140611368Y-120166446D01*
X140378097Y-120129500D01*
X140378092Y-120129500D01*
X140141908Y-120129500D01*
X140141903Y-120129500D01*
X139908631Y-120166446D01*
X139684003Y-120239433D01*
X139473566Y-120346657D01*
X139364550Y-120425862D01*
X139282490Y-120485483D01*
X139282488Y-120485485D01*
X139282487Y-120485485D01*
X139115485Y-120652487D01*
X139115485Y-120652488D01*
X139115483Y-120652490D01*
X139099288Y-120674781D01*
X138976657Y-120843566D01*
X138869433Y-121054003D01*
X138796446Y-121278631D01*
X138759500Y-121511902D01*
X138759500Y-121748097D01*
X138796447Y-121981369D01*
X138796447Y-121981372D01*
X138850109Y-122146524D01*
X138852104Y-122216365D01*
X138819859Y-122272523D01*
X138502701Y-122589682D01*
X138441380Y-122623166D01*
X138415022Y-122626000D01*
X135868200Y-122626000D01*
X135801161Y-122606315D01*
X135757715Y-122558295D01*
X135752390Y-122547846D01*
X135732287Y-122508390D01*
X135724556Y-122497749D01*
X135611971Y-122342786D01*
X135467213Y-122198028D01*
X135301613Y-122077715D01*
X135301612Y-122077714D01*
X135301610Y-122077713D01*
X135244653Y-122048691D01*
X135119223Y-121984781D01*
X134924534Y-121921522D01*
X134749995Y-121893878D01*
X134722352Y-121889500D01*
X134517648Y-121889500D01*
X134450254Y-121900174D01*
X134315464Y-121921523D01*
X134262196Y-121938831D01*
X134192355Y-121940826D01*
X134136197Y-121908581D01*
X133768383Y-121540767D01*
X133768381Y-121540764D01*
X133656306Y-121428689D01*
X133656304Y-121428687D01*
X133527696Y-121354435D01*
X133384253Y-121316000D01*
X133384252Y-121316000D01*
X128248200Y-121316000D01*
X128181161Y-121296315D01*
X128137715Y-121248295D01*
X128132390Y-121237846D01*
X128112287Y-121198390D01*
X128104556Y-121187749D01*
X127991971Y-121032786D01*
X127847213Y-120888028D01*
X127681613Y-120767715D01*
X127681612Y-120767714D01*
X127681610Y-120767713D01*
X127624653Y-120738691D01*
X127499223Y-120674781D01*
X127304534Y-120611522D01*
X127129995Y-120583878D01*
X127102352Y-120579500D01*
X126897648Y-120579500D01*
X126873329Y-120583351D01*
X126695465Y-120611522D01*
X126500776Y-120674781D01*
X126318386Y-120767715D01*
X126152786Y-120888028D01*
X126008028Y-121032786D01*
X125887715Y-121198386D01*
X125794781Y-121380776D01*
X125731522Y-121575465D01*
X125699500Y-121777648D01*
X125699500Y-121982351D01*
X125731522Y-122184534D01*
X125794781Y-122379223D01*
X125887715Y-122561613D01*
X126008028Y-122727213D01*
X126008034Y-122727219D01*
X126152781Y-122871966D01*
X126171362Y-122885466D01*
X126248255Y-122941331D01*
X126290921Y-122996661D01*
X126296900Y-123066274D01*
X126264295Y-123128070D01*
X126263051Y-123129331D01*
X120886457Y-128505925D01*
X120825134Y-128539410D01*
X120755442Y-128534426D01*
X120699509Y-128492554D01*
X120675092Y-128427090D01*
X120676302Y-128398852D01*
X120680500Y-128372352D01*
X120680500Y-128167648D01*
X120671731Y-128112284D01*
X120648477Y-127965465D01*
X120598215Y-127810776D01*
X120585220Y-127770781D01*
X120585218Y-127770778D01*
X120585218Y-127770776D01*
X120551503Y-127704607D01*
X120492287Y-127588390D01*
X120464261Y-127549815D01*
X120371971Y-127422786D01*
X120227213Y-127278028D01*
X120061614Y-127157715D01*
X120055006Y-127154348D01*
X119968917Y-127110483D01*
X119918123Y-127062511D01*
X119901328Y-126994690D01*
X119923865Y-126928555D01*
X119968917Y-126889516D01*
X120061610Y-126842287D01*
X120082770Y-126826913D01*
X120227213Y-126721971D01*
X120227215Y-126721968D01*
X120227219Y-126721966D01*
X120371966Y-126577219D01*
X120371968Y-126577215D01*
X120371971Y-126577213D01*
X120427505Y-126500776D01*
X120492287Y-126411610D01*
X120585220Y-126229219D01*
X120648477Y-126034534D01*
X120680500Y-125832352D01*
X120680500Y-125627648D01*
X120648477Y-125425466D01*
X120585220Y-125230781D01*
X120585218Y-125230778D01*
X120585218Y-125230776D01*
X120551503Y-125164607D01*
X120492287Y-125048390D01*
X120484556Y-125037749D01*
X120371971Y-124882786D01*
X120227213Y-124738028D01*
X120061614Y-124617715D01*
X120055006Y-124614348D01*
X119968917Y-124570483D01*
X119918123Y-124522511D01*
X119901328Y-124454690D01*
X119923865Y-124388555D01*
X119968917Y-124349516D01*
X120061610Y-124302287D01*
X120082770Y-124286913D01*
X120227213Y-124181971D01*
X120227215Y-124181968D01*
X120227219Y-124181966D01*
X120371966Y-124037219D01*
X120371968Y-124037215D01*
X120371971Y-124037213D01*
X120424732Y-123964590D01*
X120492287Y-123871610D01*
X120585220Y-123689219D01*
X120648477Y-123494534D01*
X120680500Y-123292352D01*
X120680500Y-123087648D01*
X120648477Y-122885466D01*
X120648476Y-122885464D01*
X120612427Y-122774517D01*
X120585220Y-122690781D01*
X120585218Y-122690778D01*
X120585218Y-122690776D01*
X120533707Y-122589681D01*
X120492287Y-122508390D01*
X120484556Y-122497749D01*
X120371971Y-122342786D01*
X120227213Y-122198028D01*
X120061614Y-122077715D01*
X120055006Y-122074348D01*
X119968917Y-122030483D01*
X119918123Y-121982511D01*
X119901328Y-121914690D01*
X119923865Y-121848555D01*
X119968917Y-121809516D01*
X120061610Y-121762287D01*
X120082770Y-121746913D01*
X120227213Y-121641971D01*
X120227215Y-121641968D01*
X120227219Y-121641966D01*
X120371966Y-121497219D01*
X120371968Y-121497215D01*
X120371971Y-121497213D01*
X120456566Y-121380776D01*
X120492287Y-121331610D01*
X120585220Y-121149219D01*
X120648477Y-120954534D01*
X120680500Y-120752352D01*
X120680500Y-120547648D01*
X120648477Y-120345466D01*
X120585220Y-120150781D01*
X120585218Y-120150778D01*
X120585218Y-120150776D01*
X120551503Y-120084607D01*
X120492287Y-119968390D01*
X120484556Y-119957749D01*
X120371971Y-119802786D01*
X120227213Y-119658028D01*
X120061614Y-119537715D01*
X120055006Y-119534348D01*
X119968917Y-119490483D01*
X119918123Y-119442511D01*
X119901328Y-119374690D01*
X119923865Y-119308555D01*
X119968917Y-119269516D01*
X120061610Y-119222287D01*
X120082770Y-119206913D01*
X120227213Y-119101971D01*
X120227215Y-119101968D01*
X120227219Y-119101966D01*
X120371966Y-118957219D01*
X120371968Y-118957215D01*
X120371971Y-118957213D01*
X120424732Y-118884590D01*
X120492287Y-118791610D01*
X120585220Y-118609219D01*
X120648477Y-118414534D01*
X120680500Y-118212352D01*
X120680500Y-118007648D01*
X120648477Y-117805466D01*
X120585220Y-117610781D01*
X120585218Y-117610778D01*
X120585218Y-117610776D01*
X120551503Y-117544607D01*
X120492287Y-117428390D01*
X120429734Y-117342292D01*
X120371971Y-117262786D01*
X120227213Y-117118028D01*
X120061614Y-116997715D01*
X120041911Y-116987676D01*
X119968917Y-116950483D01*
X119961090Y-116943091D01*
X119951000Y-116939339D01*
X119936135Y-116919523D01*
X119918123Y-116902511D01*
X119915534Y-116892058D01*
X119909074Y-116883446D01*
X119907282Y-116858735D01*
X119901328Y-116834690D01*
X119904800Y-116824499D01*
X119904022Y-116813759D01*
X119915874Y-116792003D01*
X119920755Y-116777682D01*
X125700000Y-116777682D01*
X125700000Y-116982317D01*
X125732009Y-117184417D01*
X125795244Y-117379031D01*
X125888141Y-117561350D01*
X125888147Y-117561359D01*
X125920523Y-117605921D01*
X125920524Y-117605922D01*
X126600000Y-116926446D01*
X126600000Y-116932661D01*
X126627259Y-117034394D01*
X126679920Y-117125606D01*
X126754394Y-117200080D01*
X126845606Y-117252741D01*
X126947339Y-117280000D01*
X126953553Y-117280000D01*
X126274076Y-117959474D01*
X126318650Y-117991859D01*
X126500968Y-118084755D01*
X126695582Y-118147990D01*
X126897683Y-118180000D01*
X127102317Y-118180000D01*
X127304417Y-118147990D01*
X127499031Y-118084755D01*
X127681349Y-117991859D01*
X127725921Y-117959474D01*
X127046447Y-117280000D01*
X127052661Y-117280000D01*
X127154394Y-117252741D01*
X127245606Y-117200080D01*
X127320080Y-117125606D01*
X127372741Y-117034394D01*
X127400000Y-116932661D01*
X127400000Y-116926448D01*
X128079474Y-117605922D01*
X128079474Y-117605921D01*
X128111859Y-117561349D01*
X128204755Y-117379031D01*
X128267990Y-117184417D01*
X128295307Y-117011947D01*
X138760000Y-117011947D01*
X138760000Y-117248052D01*
X138796934Y-117481247D01*
X138869897Y-117705802D01*
X138977087Y-117916174D01*
X139037338Y-117999104D01*
X139037340Y-117999105D01*
X139736212Y-117300233D01*
X139747482Y-117342292D01*
X139819890Y-117467708D01*
X139922292Y-117570110D01*
X140047708Y-117642518D01*
X140089765Y-117653787D01*
X139390893Y-118352658D01*
X139473828Y-118412914D01*
X139684197Y-118520102D01*
X139908752Y-118593065D01*
X139908751Y-118593065D01*
X140141948Y-118630000D01*
X140378052Y-118630000D01*
X140611247Y-118593065D01*
X140835802Y-118520102D01*
X141046163Y-118412918D01*
X141046169Y-118412914D01*
X141129104Y-118352658D01*
X141129105Y-118352658D01*
X140430233Y-117653787D01*
X140472292Y-117642518D01*
X140597708Y-117570110D01*
X140700110Y-117467708D01*
X140772518Y-117342292D01*
X140783787Y-117300234D01*
X141482658Y-117999105D01*
X141482658Y-117999104D01*
X141542914Y-117916169D01*
X141542918Y-117916163D01*
X141650102Y-117705802D01*
X141723065Y-117481247D01*
X141760000Y-117248052D01*
X141760000Y-117011947D01*
X145260000Y-117011947D01*
X145260000Y-117248052D01*
X145296934Y-117481247D01*
X145369897Y-117705802D01*
X145477087Y-117916174D01*
X145537338Y-117999104D01*
X145537340Y-117999105D01*
X146236212Y-117300233D01*
X146247482Y-117342292D01*
X146319890Y-117467708D01*
X146422292Y-117570110D01*
X146547708Y-117642518D01*
X146589765Y-117653787D01*
X145890893Y-118352658D01*
X145973828Y-118412914D01*
X146184197Y-118520102D01*
X146408752Y-118593065D01*
X146408751Y-118593065D01*
X146641948Y-118630000D01*
X146878052Y-118630000D01*
X147111247Y-118593065D01*
X147335802Y-118520102D01*
X147546163Y-118412918D01*
X147546169Y-118412914D01*
X147629104Y-118352658D01*
X147629105Y-118352658D01*
X146930233Y-117653787D01*
X146972292Y-117642518D01*
X147097708Y-117570110D01*
X147200110Y-117467708D01*
X147272518Y-117342292D01*
X147283787Y-117300234D01*
X147982658Y-117999105D01*
X147982658Y-117999104D01*
X148042914Y-117916169D01*
X148042918Y-117916163D01*
X148150102Y-117705802D01*
X148223065Y-117481247D01*
X148260000Y-117248052D01*
X148260000Y-117011947D01*
X148223065Y-116778752D01*
X148150102Y-116554197D01*
X148042914Y-116343828D01*
X147982658Y-116260894D01*
X147982658Y-116260893D01*
X147283787Y-116959765D01*
X147272518Y-116917708D01*
X147200110Y-116792292D01*
X147097708Y-116689890D01*
X146972292Y-116617482D01*
X146930234Y-116606212D01*
X147629105Y-115907340D01*
X147629104Y-115907338D01*
X147546174Y-115847087D01*
X147335802Y-115739897D01*
X147111247Y-115666934D01*
X147111248Y-115666934D01*
X146878052Y-115630000D01*
X146641948Y-115630000D01*
X146408752Y-115666934D01*
X146184197Y-115739897D01*
X145973830Y-115847084D01*
X145890894Y-115907340D01*
X146589766Y-116606212D01*
X146547708Y-116617482D01*
X146422292Y-116689890D01*
X146319890Y-116792292D01*
X146247482Y-116917708D01*
X146236212Y-116959766D01*
X145537340Y-116260894D01*
X145477084Y-116343830D01*
X145369897Y-116554197D01*
X145296934Y-116778752D01*
X145260000Y-117011947D01*
X141760000Y-117011947D01*
X141723065Y-116778752D01*
X141650102Y-116554197D01*
X141542914Y-116343828D01*
X141482658Y-116260894D01*
X141482658Y-116260893D01*
X140783787Y-116959765D01*
X140772518Y-116917708D01*
X140700110Y-116792292D01*
X140597708Y-116689890D01*
X140472292Y-116617482D01*
X140430234Y-116606212D01*
X141129105Y-115907340D01*
X141129104Y-115907339D01*
X141046174Y-115847087D01*
X140835802Y-115739897D01*
X140611247Y-115666934D01*
X140611248Y-115666934D01*
X140378052Y-115630000D01*
X140141948Y-115630000D01*
X139908752Y-115666934D01*
X139684197Y-115739897D01*
X139473830Y-115847084D01*
X139390894Y-115907340D01*
X140089766Y-116606212D01*
X140047708Y-116617482D01*
X139922292Y-116689890D01*
X139819890Y-116792292D01*
X139747482Y-116917708D01*
X139736212Y-116959766D01*
X139037340Y-116260894D01*
X138977084Y-116343830D01*
X138869897Y-116554197D01*
X138796934Y-116778752D01*
X138760000Y-117011947D01*
X128295307Y-117011947D01*
X128299151Y-116987677D01*
X128299151Y-116987676D01*
X128300000Y-116982316D01*
X128300000Y-116777682D01*
X128267990Y-116575582D01*
X128204755Y-116380968D01*
X128111859Y-116198650D01*
X128079474Y-116154077D01*
X128079474Y-116154076D01*
X127400000Y-116833551D01*
X127400000Y-116827339D01*
X127372741Y-116725606D01*
X127320080Y-116634394D01*
X127245606Y-116559920D01*
X127154394Y-116507259D01*
X127052661Y-116480000D01*
X127046446Y-116480000D01*
X127725922Y-115800524D01*
X127725921Y-115800523D01*
X127681359Y-115768147D01*
X127681350Y-115768141D01*
X127499031Y-115675244D01*
X127304417Y-115612009D01*
X127135458Y-115585249D01*
X127102317Y-115580000D01*
X126897683Y-115580000D01*
X126695582Y-115612009D01*
X126500968Y-115675244D01*
X126318644Y-115768143D01*
X126274077Y-115800523D01*
X126274077Y-115800524D01*
X126953554Y-116480000D01*
X126947339Y-116480000D01*
X126845606Y-116507259D01*
X126754394Y-116559920D01*
X126679920Y-116634394D01*
X126627259Y-116725606D01*
X126600000Y-116827339D01*
X126600000Y-116833553D01*
X125920524Y-116154077D01*
X125920523Y-116154077D01*
X125888143Y-116198644D01*
X125795244Y-116380968D01*
X125732009Y-116575582D01*
X125700000Y-116777682D01*
X119920755Y-116777682D01*
X119923865Y-116768555D01*
X119933178Y-116760240D01*
X119937448Y-116752404D01*
X119961786Y-116734702D01*
X119965682Y-116731225D01*
X119967274Y-116730353D01*
X120061610Y-116682287D01*
X120227219Y-116561966D01*
X120371966Y-116417219D01*
X120371968Y-116417215D01*
X120371971Y-116417213D01*
X120425287Y-116343828D01*
X120492287Y-116251610D01*
X120585220Y-116069219D01*
X120648477Y-115874534D01*
X120680500Y-115672352D01*
X120680500Y-115467648D01*
X133319500Y-115467648D01*
X133319500Y-115672351D01*
X133351522Y-115874534D01*
X133414781Y-116069223D01*
X133458017Y-116154076D01*
X133480728Y-116198650D01*
X133507715Y-116251613D01*
X133628028Y-116417213D01*
X133772786Y-116561971D01*
X133872470Y-116634394D01*
X133938390Y-116682287D01*
X134031080Y-116729515D01*
X134120776Y-116775218D01*
X134120778Y-116775218D01*
X134120781Y-116775220D01*
X134225137Y-116809127D01*
X134315465Y-116838477D01*
X134334697Y-116841523D01*
X134517648Y-116870500D01*
X134517649Y-116870500D01*
X134722351Y-116870500D01*
X134722352Y-116870500D01*
X134924534Y-116838477D01*
X135119219Y-116775220D01*
X135301610Y-116682287D01*
X135394590Y-116614732D01*
X135467213Y-116561971D01*
X135467215Y-116561968D01*
X135467219Y-116561966D01*
X135611966Y-116417219D01*
X135611968Y-116417215D01*
X135611971Y-116417213D01*
X135665287Y-116343828D01*
X135732287Y-116251610D01*
X135825220Y-116069219D01*
X135888477Y-115874534D01*
X135920500Y-115672352D01*
X135920500Y-115467648D01*
X135888477Y-115265466D01*
X135825220Y-115070781D01*
X135825218Y-115070778D01*
X135825218Y-115070776D01*
X135791503Y-115004607D01*
X135732287Y-114888390D01*
X135724556Y-114877749D01*
X135611971Y-114722786D01*
X135467213Y-114578028D01*
X135301613Y-114457715D01*
X135301612Y-114457714D01*
X135301610Y-114457713D01*
X135244653Y-114428691D01*
X135119223Y-114364781D01*
X134924534Y-114301522D01*
X134749995Y-114273878D01*
X134722352Y-114269500D01*
X134517648Y-114269500D01*
X134493329Y-114273351D01*
X134315465Y-114301522D01*
X134120776Y-114364781D01*
X133938386Y-114457715D01*
X133772786Y-114578028D01*
X133628028Y-114722786D01*
X133507715Y-114888386D01*
X133414781Y-115070776D01*
X133351522Y-115265465D01*
X133319500Y-115467648D01*
X120680500Y-115467648D01*
X120648477Y-115265466D01*
X120585220Y-115070781D01*
X120585218Y-115070778D01*
X120585218Y-115070776D01*
X120551503Y-115004607D01*
X120492287Y-114888390D01*
X120484556Y-114877749D01*
X120371971Y-114722786D01*
X120227213Y-114578028D01*
X120061614Y-114457715D01*
X120055006Y-114454348D01*
X119968917Y-114410483D01*
X119918123Y-114362511D01*
X119901328Y-114294690D01*
X119923865Y-114228555D01*
X119968917Y-114189516D01*
X120061610Y-114142287D01*
X120082770Y-114126913D01*
X120227213Y-114021971D01*
X120227215Y-114021968D01*
X120227219Y-114021966D01*
X120371966Y-113877219D01*
X120371968Y-113877215D01*
X120371971Y-113877213D01*
X120424732Y-113804590D01*
X120492287Y-113711610D01*
X120585220Y-113529219D01*
X120648477Y-113334534D01*
X120680500Y-113132352D01*
X120680500Y-112927648D01*
X120648477Y-112725466D01*
X120585220Y-112530781D01*
X120585218Y-112530778D01*
X120585218Y-112530776D01*
X120551503Y-112464607D01*
X120492287Y-112348390D01*
X120484556Y-112337749D01*
X120371971Y-112182786D01*
X120227213Y-112038028D01*
X120061614Y-111917715D01*
X120055006Y-111914348D01*
X119968917Y-111870483D01*
X119918123Y-111822511D01*
X119901328Y-111754690D01*
X119923865Y-111688555D01*
X119968917Y-111649516D01*
X120061610Y-111602287D01*
X120082770Y-111586913D01*
X120227213Y-111481971D01*
X120227215Y-111481968D01*
X120227219Y-111481966D01*
X120371966Y-111337219D01*
X120371968Y-111337215D01*
X120371971Y-111337213D01*
X120424732Y-111264590D01*
X120492287Y-111171610D01*
X120517715Y-111121705D01*
X120565690Y-111070909D01*
X120628200Y-111054000D01*
X122774251Y-111054000D01*
X122774253Y-111054000D01*
X122917696Y-111015565D01*
X123046304Y-110941313D01*
X123151313Y-110836304D01*
X123151313Y-110836302D01*
X123161517Y-110826099D01*
X123161521Y-110826094D01*
X124706198Y-109281416D01*
X124767519Y-109247933D01*
X124832194Y-109251167D01*
X124885466Y-109268477D01*
X125087648Y-109300500D01*
X125087649Y-109300500D01*
X125292351Y-109300500D01*
X125292352Y-109300500D01*
X125494534Y-109268477D01*
X125689219Y-109205220D01*
X125871610Y-109112287D01*
X126016005Y-109007379D01*
X126037213Y-108991971D01*
X126037215Y-108991968D01*
X126037219Y-108991966D01*
X126181966Y-108847219D01*
X126181968Y-108847215D01*
X126181971Y-108847213D01*
X126234732Y-108774590D01*
X126302287Y-108681610D01*
X126395220Y-108499219D01*
X126458477Y-108304534D01*
X126490500Y-108102352D01*
X126490500Y-107897648D01*
X131509500Y-107897648D01*
X131509500Y-108102351D01*
X131541522Y-108304534D01*
X131604781Y-108499223D01*
X131697715Y-108681613D01*
X131818028Y-108847213D01*
X131962786Y-108991971D01*
X132117749Y-109104556D01*
X132128390Y-109112287D01*
X132244607Y-109171503D01*
X132310776Y-109205218D01*
X132310778Y-109205218D01*
X132310781Y-109205220D01*
X132415137Y-109239127D01*
X132505465Y-109268477D01*
X132587171Y-109281418D01*
X132707648Y-109300500D01*
X132707649Y-109300500D01*
X132912351Y-109300500D01*
X132912352Y-109300500D01*
X133114534Y-109268477D01*
X133309219Y-109205220D01*
X133491610Y-109112287D01*
X133636005Y-109007379D01*
X133657213Y-108991971D01*
X133657215Y-108991968D01*
X133657219Y-108991966D01*
X133801966Y-108847219D01*
X133801968Y-108847215D01*
X133801971Y-108847213D01*
X133854732Y-108774590D01*
X133922287Y-108681610D01*
X133947715Y-108631705D01*
X133995690Y-108580909D01*
X134058200Y-108564000D01*
X141639567Y-108564000D01*
X141706606Y-108583685D01*
X141750051Y-108631704D01*
X141775481Y-108681613D01*
X141802187Y-108734025D01*
X141931752Y-108912358D01*
X141931756Y-108912363D01*
X142087636Y-109068243D01*
X142087641Y-109068247D01*
X142243192Y-109181260D01*
X142265978Y-109197815D01*
X142370688Y-109251168D01*
X142462393Y-109297895D01*
X142462396Y-109297896D01*
X142567221Y-109331955D01*
X142672049Y-109366015D01*
X142889778Y-109400500D01*
X142889779Y-109400500D01*
X143110221Y-109400500D01*
X143110222Y-109400500D01*
X143327951Y-109366015D01*
X143537606Y-109297895D01*
X143734022Y-109197815D01*
X143912365Y-109068242D01*
X143962924Y-109017682D01*
X144024245Y-108984198D01*
X144093936Y-108989182D01*
X144149870Y-109031053D01*
X144166786Y-109062030D01*
X144196646Y-109142087D01*
X144196649Y-109142093D01*
X144282809Y-109257187D01*
X144282812Y-109257190D01*
X144397906Y-109343350D01*
X144397913Y-109343354D01*
X144532620Y-109393596D01*
X144532627Y-109393598D01*
X144592155Y-109399999D01*
X144592172Y-109400000D01*
X145290000Y-109400000D01*
X145290000Y-108375277D01*
X145366306Y-108419333D01*
X145480756Y-108450000D01*
X145599244Y-108450000D01*
X145713694Y-108419333D01*
X145790000Y-108375277D01*
X145790000Y-109400000D01*
X146487828Y-109400000D01*
X146487844Y-109399999D01*
X146547372Y-109393598D01*
X146547379Y-109393596D01*
X146682086Y-109343354D01*
X146682093Y-109343350D01*
X146797187Y-109257190D01*
X146797190Y-109257187D01*
X146883350Y-109142093D01*
X146883354Y-109142086D01*
X146933596Y-109007379D01*
X146933598Y-109007372D01*
X146939999Y-108947844D01*
X146940000Y-108947827D01*
X146940000Y-108250000D01*
X145915278Y-108250000D01*
X145959333Y-108173694D01*
X145990000Y-108059244D01*
X145990000Y-107940756D01*
X145959333Y-107826306D01*
X145915278Y-107750000D01*
X146940000Y-107750000D01*
X146940000Y-107052172D01*
X146939999Y-107052155D01*
X146933598Y-106992627D01*
X146933596Y-106992620D01*
X146883354Y-106857913D01*
X146883350Y-106857906D01*
X146797190Y-106742812D01*
X146797187Y-106742809D01*
X146682093Y-106656649D01*
X146682086Y-106656645D01*
X146547379Y-106606403D01*
X146547372Y-106606401D01*
X146487844Y-106600000D01*
X145790000Y-106600000D01*
X145790000Y-107624722D01*
X145713694Y-107580667D01*
X145599244Y-107550000D01*
X145480756Y-107550000D01*
X145366306Y-107580667D01*
X145290000Y-107624722D01*
X145290000Y-106600000D01*
X144592155Y-106600000D01*
X144532627Y-106606401D01*
X144532620Y-106606403D01*
X144397913Y-106656645D01*
X144397906Y-106656649D01*
X144282812Y-106742809D01*
X144282809Y-106742812D01*
X144196649Y-106857906D01*
X144196643Y-106857918D01*
X144166785Y-106937969D01*
X144124914Y-106993903D01*
X144059449Y-107018319D01*
X143991176Y-107003467D01*
X143962923Y-106982316D01*
X143912363Y-106931756D01*
X143912358Y-106931752D01*
X143734025Y-106802187D01*
X143734024Y-106802186D01*
X143734022Y-106802185D01*
X143671096Y-106770122D01*
X143537606Y-106702104D01*
X143537603Y-106702103D01*
X143327952Y-106633985D01*
X143219086Y-106616742D01*
X143110222Y-106599500D01*
X142889778Y-106599500D01*
X142817201Y-106610995D01*
X142672047Y-106633985D01*
X142462396Y-106702103D01*
X142462393Y-106702104D01*
X142265974Y-106802187D01*
X142087641Y-106931752D01*
X142087636Y-106931756D01*
X141931756Y-107087636D01*
X141931752Y-107087641D01*
X141802187Y-107265974D01*
X141802185Y-107265978D01*
X141755911Y-107356797D01*
X141750052Y-107368295D01*
X141702077Y-107419091D01*
X141639567Y-107436000D01*
X134058200Y-107436000D01*
X133991161Y-107416315D01*
X133947715Y-107368295D01*
X133927067Y-107327772D01*
X133922287Y-107318390D01*
X133884205Y-107265974D01*
X133801971Y-107152786D01*
X133657213Y-107008028D01*
X133491613Y-106887715D01*
X133491612Y-106887714D01*
X133491610Y-106887713D01*
X133433111Y-106857906D01*
X133309223Y-106794781D01*
X133114534Y-106731522D01*
X132928799Y-106702105D01*
X132912352Y-106699500D01*
X132707648Y-106699500D01*
X132691201Y-106702105D01*
X132505465Y-106731522D01*
X132310776Y-106794781D01*
X132128386Y-106887715D01*
X131962786Y-107008028D01*
X131818028Y-107152786D01*
X131697715Y-107318386D01*
X131604781Y-107500776D01*
X131541522Y-107695465D01*
X131509500Y-107897648D01*
X126490500Y-107897648D01*
X126458477Y-107695465D01*
X126429127Y-107605137D01*
X126395220Y-107500781D01*
X126395218Y-107500778D01*
X126395218Y-107500776D01*
X126335447Y-107383471D01*
X126302287Y-107318390D01*
X126264205Y-107265974D01*
X126181971Y-107152786D01*
X126037213Y-107008028D01*
X125871613Y-106887715D01*
X125871612Y-106887714D01*
X125871610Y-106887713D01*
X125813111Y-106857906D01*
X125689223Y-106794781D01*
X125494534Y-106731522D01*
X125308799Y-106702105D01*
X125292352Y-106699500D01*
X125087648Y-106699500D01*
X125071201Y-106702105D01*
X124885465Y-106731522D01*
X124690776Y-106794781D01*
X124508386Y-106887715D01*
X124342786Y-107008028D01*
X124198028Y-107152786D01*
X124077715Y-107318386D01*
X123984781Y-107500776D01*
X123921522Y-107695465D01*
X123889500Y-107897648D01*
X123889500Y-108102351D01*
X123921522Y-108304531D01*
X123938831Y-108357804D01*
X123940825Y-108427646D01*
X123908580Y-108483802D01*
X122502703Y-109889681D01*
X122441380Y-109923166D01*
X122415022Y-109926000D01*
X120628200Y-109926000D01*
X120561161Y-109906315D01*
X120517715Y-109858295D01*
X120512390Y-109847846D01*
X120492287Y-109808390D01*
X120484556Y-109797749D01*
X120371971Y-109642786D01*
X120227213Y-109498028D01*
X120061613Y-109377715D01*
X120061612Y-109377714D01*
X120061610Y-109377713D01*
X119994169Y-109343350D01*
X119879223Y-109284781D01*
X119684534Y-109221522D01*
X119509995Y-109193878D01*
X119482352Y-109189500D01*
X119277648Y-109189500D01*
X119253329Y-109193351D01*
X119075465Y-109221522D01*
X118880776Y-109284781D01*
X118698386Y-109377715D01*
X118532786Y-109498028D01*
X118388028Y-109642786D01*
X118267715Y-109808386D01*
X118174781Y-109990776D01*
X118111522Y-110185465D01*
X118079500Y-110387648D01*
X105440500Y-110387648D01*
X105408477Y-110185466D01*
X105345220Y-109990781D01*
X105345218Y-109990778D01*
X105345218Y-109990776D01*
X105293707Y-109889681D01*
X105252287Y-109808390D01*
X105244556Y-109797749D01*
X105131971Y-109642786D01*
X104987213Y-109498028D01*
X104821613Y-109377715D01*
X104821612Y-109377714D01*
X104821610Y-109377713D01*
X104754169Y-109343350D01*
X104639223Y-109284781D01*
X104444534Y-109221522D01*
X104269995Y-109193878D01*
X104242352Y-109189500D01*
X104037648Y-109189500D01*
X104013329Y-109193351D01*
X103835465Y-109221522D01*
X103640776Y-109284781D01*
X103458386Y-109377715D01*
X103292786Y-109498028D01*
X103148028Y-109642786D01*
X103027715Y-109808386D01*
X102934781Y-109990776D01*
X102871522Y-110185465D01*
X102839500Y-110387648D01*
X102839500Y-110592351D01*
X102871522Y-110794534D01*
X102934781Y-110989223D01*
X103027715Y-111171613D01*
X103148028Y-111337213D01*
X103292786Y-111481971D01*
X103447749Y-111594556D01*
X103458390Y-111602287D01*
X103549840Y-111648883D01*
X103551080Y-111649515D01*
X103601876Y-111697490D01*
X103618671Y-111765311D01*
X103596134Y-111831446D01*
X103551080Y-111870485D01*
X103458386Y-111917715D01*
X103292786Y-112038028D01*
X103148028Y-112182786D01*
X103027715Y-112348386D01*
X102934781Y-112530776D01*
X102871522Y-112725465D01*
X102839500Y-112927648D01*
X102839500Y-113132351D01*
X102871522Y-113334534D01*
X102934781Y-113529223D01*
X103027715Y-113711613D01*
X103148028Y-113877213D01*
X103292786Y-114021971D01*
X103447749Y-114134556D01*
X103458390Y-114142287D01*
X103549840Y-114188883D01*
X103551080Y-114189515D01*
X103601876Y-114237490D01*
X103618671Y-114305311D01*
X103596134Y-114371446D01*
X103551080Y-114410485D01*
X103458386Y-114457715D01*
X103292786Y-114578028D01*
X103148028Y-114722786D01*
X103027715Y-114888386D01*
X102934781Y-115070776D01*
X102871522Y-115265465D01*
X102839500Y-115467648D01*
X102839500Y-115672351D01*
X102871522Y-115874534D01*
X102934781Y-116069223D01*
X102978017Y-116154076D01*
X103000728Y-116198650D01*
X103027715Y-116251613D01*
X103148028Y-116417213D01*
X103292786Y-116561971D01*
X103392470Y-116634394D01*
X103458390Y-116682287D01*
X103543408Y-116725606D01*
X103551080Y-116729515D01*
X103601876Y-116777490D01*
X103618671Y-116845311D01*
X103596134Y-116911446D01*
X103551080Y-116950485D01*
X103458386Y-116997715D01*
X103292786Y-117118028D01*
X103148028Y-117262786D01*
X103027715Y-117428386D01*
X102934781Y-117610776D01*
X102871522Y-117805465D01*
X102839500Y-118007648D01*
X102839500Y-118212351D01*
X102871522Y-118414534D01*
X102934781Y-118609223D01*
X103027715Y-118791613D01*
X103148028Y-118957213D01*
X103292786Y-119101971D01*
X103447749Y-119214556D01*
X103458390Y-119222287D01*
X103549840Y-119268883D01*
X103551080Y-119269515D01*
X103601876Y-119317490D01*
X103618671Y-119385311D01*
X103596134Y-119451446D01*
X103551080Y-119490485D01*
X103458386Y-119537715D01*
X103292786Y-119658028D01*
X103148028Y-119802786D01*
X103027715Y-119968386D01*
X102934781Y-120150776D01*
X102871522Y-120345465D01*
X102839500Y-120547648D01*
X102839500Y-120752351D01*
X102871522Y-120954534D01*
X102934781Y-121149223D01*
X102985262Y-121248295D01*
X103019759Y-121316000D01*
X103027715Y-121331613D01*
X103148028Y-121497213D01*
X103292786Y-121641971D01*
X103438852Y-121748092D01*
X103458390Y-121762287D01*
X103549840Y-121808883D01*
X103551080Y-121809515D01*
X103601876Y-121857490D01*
X103618671Y-121925311D01*
X103596134Y-121991446D01*
X103551080Y-122030485D01*
X103458386Y-122077715D01*
X103292786Y-122198028D01*
X103148028Y-122342786D01*
X103027715Y-122508386D01*
X102934781Y-122690776D01*
X102871522Y-122885465D01*
X102839500Y-123087648D01*
X102839500Y-123292351D01*
X102871522Y-123494534D01*
X102934781Y-123689223D01*
X103027715Y-123871613D01*
X103148028Y-124037213D01*
X103292786Y-124181971D01*
X103447749Y-124294556D01*
X103458390Y-124302287D01*
X103549840Y-124348883D01*
X103551080Y-124349515D01*
X103601876Y-124397490D01*
X103618671Y-124465311D01*
X103596134Y-124531446D01*
X103551080Y-124570485D01*
X103458386Y-124617715D01*
X103292786Y-124738028D01*
X103148028Y-124882786D01*
X103027715Y-125048386D01*
X102934781Y-125230776D01*
X102871522Y-125425465D01*
X102839500Y-125627648D01*
X102839500Y-125832351D01*
X102871522Y-126034534D01*
X102934781Y-126229223D01*
X103027715Y-126411613D01*
X103148028Y-126577213D01*
X103292786Y-126721971D01*
X103447749Y-126834556D01*
X103458390Y-126842287D01*
X103549840Y-126888883D01*
X103551080Y-126889515D01*
X103601876Y-126937490D01*
X103618671Y-127005311D01*
X103596134Y-127071446D01*
X103551080Y-127110485D01*
X103458386Y-127157715D01*
X103292786Y-127278028D01*
X103148030Y-127422784D01*
X103078575Y-127518384D01*
X103023245Y-127561051D01*
X102978256Y-127569500D01*
X84644500Y-127569500D01*
X84577461Y-127549815D01*
X84531706Y-127497011D01*
X84520500Y-127445500D01*
X84520500Y-107794773D01*
X84540185Y-107727734D01*
X84571614Y-107694455D01*
X84642464Y-107642981D01*
X84782981Y-107502464D01*
X84899787Y-107341694D01*
X84990005Y-107164632D01*
X85051413Y-106975636D01*
X85082500Y-106779361D01*
X85082500Y-106580639D01*
X85051413Y-106384364D01*
X84990005Y-106195368D01*
X84990005Y-106195367D01*
X84944035Y-106105149D01*
X84899787Y-106018306D01*
X84782981Y-105857536D01*
X84642464Y-105717019D01*
X84481694Y-105600213D01*
X84404360Y-105560809D01*
X84304632Y-105509994D01*
X84304629Y-105509993D01*
X84115637Y-105448587D01*
X84017498Y-105433043D01*
X83919361Y-105417500D01*
X83720639Y-105417500D01*
X83655214Y-105427862D01*
X83524362Y-105448587D01*
X83335370Y-105509993D01*
X83335367Y-105509994D01*
X83158305Y-105600213D01*
X82997533Y-105717021D01*
X82857021Y-105857533D01*
X82740213Y-106018305D01*
X82660485Y-106174780D01*
X82612510Y-106225576D01*
X82544689Y-106242371D01*
X82478554Y-106219833D01*
X82439515Y-106174780D01*
X82420179Y-106136832D01*
X82359787Y-106018306D01*
X82242981Y-105857536D01*
X82102464Y-105717019D01*
X81941694Y-105600213D01*
X81864360Y-105560809D01*
X81764632Y-105509994D01*
X81764629Y-105509993D01*
X81575637Y-105448587D01*
X81477498Y-105433043D01*
X81379361Y-105417500D01*
X81180639Y-105417500D01*
X81115214Y-105427862D01*
X80984362Y-105448587D01*
X80795370Y-105509993D01*
X80795367Y-105509994D01*
X80618305Y-105600213D01*
X80457533Y-105717021D01*
X80317021Y-105857533D01*
X80200213Y-106018305D01*
X80120485Y-106174780D01*
X80072510Y-106225576D01*
X80004689Y-106242371D01*
X79938554Y-106219833D01*
X79899515Y-106174780D01*
X79880179Y-106136832D01*
X79819787Y-106018306D01*
X79702981Y-105857536D01*
X79562464Y-105717019D01*
X79401694Y-105600213D01*
X79324360Y-105560809D01*
X79224632Y-105509994D01*
X79224629Y-105509993D01*
X79035637Y-105448587D01*
X78937498Y-105433043D01*
X78839361Y-105417500D01*
X78640639Y-105417500D01*
X78575214Y-105427862D01*
X78444362Y-105448587D01*
X78255370Y-105509993D01*
X78255367Y-105509994D01*
X78078305Y-105600213D01*
X77917533Y-105717021D01*
X77777021Y-105857533D01*
X77777021Y-105857534D01*
X77777019Y-105857536D01*
X77739273Y-105909489D01*
X77686318Y-105982375D01*
X77630988Y-106025040D01*
X77561374Y-106031019D01*
X77499579Y-105998413D01*
X77465222Y-105937574D01*
X77462000Y-105909489D01*
X77462000Y-105870172D01*
X77461999Y-105870155D01*
X77455598Y-105810627D01*
X77455596Y-105810620D01*
X77405354Y-105675913D01*
X77405350Y-105675906D01*
X77319190Y-105560812D01*
X77319187Y-105560809D01*
X77204093Y-105474649D01*
X77204086Y-105474645D01*
X77069379Y-105424403D01*
X77069372Y-105424401D01*
X77009844Y-105418000D01*
X76450000Y-105418000D01*
X76450000Y-106391184D01*
X76433940Y-106375124D01*
X76347061Y-106324964D01*
X76250160Y-106299000D01*
X76149840Y-106299000D01*
X76052939Y-106324964D01*
X75966060Y-106375124D01*
X75950000Y-106391184D01*
X75950000Y-105418000D01*
X75390155Y-105418000D01*
X75330627Y-105424401D01*
X75330620Y-105424403D01*
X75195913Y-105474645D01*
X75195906Y-105474649D01*
X75080812Y-105560809D01*
X75080809Y-105560812D01*
X74994649Y-105675906D01*
X74994645Y-105675913D01*
X74944403Y-105810620D01*
X74944401Y-105810627D01*
X74938000Y-105870155D01*
X74938000Y-106430000D01*
X75911184Y-106430000D01*
X75895124Y-106446060D01*
X75844964Y-106532939D01*
X75819000Y-106629840D01*
X75819000Y-106730160D01*
X75844964Y-106827061D01*
X75895124Y-106913940D01*
X75911184Y-106930000D01*
X74938000Y-106930000D01*
X74938000Y-107489844D01*
X74944401Y-107549372D01*
X74944403Y-107549379D01*
X74994645Y-107684086D01*
X74994649Y-107684093D01*
X75080809Y-107799187D01*
X75080812Y-107799190D01*
X75195906Y-107885350D01*
X75195913Y-107885354D01*
X75330620Y-107935596D01*
X75330627Y-107935598D01*
X75390155Y-107941999D01*
X75390172Y-107942000D01*
X75950000Y-107942000D01*
X75950000Y-106968816D01*
X75966060Y-106984876D01*
X76052939Y-107035036D01*
X76149840Y-107061000D01*
X76250160Y-107061000D01*
X76347061Y-107035036D01*
X76433940Y-106984876D01*
X76450000Y-106968816D01*
X76450000Y-107942000D01*
X77009828Y-107942000D01*
X77009844Y-107941999D01*
X77069372Y-107935598D01*
X77069379Y-107935596D01*
X77204086Y-107885354D01*
X77204093Y-107885350D01*
X77319187Y-107799190D01*
X77319190Y-107799187D01*
X77405350Y-107684093D01*
X77405354Y-107684086D01*
X77455596Y-107549379D01*
X77455598Y-107549372D01*
X77461999Y-107489844D01*
X77462000Y-107489827D01*
X77462000Y-107450510D01*
X77481685Y-107383471D01*
X77534489Y-107337716D01*
X77603647Y-107327772D01*
X77667203Y-107356797D01*
X77686318Y-107377625D01*
X77767838Y-107489827D01*
X77777019Y-107502464D01*
X77917536Y-107642981D01*
X78078306Y-107759787D01*
X78165149Y-107804035D01*
X78255367Y-107850005D01*
X78255370Y-107850006D01*
X78349866Y-107880709D01*
X78444364Y-107911413D01*
X78640639Y-107942500D01*
X78640640Y-107942500D01*
X78839360Y-107942500D01*
X78839361Y-107942500D01*
X79035636Y-107911413D01*
X79224632Y-107850005D01*
X79401694Y-107759787D01*
X79562464Y-107642981D01*
X79702981Y-107502464D01*
X79819787Y-107341694D01*
X79899515Y-107185218D01*
X79947490Y-107134423D01*
X80015311Y-107117628D01*
X80081446Y-107140165D01*
X80120484Y-107185218D01*
X80200213Y-107341694D01*
X80317019Y-107502464D01*
X80457536Y-107642981D01*
X80618306Y-107759787D01*
X80705149Y-107804035D01*
X80795367Y-107850005D01*
X80795370Y-107850006D01*
X80889866Y-107880709D01*
X80984364Y-107911413D01*
X81180639Y-107942500D01*
X81180640Y-107942500D01*
X81379360Y-107942500D01*
X81379361Y-107942500D01*
X81575636Y-107911413D01*
X81764632Y-107850005D01*
X81941694Y-107759787D01*
X82102464Y-107642981D01*
X82242981Y-107502464D01*
X82359787Y-107341694D01*
X82439515Y-107185218D01*
X82487490Y-107134423D01*
X82555311Y-107117628D01*
X82621446Y-107140165D01*
X82660484Y-107185218D01*
X82740213Y-107341694D01*
X82857019Y-107502464D01*
X82997536Y-107642981D01*
X83068384Y-107694455D01*
X83111051Y-107749784D01*
X83119500Y-107794773D01*
X83119500Y-127445500D01*
X83099815Y-127512539D01*
X83047011Y-127558294D01*
X82995500Y-127569500D01*
X81211004Y-127569500D01*
X81075677Y-127596418D01*
X81075667Y-127596421D01*
X80948192Y-127649222D01*
X80833454Y-127725887D01*
X71412934Y-137146407D01*
X71351611Y-137179892D01*
X71305854Y-137181199D01*
X71219365Y-137167500D01*
X71219361Y-137167500D01*
X71020639Y-137167500D01*
X70955214Y-137177862D01*
X70824362Y-137198587D01*
X70635370Y-137259993D01*
X70635367Y-137259994D01*
X70458305Y-137350213D01*
X70297533Y-137467021D01*
X70157021Y-137607533D01*
X70157021Y-137607534D01*
X70157019Y-137607536D01*
X70119772Y-137658802D01*
X70066817Y-137731688D01*
X70011487Y-137774353D01*
X69941873Y-137780332D01*
X69880078Y-137747726D01*
X69845721Y-137686887D01*
X69842499Y-137658802D01*
X69842499Y-137620129D01*
X69842498Y-137620123D01*
X69842497Y-137620116D01*
X69836091Y-137560517D01*
X69801219Y-137467021D01*
X69785797Y-137425671D01*
X69785793Y-137425664D01*
X69699547Y-137310455D01*
X69699544Y-137310452D01*
X69584335Y-137224206D01*
X69584328Y-137224202D01*
X69449482Y-137173908D01*
X69449483Y-137173908D01*
X69389883Y-137167501D01*
X69389881Y-137167500D01*
X69389873Y-137167500D01*
X69389864Y-137167500D01*
X67770129Y-137167500D01*
X67770123Y-137167501D01*
X67710516Y-137173908D01*
X67575671Y-137224202D01*
X67575664Y-137224206D01*
X67460455Y-137310452D01*
X67460452Y-137310455D01*
X67374206Y-137425664D01*
X67374202Y-137425671D01*
X67323908Y-137560517D01*
X67317501Y-137620116D01*
X67317501Y-137620123D01*
X67317500Y-137620135D01*
X64500500Y-137620135D01*
X64500500Y-102624500D01*
X64520185Y-102557461D01*
X64572989Y-102511706D01*
X64624500Y-102500500D01*
X150375500Y-102500500D01*
X150442539Y-102520185D01*
G37*
G04 #@! TD.AperFunction*
M02*
