M48
; DRILL file {KiCad 9.0.6} date 2026-06-25T21:48:42+0300
; FORMAT={-:-/ absolute / metric / decimal}
; #@! TF.CreationDate,2026-06-25T21:48:42+03:00
; #@! TF.GenerationSoftware,Kicad,Pcbnew,9.0.6
; #@! TF.FileFunction,Plated,1,2,PTH
FMAT,2
METRIC
; #@! TA.AperFunction,Plated,PTH,ViaDrill
T1C0.300
; #@! TA.AperFunction,Plated,PTH,ComponentDrill
T2C0.762
; #@! TA.AperFunction,Plated,PTH,ComponentDrill
T3C0.800
; #@! TA.AperFunction,Plated,PTH,ComponentDrill
T4C0.900
; #@! TA.AperFunction,Plated,PTH,ComponentDrill
T5C1.000
; #@! TA.AperFunction,Plated,PTH,ComponentDrill
T6C1.100
%
G90
G05
T1
X81.28Y-130.81
T2
X68.58Y-138.43
X71.12Y-138.43
X73.66Y-138.43
X76.2Y-106.68
X76.2Y-138.43
X78.74Y-106.68
X78.74Y-138.43
X81.28Y-106.68
X83.82Y-106.68
T3
X125.19Y-108.0
X127.0Y-116.88
X127.0Y-121.88
X127.0Y-128.31
X127.0Y-133.31
X127.0Y-139.74
X127.0Y-144.74
X132.81Y-108.0
X134.62Y-115.57
X134.62Y-123.19
X134.62Y-127.0
X134.62Y-134.62
X134.62Y-138.43
X134.62Y-146.05
T4
X143.0Y-108.0
X145.54Y-108.0
T5
X104.14Y-110.49
X104.14Y-113.03
X104.14Y-115.57
X104.14Y-118.11
X104.14Y-120.65
X104.14Y-123.19
X104.14Y-125.73
X104.14Y-128.27
X104.14Y-130.81
X104.14Y-133.35
X104.14Y-135.89
X104.14Y-138.43
X104.14Y-140.97
X104.14Y-143.51
X104.14Y-146.05
X119.38Y-110.49
X119.38Y-113.03
X119.38Y-115.57
X119.38Y-118.11
X119.38Y-120.65
X119.38Y-123.19
X119.38Y-125.73
X119.38Y-128.27
X119.38Y-130.81
X119.38Y-133.35
X119.38Y-135.89
X119.38Y-138.43
X119.38Y-140.97
X119.38Y-143.51
X119.38Y-146.05
T6
X140.26Y-117.13
X140.26Y-121.63
X140.26Y-128.56
X140.26Y-133.06
X140.26Y-139.99
X140.26Y-144.49
X146.76Y-117.13
X146.76Y-121.63
X146.76Y-128.56
X146.76Y-133.06
X146.76Y-139.99
X146.76Y-144.49
M30
