G04 #@! TF.GenerationSoftware,KiCad,Pcbnew,9.0.6*
G04 #@! TF.CreationDate,2026-06-25T21:53:15+03:00*
G04 #@! TF.ProjectId,trial_project,74726961-6c5f-4707-926f-6a6563742e6b,rev?*
G04 #@! TF.SameCoordinates,Original*
G04 #@! TF.FileFunction,Legend,Top*
G04 #@! TF.FilePolarity,Positive*
%FSLAX46Y46*%
G04 Gerber Fmt 4.6, Leading zero omitted, Abs format (unit mm)*
G04 Created by KiCad (PCBNEW 9.0.6) date 2026-06-25 21:53:15*
%MOMM*%
%LPD*%
G01*
G04 APERTURE LIST*
%ADD10C,0.300000*%
%ADD11C,0.150000*%
%ADD12C,0.100000*%
%ADD13C,0.120000*%
G04 APERTURE END LIST*
D10*
X88673558Y-144519750D02*
X88673558Y-142519750D01*
X88673558Y-142519750D02*
X89149748Y-142519750D01*
X89149748Y-142519750D02*
X89435463Y-142614988D01*
X89435463Y-142614988D02*
X89625939Y-142805464D01*
X89625939Y-142805464D02*
X89721177Y-142995940D01*
X89721177Y-142995940D02*
X89816415Y-143376892D01*
X89816415Y-143376892D02*
X89816415Y-143662607D01*
X89816415Y-143662607D02*
X89721177Y-144043559D01*
X89721177Y-144043559D02*
X89625939Y-144234035D01*
X89625939Y-144234035D02*
X89435463Y-144424512D01*
X89435463Y-144424512D02*
X89149748Y-144519750D01*
X89149748Y-144519750D02*
X88673558Y-144519750D01*
X90673558Y-144519750D02*
X90673558Y-142519750D01*
X92006891Y-143567369D02*
X92006891Y-144519750D01*
X91340225Y-142519750D02*
X92006891Y-143567369D01*
X92006891Y-143567369D02*
X92673558Y-142519750D01*
X88578320Y-147644400D02*
X88864034Y-147739638D01*
X88864034Y-147739638D02*
X89340225Y-147739638D01*
X89340225Y-147739638D02*
X89530701Y-147644400D01*
X89530701Y-147644400D02*
X89625939Y-147549161D01*
X89625939Y-147549161D02*
X89721177Y-147358685D01*
X89721177Y-147358685D02*
X89721177Y-147168209D01*
X89721177Y-147168209D02*
X89625939Y-146977733D01*
X89625939Y-146977733D02*
X89530701Y-146882495D01*
X89530701Y-146882495D02*
X89340225Y-146787257D01*
X89340225Y-146787257D02*
X88959272Y-146692019D01*
X88959272Y-146692019D02*
X88768796Y-146596780D01*
X88768796Y-146596780D02*
X88673558Y-146501542D01*
X88673558Y-146501542D02*
X88578320Y-146311066D01*
X88578320Y-146311066D02*
X88578320Y-146120590D01*
X88578320Y-146120590D02*
X88673558Y-145930114D01*
X88673558Y-145930114D02*
X88768796Y-145834876D01*
X88768796Y-145834876D02*
X88959272Y-145739638D01*
X88959272Y-145739638D02*
X89435463Y-145739638D01*
X89435463Y-145739638D02*
X89721177Y-145834876D01*
X90578320Y-147739638D02*
X90578320Y-145739638D01*
X90578320Y-145739638D02*
X91340225Y-145739638D01*
X91340225Y-145739638D02*
X91530701Y-145834876D01*
X91530701Y-145834876D02*
X91625939Y-145930114D01*
X91625939Y-145930114D02*
X91721177Y-146120590D01*
X91721177Y-146120590D02*
X91721177Y-146406304D01*
X91721177Y-146406304D02*
X91625939Y-146596780D01*
X91625939Y-146596780D02*
X91530701Y-146692019D01*
X91530701Y-146692019D02*
X91340225Y-146787257D01*
X91340225Y-146787257D02*
X90578320Y-146787257D01*
X92959272Y-145739638D02*
X93340225Y-145739638D01*
X93340225Y-145739638D02*
X93530701Y-145834876D01*
X93530701Y-145834876D02*
X93721177Y-146025352D01*
X93721177Y-146025352D02*
X93816415Y-146406304D01*
X93816415Y-146406304D02*
X93816415Y-147072971D01*
X93816415Y-147072971D02*
X93721177Y-147453923D01*
X93721177Y-147453923D02*
X93530701Y-147644400D01*
X93530701Y-147644400D02*
X93340225Y-147739638D01*
X93340225Y-147739638D02*
X92959272Y-147739638D01*
X92959272Y-147739638D02*
X92768796Y-147644400D01*
X92768796Y-147644400D02*
X92578320Y-147453923D01*
X92578320Y-147453923D02*
X92483082Y-147072971D01*
X92483082Y-147072971D02*
X92483082Y-146406304D01*
X92483082Y-146406304D02*
X92578320Y-146025352D01*
X92578320Y-146025352D02*
X92768796Y-145834876D01*
X92768796Y-145834876D02*
X92959272Y-145739638D01*
X94578320Y-145930114D02*
X94673558Y-145834876D01*
X94673558Y-145834876D02*
X94864034Y-145739638D01*
X94864034Y-145739638D02*
X95340225Y-145739638D01*
X95340225Y-145739638D02*
X95530701Y-145834876D01*
X95530701Y-145834876D02*
X95625939Y-145930114D01*
X95625939Y-145930114D02*
X95721177Y-146120590D01*
X95721177Y-146120590D02*
X95721177Y-146311066D01*
X95721177Y-146311066D02*
X95625939Y-146596780D01*
X95625939Y-146596780D02*
X94483082Y-147739638D01*
X94483082Y-147739638D02*
X95721177Y-147739638D01*
D11*
X84201200Y-109749982D02*
X84234533Y-109649982D01*
X84234533Y-109649982D02*
X84234533Y-109483316D01*
X84234533Y-109483316D02*
X84201200Y-109416649D01*
X84201200Y-109416649D02*
X84167866Y-109383316D01*
X84167866Y-109383316D02*
X84101200Y-109349982D01*
X84101200Y-109349982D02*
X84034533Y-109349982D01*
X84034533Y-109349982D02*
X83967866Y-109383316D01*
X83967866Y-109383316D02*
X83934533Y-109416649D01*
X83934533Y-109416649D02*
X83901200Y-109483316D01*
X83901200Y-109483316D02*
X83867866Y-109616649D01*
X83867866Y-109616649D02*
X83834533Y-109683316D01*
X83834533Y-109683316D02*
X83801200Y-109716649D01*
X83801200Y-109716649D02*
X83734533Y-109749982D01*
X83734533Y-109749982D02*
X83667866Y-109749982D01*
X83667866Y-109749982D02*
X83601200Y-109716649D01*
X83601200Y-109716649D02*
X83567866Y-109683316D01*
X83567866Y-109683316D02*
X83534533Y-109616649D01*
X83534533Y-109616649D02*
X83534533Y-109449982D01*
X83534533Y-109449982D02*
X83567866Y-109349982D01*
X84234533Y-109049982D02*
X83534533Y-109049982D01*
X83534533Y-109049982D02*
X83534533Y-108883315D01*
X83534533Y-108883315D02*
X83567866Y-108783315D01*
X83567866Y-108783315D02*
X83634533Y-108716649D01*
X83634533Y-108716649D02*
X83701200Y-108683315D01*
X83701200Y-108683315D02*
X83834533Y-108649982D01*
X83834533Y-108649982D02*
X83934533Y-108649982D01*
X83934533Y-108649982D02*
X84067866Y-108683315D01*
X84067866Y-108683315D02*
X84134533Y-108716649D01*
X84134533Y-108716649D02*
X84201200Y-108783315D01*
X84201200Y-108783315D02*
X84234533Y-108883315D01*
X84234533Y-108883315D02*
X84234533Y-109049982D01*
X84034533Y-108383315D02*
X84034533Y-108049982D01*
X84234533Y-108449982D02*
X83534533Y-108216649D01*
X83534533Y-108216649D02*
X84234533Y-107983315D01*
D12*
X79248095Y-115797419D02*
X79248095Y-116606942D01*
X79248095Y-116606942D02*
X79295714Y-116702180D01*
X79295714Y-116702180D02*
X79343333Y-116749800D01*
X79343333Y-116749800D02*
X79438571Y-116797419D01*
X79438571Y-116797419D02*
X79629047Y-116797419D01*
X79629047Y-116797419D02*
X79724285Y-116749800D01*
X79724285Y-116749800D02*
X79771904Y-116702180D01*
X79771904Y-116702180D02*
X79819523Y-116606942D01*
X79819523Y-116606942D02*
X79819523Y-115797419D01*
X80248095Y-115892657D02*
X80295714Y-115845038D01*
X80295714Y-115845038D02*
X80390952Y-115797419D01*
X80390952Y-115797419D02*
X80629047Y-115797419D01*
X80629047Y-115797419D02*
X80724285Y-115845038D01*
X80724285Y-115845038D02*
X80771904Y-115892657D01*
X80771904Y-115892657D02*
X80819523Y-115987895D01*
X80819523Y-115987895D02*
X80819523Y-116083133D01*
X80819523Y-116083133D02*
X80771904Y-116225990D01*
X80771904Y-116225990D02*
X80200476Y-116797419D01*
X80200476Y-116797419D02*
X80819523Y-116797419D01*
D11*
X81661200Y-109749982D02*
X81694533Y-109649982D01*
X81694533Y-109649982D02*
X81694533Y-109483316D01*
X81694533Y-109483316D02*
X81661200Y-109416649D01*
X81661200Y-109416649D02*
X81627866Y-109383316D01*
X81627866Y-109383316D02*
X81561200Y-109349982D01*
X81561200Y-109349982D02*
X81494533Y-109349982D01*
X81494533Y-109349982D02*
X81427866Y-109383316D01*
X81427866Y-109383316D02*
X81394533Y-109416649D01*
X81394533Y-109416649D02*
X81361200Y-109483316D01*
X81361200Y-109483316D02*
X81327866Y-109616649D01*
X81327866Y-109616649D02*
X81294533Y-109683316D01*
X81294533Y-109683316D02*
X81261200Y-109716649D01*
X81261200Y-109716649D02*
X81194533Y-109749982D01*
X81194533Y-109749982D02*
X81127866Y-109749982D01*
X81127866Y-109749982D02*
X81061200Y-109716649D01*
X81061200Y-109716649D02*
X81027866Y-109683316D01*
X81027866Y-109683316D02*
X80994533Y-109616649D01*
X80994533Y-109616649D02*
X80994533Y-109449982D01*
X80994533Y-109449982D02*
X81027866Y-109349982D01*
X81627866Y-108649982D02*
X81661200Y-108683315D01*
X81661200Y-108683315D02*
X81694533Y-108783315D01*
X81694533Y-108783315D02*
X81694533Y-108849982D01*
X81694533Y-108849982D02*
X81661200Y-108949982D01*
X81661200Y-108949982D02*
X81594533Y-109016649D01*
X81594533Y-109016649D02*
X81527866Y-109049982D01*
X81527866Y-109049982D02*
X81394533Y-109083315D01*
X81394533Y-109083315D02*
X81294533Y-109083315D01*
X81294533Y-109083315D02*
X81161200Y-109049982D01*
X81161200Y-109049982D02*
X81094533Y-109016649D01*
X81094533Y-109016649D02*
X81027866Y-108949982D01*
X81027866Y-108949982D02*
X80994533Y-108849982D01*
X80994533Y-108849982D02*
X80994533Y-108783315D01*
X80994533Y-108783315D02*
X81027866Y-108683315D01*
X81027866Y-108683315D02*
X81061200Y-108649982D01*
X81694533Y-108016649D02*
X81694533Y-108349982D01*
X81694533Y-108349982D02*
X80994533Y-108349982D01*
X78454533Y-109816649D02*
X79154533Y-109583316D01*
X79154533Y-109583316D02*
X78454533Y-109349982D01*
X79087866Y-108716649D02*
X79121200Y-108749982D01*
X79121200Y-108749982D02*
X79154533Y-108849982D01*
X79154533Y-108849982D02*
X79154533Y-108916649D01*
X79154533Y-108916649D02*
X79121200Y-109016649D01*
X79121200Y-109016649D02*
X79054533Y-109083316D01*
X79054533Y-109083316D02*
X78987866Y-109116649D01*
X78987866Y-109116649D02*
X78854533Y-109149982D01*
X78854533Y-109149982D02*
X78754533Y-109149982D01*
X78754533Y-109149982D02*
X78621200Y-109116649D01*
X78621200Y-109116649D02*
X78554533Y-109083316D01*
X78554533Y-109083316D02*
X78487866Y-109016649D01*
X78487866Y-109016649D02*
X78454533Y-108916649D01*
X78454533Y-108916649D02*
X78454533Y-108849982D01*
X78454533Y-108849982D02*
X78487866Y-108749982D01*
X78487866Y-108749982D02*
X78521200Y-108716649D01*
X79087866Y-108016649D02*
X79121200Y-108049982D01*
X79121200Y-108049982D02*
X79154533Y-108149982D01*
X79154533Y-108149982D02*
X79154533Y-108216649D01*
X79154533Y-108216649D02*
X79121200Y-108316649D01*
X79121200Y-108316649D02*
X79054533Y-108383316D01*
X79054533Y-108383316D02*
X78987866Y-108416649D01*
X78987866Y-108416649D02*
X78854533Y-108449982D01*
X78854533Y-108449982D02*
X78754533Y-108449982D01*
X78754533Y-108449982D02*
X78621200Y-108416649D01*
X78621200Y-108416649D02*
X78554533Y-108383316D01*
X78554533Y-108383316D02*
X78487866Y-108316649D01*
X78487866Y-108316649D02*
X78454533Y-108216649D01*
X78454533Y-108216649D02*
X78454533Y-108149982D01*
X78454533Y-108149982D02*
X78487866Y-108049982D01*
X78487866Y-108049982D02*
X78521200Y-108016649D01*
X75947866Y-109349982D02*
X75914533Y-109416649D01*
X75914533Y-109416649D02*
X75914533Y-109516649D01*
X75914533Y-109516649D02*
X75947866Y-109616649D01*
X75947866Y-109616649D02*
X76014533Y-109683316D01*
X76014533Y-109683316D02*
X76081200Y-109716649D01*
X76081200Y-109716649D02*
X76214533Y-109749982D01*
X76214533Y-109749982D02*
X76314533Y-109749982D01*
X76314533Y-109749982D02*
X76447866Y-109716649D01*
X76447866Y-109716649D02*
X76514533Y-109683316D01*
X76514533Y-109683316D02*
X76581200Y-109616649D01*
X76581200Y-109616649D02*
X76614533Y-109516649D01*
X76614533Y-109516649D02*
X76614533Y-109449982D01*
X76614533Y-109449982D02*
X76581200Y-109349982D01*
X76581200Y-109349982D02*
X76547866Y-109316649D01*
X76547866Y-109316649D02*
X76314533Y-109316649D01*
X76314533Y-109316649D02*
X76314533Y-109449982D01*
X76614533Y-109016649D02*
X75914533Y-109016649D01*
X75914533Y-109016649D02*
X76614533Y-108616649D01*
X76614533Y-108616649D02*
X75914533Y-108616649D01*
X76614533Y-108283316D02*
X75914533Y-108283316D01*
X75914533Y-108283316D02*
X75914533Y-108116649D01*
X75914533Y-108116649D02*
X75947866Y-108016649D01*
X75947866Y-108016649D02*
X76014533Y-107949983D01*
X76014533Y-107949983D02*
X76081200Y-107916649D01*
X76081200Y-107916649D02*
X76214533Y-107883316D01*
X76214533Y-107883316D02*
X76314533Y-107883316D01*
X76314533Y-107883316D02*
X76447866Y-107916649D01*
X76447866Y-107916649D02*
X76514533Y-107949983D01*
X76514533Y-107949983D02*
X76581200Y-108016649D01*
X76581200Y-108016649D02*
X76614533Y-108116649D01*
X76614533Y-108116649D02*
X76614533Y-108283316D01*
D12*
X82238095Y-149457419D02*
X82238095Y-150266942D01*
X82238095Y-150266942D02*
X82285714Y-150362180D01*
X82285714Y-150362180D02*
X82333333Y-150409800D01*
X82333333Y-150409800D02*
X82428571Y-150457419D01*
X82428571Y-150457419D02*
X82619047Y-150457419D01*
X82619047Y-150457419D02*
X82714285Y-150409800D01*
X82714285Y-150409800D02*
X82761904Y-150362180D01*
X82761904Y-150362180D02*
X82809523Y-150266942D01*
X82809523Y-150266942D02*
X82809523Y-149457419D01*
X83809523Y-150457419D02*
X83238095Y-150457419D01*
X83523809Y-150457419D02*
X83523809Y-149457419D01*
X83523809Y-149457419D02*
X83428571Y-149600276D01*
X83428571Y-149600276D02*
X83333333Y-149695514D01*
X83333333Y-149695514D02*
X83238095Y-149743133D01*
D11*
X78366533Y-141244649D02*
X79066533Y-141011316D01*
X79066533Y-141011316D02*
X78366533Y-140777982D01*
X78999866Y-140144649D02*
X79033200Y-140177982D01*
X79033200Y-140177982D02*
X79066533Y-140277982D01*
X79066533Y-140277982D02*
X79066533Y-140344649D01*
X79066533Y-140344649D02*
X79033200Y-140444649D01*
X79033200Y-140444649D02*
X78966533Y-140511316D01*
X78966533Y-140511316D02*
X78899866Y-140544649D01*
X78899866Y-140544649D02*
X78766533Y-140577982D01*
X78766533Y-140577982D02*
X78666533Y-140577982D01*
X78666533Y-140577982D02*
X78533200Y-140544649D01*
X78533200Y-140544649D02*
X78466533Y-140511316D01*
X78466533Y-140511316D02*
X78399866Y-140444649D01*
X78399866Y-140444649D02*
X78366533Y-140344649D01*
X78366533Y-140344649D02*
X78366533Y-140277982D01*
X78366533Y-140277982D02*
X78399866Y-140177982D01*
X78399866Y-140177982D02*
X78433200Y-140144649D01*
X78999866Y-139444649D02*
X79033200Y-139477982D01*
X79033200Y-139477982D02*
X79066533Y-139577982D01*
X79066533Y-139577982D02*
X79066533Y-139644649D01*
X79066533Y-139644649D02*
X79033200Y-139744649D01*
X79033200Y-139744649D02*
X78966533Y-139811316D01*
X78966533Y-139811316D02*
X78899866Y-139844649D01*
X78899866Y-139844649D02*
X78766533Y-139877982D01*
X78766533Y-139877982D02*
X78666533Y-139877982D01*
X78666533Y-139877982D02*
X78533200Y-139844649D01*
X78533200Y-139844649D02*
X78466533Y-139811316D01*
X78466533Y-139811316D02*
X78399866Y-139744649D01*
X78399866Y-139744649D02*
X78366533Y-139644649D01*
X78366533Y-139644649D02*
X78366533Y-139577982D01*
X78366533Y-139577982D02*
X78399866Y-139477982D01*
X78399866Y-139477982D02*
X78433200Y-139444649D01*
X74033200Y-141177982D02*
X74066533Y-141077982D01*
X74066533Y-141077982D02*
X74066533Y-140911316D01*
X74066533Y-140911316D02*
X74033200Y-140844649D01*
X74033200Y-140844649D02*
X73999866Y-140811316D01*
X73999866Y-140811316D02*
X73933200Y-140777982D01*
X73933200Y-140777982D02*
X73866533Y-140777982D01*
X73866533Y-140777982D02*
X73799866Y-140811316D01*
X73799866Y-140811316D02*
X73766533Y-140844649D01*
X73766533Y-140844649D02*
X73733200Y-140911316D01*
X73733200Y-140911316D02*
X73699866Y-141044649D01*
X73699866Y-141044649D02*
X73666533Y-141111316D01*
X73666533Y-141111316D02*
X73633200Y-141144649D01*
X73633200Y-141144649D02*
X73566533Y-141177982D01*
X73566533Y-141177982D02*
X73499866Y-141177982D01*
X73499866Y-141177982D02*
X73433200Y-141144649D01*
X73433200Y-141144649D02*
X73399866Y-141111316D01*
X73399866Y-141111316D02*
X73366533Y-141044649D01*
X73366533Y-141044649D02*
X73366533Y-140877982D01*
X73366533Y-140877982D02*
X73399866Y-140777982D01*
X73999866Y-140077982D02*
X74033200Y-140111315D01*
X74033200Y-140111315D02*
X74066533Y-140211315D01*
X74066533Y-140211315D02*
X74066533Y-140277982D01*
X74066533Y-140277982D02*
X74033200Y-140377982D01*
X74033200Y-140377982D02*
X73966533Y-140444649D01*
X73966533Y-140444649D02*
X73899866Y-140477982D01*
X73899866Y-140477982D02*
X73766533Y-140511315D01*
X73766533Y-140511315D02*
X73666533Y-140511315D01*
X73666533Y-140511315D02*
X73533200Y-140477982D01*
X73533200Y-140477982D02*
X73466533Y-140444649D01*
X73466533Y-140444649D02*
X73399866Y-140377982D01*
X73399866Y-140377982D02*
X73366533Y-140277982D01*
X73366533Y-140277982D02*
X73366533Y-140211315D01*
X73366533Y-140211315D02*
X73399866Y-140111315D01*
X73399866Y-140111315D02*
X73433200Y-140077982D01*
X74066533Y-139444649D02*
X74066533Y-139777982D01*
X74066533Y-139777982D02*
X73366533Y-139777982D01*
X71533200Y-141177982D02*
X71566533Y-141077982D01*
X71566533Y-141077982D02*
X71566533Y-140911316D01*
X71566533Y-140911316D02*
X71533200Y-140844649D01*
X71533200Y-140844649D02*
X71499866Y-140811316D01*
X71499866Y-140811316D02*
X71433200Y-140777982D01*
X71433200Y-140777982D02*
X71366533Y-140777982D01*
X71366533Y-140777982D02*
X71299866Y-140811316D01*
X71299866Y-140811316D02*
X71266533Y-140844649D01*
X71266533Y-140844649D02*
X71233200Y-140911316D01*
X71233200Y-140911316D02*
X71199866Y-141044649D01*
X71199866Y-141044649D02*
X71166533Y-141111316D01*
X71166533Y-141111316D02*
X71133200Y-141144649D01*
X71133200Y-141144649D02*
X71066533Y-141177982D01*
X71066533Y-141177982D02*
X70999866Y-141177982D01*
X70999866Y-141177982D02*
X70933200Y-141144649D01*
X70933200Y-141144649D02*
X70899866Y-141111316D01*
X70899866Y-141111316D02*
X70866533Y-141044649D01*
X70866533Y-141044649D02*
X70866533Y-140877982D01*
X70866533Y-140877982D02*
X70899866Y-140777982D01*
X71566533Y-140477982D02*
X70866533Y-140477982D01*
X70866533Y-140477982D02*
X70866533Y-140311315D01*
X70866533Y-140311315D02*
X70899866Y-140211315D01*
X70899866Y-140211315D02*
X70966533Y-140144649D01*
X70966533Y-140144649D02*
X71033200Y-140111315D01*
X71033200Y-140111315D02*
X71166533Y-140077982D01*
X71166533Y-140077982D02*
X71266533Y-140077982D01*
X71266533Y-140077982D02*
X71399866Y-140111315D01*
X71399866Y-140111315D02*
X71466533Y-140144649D01*
X71466533Y-140144649D02*
X71533200Y-140211315D01*
X71533200Y-140211315D02*
X71566533Y-140311315D01*
X71566533Y-140311315D02*
X71566533Y-140477982D01*
X71366533Y-139811315D02*
X71366533Y-139477982D01*
X71566533Y-139877982D02*
X70866533Y-139644649D01*
X70866533Y-139644649D02*
X71566533Y-139411315D01*
X75899866Y-140777982D02*
X75866533Y-140844649D01*
X75866533Y-140844649D02*
X75866533Y-140944649D01*
X75866533Y-140944649D02*
X75899866Y-141044649D01*
X75899866Y-141044649D02*
X75966533Y-141111316D01*
X75966533Y-141111316D02*
X76033200Y-141144649D01*
X76033200Y-141144649D02*
X76166533Y-141177982D01*
X76166533Y-141177982D02*
X76266533Y-141177982D01*
X76266533Y-141177982D02*
X76399866Y-141144649D01*
X76399866Y-141144649D02*
X76466533Y-141111316D01*
X76466533Y-141111316D02*
X76533200Y-141044649D01*
X76533200Y-141044649D02*
X76566533Y-140944649D01*
X76566533Y-140944649D02*
X76566533Y-140877982D01*
X76566533Y-140877982D02*
X76533200Y-140777982D01*
X76533200Y-140777982D02*
X76499866Y-140744649D01*
X76499866Y-140744649D02*
X76266533Y-140744649D01*
X76266533Y-140744649D02*
X76266533Y-140877982D01*
X76566533Y-140444649D02*
X75866533Y-140444649D01*
X75866533Y-140444649D02*
X76566533Y-140044649D01*
X76566533Y-140044649D02*
X75866533Y-140044649D01*
X76566533Y-139711316D02*
X75866533Y-139711316D01*
X75866533Y-139711316D02*
X75866533Y-139544649D01*
X75866533Y-139544649D02*
X75899866Y-139444649D01*
X75899866Y-139444649D02*
X75966533Y-139377983D01*
X75966533Y-139377983D02*
X76033200Y-139344649D01*
X76033200Y-139344649D02*
X76166533Y-139311316D01*
X76166533Y-139311316D02*
X76266533Y-139311316D01*
X76266533Y-139311316D02*
X76399866Y-139344649D01*
X76399866Y-139344649D02*
X76466533Y-139377983D01*
X76466533Y-139377983D02*
X76533200Y-139444649D01*
X76533200Y-139444649D02*
X76566533Y-139544649D01*
X76566533Y-139544649D02*
X76566533Y-139711316D01*
X68966533Y-141244649D02*
X68266533Y-141244649D01*
X68966533Y-140911316D02*
X68266533Y-140911316D01*
X68266533Y-140911316D02*
X68966533Y-140511316D01*
X68966533Y-140511316D02*
X68266533Y-140511316D01*
X68266533Y-140277983D02*
X68266533Y-139877983D01*
X68966533Y-140077983D02*
X68266533Y-140077983D01*
X129859580Y-142406666D02*
X129907200Y-142454285D01*
X129907200Y-142454285D02*
X129954819Y-142597142D01*
X129954819Y-142597142D02*
X129954819Y-142692380D01*
X129954819Y-142692380D02*
X129907200Y-142835237D01*
X129907200Y-142835237D02*
X129811961Y-142930475D01*
X129811961Y-142930475D02*
X129716723Y-142978094D01*
X129716723Y-142978094D02*
X129526247Y-143025713D01*
X129526247Y-143025713D02*
X129383390Y-143025713D01*
X129383390Y-143025713D02*
X129192914Y-142978094D01*
X129192914Y-142978094D02*
X129097676Y-142930475D01*
X129097676Y-142930475D02*
X129002438Y-142835237D01*
X129002438Y-142835237D02*
X128954819Y-142692380D01*
X128954819Y-142692380D02*
X128954819Y-142597142D01*
X128954819Y-142597142D02*
X129002438Y-142454285D01*
X129002438Y-142454285D02*
X129050057Y-142406666D01*
X128954819Y-142073332D02*
X128954819Y-141454285D01*
X128954819Y-141454285D02*
X129335771Y-141787618D01*
X129335771Y-141787618D02*
X129335771Y-141644761D01*
X129335771Y-141644761D02*
X129383390Y-141549523D01*
X129383390Y-141549523D02*
X129431009Y-141501904D01*
X129431009Y-141501904D02*
X129526247Y-141454285D01*
X129526247Y-141454285D02*
X129764342Y-141454285D01*
X129764342Y-141454285D02*
X129859580Y-141501904D01*
X129859580Y-141501904D02*
X129907200Y-141549523D01*
X129907200Y-141549523D02*
X129954819Y-141644761D01*
X129954819Y-141644761D02*
X129954819Y-141930475D01*
X129954819Y-141930475D02*
X129907200Y-142025713D01*
X129907200Y-142025713D02*
X129859580Y-142073332D01*
X142214286Y-126454819D02*
X142214286Y-127264342D01*
X142214286Y-127264342D02*
X142261905Y-127359580D01*
X142261905Y-127359580D02*
X142309524Y-127407200D01*
X142309524Y-127407200D02*
X142404762Y-127454819D01*
X142404762Y-127454819D02*
X142595238Y-127454819D01*
X142595238Y-127454819D02*
X142690476Y-127407200D01*
X142690476Y-127407200D02*
X142738095Y-127359580D01*
X142738095Y-127359580D02*
X142785714Y-127264342D01*
X142785714Y-127264342D02*
X142785714Y-126454819D01*
X143261905Y-127454819D02*
X143261905Y-126454819D01*
X143261905Y-126454819D02*
X143642857Y-126454819D01*
X143642857Y-126454819D02*
X143738095Y-126502438D01*
X143738095Y-126502438D02*
X143785714Y-126550057D01*
X143785714Y-126550057D02*
X143833333Y-126645295D01*
X143833333Y-126645295D02*
X143833333Y-126788152D01*
X143833333Y-126788152D02*
X143785714Y-126883390D01*
X143785714Y-126883390D02*
X143738095Y-126931009D01*
X143738095Y-126931009D02*
X143642857Y-126978628D01*
X143642857Y-126978628D02*
X143261905Y-126978628D01*
X128833333Y-106084819D02*
X128500000Y-105608628D01*
X128261905Y-106084819D02*
X128261905Y-105084819D01*
X128261905Y-105084819D02*
X128642857Y-105084819D01*
X128642857Y-105084819D02*
X128738095Y-105132438D01*
X128738095Y-105132438D02*
X128785714Y-105180057D01*
X128785714Y-105180057D02*
X128833333Y-105275295D01*
X128833333Y-105275295D02*
X128833333Y-105418152D01*
X128833333Y-105418152D02*
X128785714Y-105513390D01*
X128785714Y-105513390D02*
X128738095Y-105561009D01*
X128738095Y-105561009D02*
X128642857Y-105608628D01*
X128642857Y-105608628D02*
X128261905Y-105608628D01*
X129690476Y-105418152D02*
X129690476Y-106084819D01*
X129452381Y-105037200D02*
X129214286Y-105751485D01*
X129214286Y-105751485D02*
X129833333Y-105751485D01*
X141676667Y-115584819D02*
X141676667Y-114584819D01*
X141676667Y-114584819D02*
X142010000Y-115299104D01*
X142010000Y-115299104D02*
X142343333Y-114584819D01*
X142343333Y-114584819D02*
X142343333Y-115584819D01*
X142819524Y-115061009D02*
X143152857Y-115061009D01*
X143295714Y-115584819D02*
X142819524Y-115584819D01*
X142819524Y-115584819D02*
X142819524Y-114584819D01*
X142819524Y-114584819D02*
X143295714Y-114584819D01*
X143724286Y-115584819D02*
X143724286Y-114584819D01*
X143724286Y-114584819D02*
X144295714Y-115584819D01*
X144295714Y-115584819D02*
X144295714Y-114584819D01*
X144771905Y-114584819D02*
X144771905Y-115394342D01*
X144771905Y-115394342D02*
X144819524Y-115489580D01*
X144819524Y-115489580D02*
X144867143Y-115537200D01*
X144867143Y-115537200D02*
X144962381Y-115584819D01*
X144962381Y-115584819D02*
X145152857Y-115584819D01*
X145152857Y-115584819D02*
X145248095Y-115537200D01*
X145248095Y-115537200D02*
X145295714Y-115489580D01*
X145295714Y-115489580D02*
X145343333Y-115394342D01*
X145343333Y-115394342D02*
X145343333Y-114584819D01*
X137444819Y-130976666D02*
X136968628Y-131309999D01*
X137444819Y-131548094D02*
X136444819Y-131548094D01*
X136444819Y-131548094D02*
X136444819Y-131167142D01*
X136444819Y-131167142D02*
X136492438Y-131071904D01*
X136492438Y-131071904D02*
X136540057Y-131024285D01*
X136540057Y-131024285D02*
X136635295Y-130976666D01*
X136635295Y-130976666D02*
X136778152Y-130976666D01*
X136778152Y-130976666D02*
X136873390Y-131024285D01*
X136873390Y-131024285D02*
X136921009Y-131071904D01*
X136921009Y-131071904D02*
X136968628Y-131167142D01*
X136968628Y-131167142D02*
X136968628Y-131548094D01*
X136540057Y-130595713D02*
X136492438Y-130548094D01*
X136492438Y-130548094D02*
X136444819Y-130452856D01*
X136444819Y-130452856D02*
X136444819Y-130214761D01*
X136444819Y-130214761D02*
X136492438Y-130119523D01*
X136492438Y-130119523D02*
X136540057Y-130071904D01*
X136540057Y-130071904D02*
X136635295Y-130024285D01*
X136635295Y-130024285D02*
X136730533Y-130024285D01*
X136730533Y-130024285D02*
X136873390Y-130071904D01*
X136873390Y-130071904D02*
X137444819Y-130643332D01*
X137444819Y-130643332D02*
X137444819Y-130024285D01*
X124859580Y-119546666D02*
X124907200Y-119594285D01*
X124907200Y-119594285D02*
X124954819Y-119737142D01*
X124954819Y-119737142D02*
X124954819Y-119832380D01*
X124954819Y-119832380D02*
X124907200Y-119975237D01*
X124907200Y-119975237D02*
X124811961Y-120070475D01*
X124811961Y-120070475D02*
X124716723Y-120118094D01*
X124716723Y-120118094D02*
X124526247Y-120165713D01*
X124526247Y-120165713D02*
X124383390Y-120165713D01*
X124383390Y-120165713D02*
X124192914Y-120118094D01*
X124192914Y-120118094D02*
X124097676Y-120070475D01*
X124097676Y-120070475D02*
X124002438Y-119975237D01*
X124002438Y-119975237D02*
X123954819Y-119832380D01*
X123954819Y-119832380D02*
X123954819Y-119737142D01*
X123954819Y-119737142D02*
X124002438Y-119594285D01*
X124002438Y-119594285D02*
X124050057Y-119546666D01*
X124954819Y-118594285D02*
X124954819Y-119165713D01*
X124954819Y-118879999D02*
X123954819Y-118879999D01*
X123954819Y-118879999D02*
X124097676Y-118975237D01*
X124097676Y-118975237D02*
X124192914Y-119070475D01*
X124192914Y-119070475D02*
X124240533Y-119165713D01*
X132704819Y-142406666D02*
X132228628Y-142739999D01*
X132704819Y-142978094D02*
X131704819Y-142978094D01*
X131704819Y-142978094D02*
X131704819Y-142597142D01*
X131704819Y-142597142D02*
X131752438Y-142501904D01*
X131752438Y-142501904D02*
X131800057Y-142454285D01*
X131800057Y-142454285D02*
X131895295Y-142406666D01*
X131895295Y-142406666D02*
X132038152Y-142406666D01*
X132038152Y-142406666D02*
X132133390Y-142454285D01*
X132133390Y-142454285D02*
X132181009Y-142501904D01*
X132181009Y-142501904D02*
X132228628Y-142597142D01*
X132228628Y-142597142D02*
X132228628Y-142978094D01*
X131704819Y-142073332D02*
X131704819Y-141454285D01*
X131704819Y-141454285D02*
X132085771Y-141787618D01*
X132085771Y-141787618D02*
X132085771Y-141644761D01*
X132085771Y-141644761D02*
X132133390Y-141549523D01*
X132133390Y-141549523D02*
X132181009Y-141501904D01*
X132181009Y-141501904D02*
X132276247Y-141454285D01*
X132276247Y-141454285D02*
X132514342Y-141454285D01*
X132514342Y-141454285D02*
X132609580Y-141501904D01*
X132609580Y-141501904D02*
X132657200Y-141549523D01*
X132657200Y-141549523D02*
X132704819Y-141644761D01*
X132704819Y-141644761D02*
X132704819Y-141930475D01*
X132704819Y-141930475D02*
X132657200Y-142025713D01*
X132657200Y-142025713D02*
X132609580Y-142073332D01*
X141629048Y-138454819D02*
X141629048Y-137454819D01*
X141629048Y-137454819D02*
X141867143Y-137454819D01*
X141867143Y-137454819D02*
X142010000Y-137502438D01*
X142010000Y-137502438D02*
X142105238Y-137597676D01*
X142105238Y-137597676D02*
X142152857Y-137692914D01*
X142152857Y-137692914D02*
X142200476Y-137883390D01*
X142200476Y-137883390D02*
X142200476Y-138026247D01*
X142200476Y-138026247D02*
X142152857Y-138216723D01*
X142152857Y-138216723D02*
X142105238Y-138311961D01*
X142105238Y-138311961D02*
X142010000Y-138407200D01*
X142010000Y-138407200D02*
X141867143Y-138454819D01*
X141867143Y-138454819D02*
X141629048Y-138454819D01*
X142819524Y-137454819D02*
X143010000Y-137454819D01*
X143010000Y-137454819D02*
X143105238Y-137502438D01*
X143105238Y-137502438D02*
X143200476Y-137597676D01*
X143200476Y-137597676D02*
X143248095Y-137788152D01*
X143248095Y-137788152D02*
X143248095Y-138121485D01*
X143248095Y-138121485D02*
X143200476Y-138311961D01*
X143200476Y-138311961D02*
X143105238Y-138407200D01*
X143105238Y-138407200D02*
X143010000Y-138454819D01*
X143010000Y-138454819D02*
X142819524Y-138454819D01*
X142819524Y-138454819D02*
X142724286Y-138407200D01*
X142724286Y-138407200D02*
X142629048Y-138311961D01*
X142629048Y-138311961D02*
X142581429Y-138121485D01*
X142581429Y-138121485D02*
X142581429Y-137788152D01*
X142581429Y-137788152D02*
X142629048Y-137597676D01*
X142629048Y-137597676D02*
X142724286Y-137502438D01*
X142724286Y-137502438D02*
X142819524Y-137454819D01*
X143581429Y-137454819D02*
X143819524Y-138454819D01*
X143819524Y-138454819D02*
X144010000Y-137740533D01*
X144010000Y-137740533D02*
X144200476Y-138454819D01*
X144200476Y-138454819D02*
X144438572Y-137454819D01*
X144819524Y-138454819D02*
X144819524Y-137454819D01*
X144819524Y-137454819D02*
X145390952Y-138454819D01*
X145390952Y-138454819D02*
X145390952Y-137454819D01*
X142127143Y-112129104D02*
X142603333Y-112129104D01*
X142031905Y-112414819D02*
X142365238Y-111414819D01*
X142365238Y-111414819D02*
X142698571Y-112414819D01*
X143508095Y-112414819D02*
X143031905Y-112414819D01*
X143031905Y-112414819D02*
X143031905Y-111414819D01*
X143793810Y-112129104D02*
X144270000Y-112129104D01*
X143698572Y-112414819D02*
X144031905Y-111414819D01*
X144031905Y-111414819D02*
X144365238Y-112414819D01*
X145270000Y-112414819D02*
X144936667Y-111938628D01*
X144698572Y-112414819D02*
X144698572Y-111414819D01*
X144698572Y-111414819D02*
X145079524Y-111414819D01*
X145079524Y-111414819D02*
X145174762Y-111462438D01*
X145174762Y-111462438D02*
X145222381Y-111510057D01*
X145222381Y-111510057D02*
X145270000Y-111605295D01*
X145270000Y-111605295D02*
X145270000Y-111748152D01*
X145270000Y-111748152D02*
X145222381Y-111843390D01*
X145222381Y-111843390D02*
X145174762Y-111891009D01*
X145174762Y-111891009D02*
X145079524Y-111938628D01*
X145079524Y-111938628D02*
X144698572Y-111938628D01*
X145698572Y-112414819D02*
X145698572Y-111414819D01*
X145698572Y-111414819D02*
X146031905Y-112129104D01*
X146031905Y-112129104D02*
X146365238Y-111414819D01*
X146365238Y-111414819D02*
X146365238Y-112414819D01*
X129859580Y-130976666D02*
X129907200Y-131024285D01*
X129907200Y-131024285D02*
X129954819Y-131167142D01*
X129954819Y-131167142D02*
X129954819Y-131262380D01*
X129954819Y-131262380D02*
X129907200Y-131405237D01*
X129907200Y-131405237D02*
X129811961Y-131500475D01*
X129811961Y-131500475D02*
X129716723Y-131548094D01*
X129716723Y-131548094D02*
X129526247Y-131595713D01*
X129526247Y-131595713D02*
X129383390Y-131595713D01*
X129383390Y-131595713D02*
X129192914Y-131548094D01*
X129192914Y-131548094D02*
X129097676Y-131500475D01*
X129097676Y-131500475D02*
X129002438Y-131405237D01*
X129002438Y-131405237D02*
X128954819Y-131262380D01*
X128954819Y-131262380D02*
X128954819Y-131167142D01*
X128954819Y-131167142D02*
X129002438Y-131024285D01*
X129002438Y-131024285D02*
X129050057Y-130976666D01*
X129050057Y-130595713D02*
X129002438Y-130548094D01*
X129002438Y-130548094D02*
X128954819Y-130452856D01*
X128954819Y-130452856D02*
X128954819Y-130214761D01*
X128954819Y-130214761D02*
X129002438Y-130119523D01*
X129002438Y-130119523D02*
X129050057Y-130071904D01*
X129050057Y-130071904D02*
X129145295Y-130024285D01*
X129145295Y-130024285D02*
X129240533Y-130024285D01*
X129240533Y-130024285D02*
X129383390Y-130071904D01*
X129383390Y-130071904D02*
X129954819Y-130643332D01*
X129954819Y-130643332D02*
X129954819Y-130024285D01*
X137444819Y-119546666D02*
X136968628Y-119879999D01*
X137444819Y-120118094D02*
X136444819Y-120118094D01*
X136444819Y-120118094D02*
X136444819Y-119737142D01*
X136444819Y-119737142D02*
X136492438Y-119641904D01*
X136492438Y-119641904D02*
X136540057Y-119594285D01*
X136540057Y-119594285D02*
X136635295Y-119546666D01*
X136635295Y-119546666D02*
X136778152Y-119546666D01*
X136778152Y-119546666D02*
X136873390Y-119594285D01*
X136873390Y-119594285D02*
X136921009Y-119641904D01*
X136921009Y-119641904D02*
X136968628Y-119737142D01*
X136968628Y-119737142D02*
X136968628Y-120118094D01*
X137444819Y-118594285D02*
X137444819Y-119165713D01*
X137444819Y-118879999D02*
X136444819Y-118879999D01*
X136444819Y-118879999D02*
X136587676Y-118975237D01*
X136587676Y-118975237D02*
X136682914Y-119070475D01*
X136682914Y-119070475D02*
X136730533Y-119165713D01*
X111045714Y-151299104D02*
X111521904Y-151299104D01*
X110950476Y-151584819D02*
X111283809Y-150584819D01*
X111283809Y-150584819D02*
X111617142Y-151584819D01*
X112474285Y-151584819D02*
X111902857Y-151584819D01*
X112188571Y-151584819D02*
X112188571Y-150584819D01*
X112188571Y-150584819D02*
X112093333Y-150727676D01*
X112093333Y-150727676D02*
X111998095Y-150822914D01*
X111998095Y-150822914D02*
X111902857Y-150870533D01*
X113021904Y-111035180D02*
X113021904Y-110225657D01*
X113021904Y-110225657D02*
X112974285Y-110130419D01*
X112974285Y-110130419D02*
X112926666Y-110082800D01*
X112926666Y-110082800D02*
X112831428Y-110035180D01*
X112831428Y-110035180D02*
X112640952Y-110035180D01*
X112640952Y-110035180D02*
X112545714Y-110082800D01*
X112545714Y-110082800D02*
X112498095Y-110130419D01*
X112498095Y-110130419D02*
X112450476Y-110225657D01*
X112450476Y-110225657D02*
X112450476Y-111035180D01*
X112021904Y-110082800D02*
X111879047Y-110035180D01*
X111879047Y-110035180D02*
X111640952Y-110035180D01*
X111640952Y-110035180D02*
X111545714Y-110082800D01*
X111545714Y-110082800D02*
X111498095Y-110130419D01*
X111498095Y-110130419D02*
X111450476Y-110225657D01*
X111450476Y-110225657D02*
X111450476Y-110320895D01*
X111450476Y-110320895D02*
X111498095Y-110416133D01*
X111498095Y-110416133D02*
X111545714Y-110463752D01*
X111545714Y-110463752D02*
X111640952Y-110511371D01*
X111640952Y-110511371D02*
X111831428Y-110558990D01*
X111831428Y-110558990D02*
X111926666Y-110606609D01*
X111926666Y-110606609D02*
X111974285Y-110654228D01*
X111974285Y-110654228D02*
X112021904Y-110749466D01*
X112021904Y-110749466D02*
X112021904Y-110844704D01*
X112021904Y-110844704D02*
X111974285Y-110939942D01*
X111974285Y-110939942D02*
X111926666Y-110987561D01*
X111926666Y-110987561D02*
X111831428Y-111035180D01*
X111831428Y-111035180D02*
X111593333Y-111035180D01*
X111593333Y-111035180D02*
X111450476Y-110987561D01*
X110688571Y-110558990D02*
X110545714Y-110511371D01*
X110545714Y-110511371D02*
X110498095Y-110463752D01*
X110498095Y-110463752D02*
X110450476Y-110368514D01*
X110450476Y-110368514D02*
X110450476Y-110225657D01*
X110450476Y-110225657D02*
X110498095Y-110130419D01*
X110498095Y-110130419D02*
X110545714Y-110082800D01*
X110545714Y-110082800D02*
X110640952Y-110035180D01*
X110640952Y-110035180D02*
X111021904Y-110035180D01*
X111021904Y-110035180D02*
X111021904Y-111035180D01*
X111021904Y-111035180D02*
X110688571Y-111035180D01*
X110688571Y-111035180D02*
X110593333Y-110987561D01*
X110593333Y-110987561D02*
X110545714Y-110939942D01*
X110545714Y-110939942D02*
X110498095Y-110844704D01*
X110498095Y-110844704D02*
X110498095Y-110749466D01*
X110498095Y-110749466D02*
X110545714Y-110654228D01*
X110545714Y-110654228D02*
X110593333Y-110606609D01*
X110593333Y-110606609D02*
X110688571Y-110558990D01*
X110688571Y-110558990D02*
X111021904Y-110558990D01*
D12*
X66010000Y-103840000D02*
X94010000Y-103840000D01*
X66010000Y-131840000D02*
X66010000Y-103840000D01*
X94010000Y-103840000D02*
X94010000Y-131840000D01*
X94010000Y-131840000D02*
X66010000Y-131840000D01*
X66010000Y-103840000D02*
X94010000Y-103840000D01*
X94010000Y-131840000D01*
X66010000Y-131840000D01*
X66010000Y-103840000D01*
X80660000Y-150510000D02*
X66660000Y-150510000D01*
X80660000Y-136510000D02*
X80660000Y-150510000D01*
X66660000Y-150510000D02*
X66660000Y-136510000D01*
X66660000Y-136510000D02*
X80660000Y-136510000D01*
D13*
X125630000Y-139770000D02*
X125960000Y-139770000D01*
X125630000Y-144710000D02*
X125630000Y-139770000D01*
X125960000Y-144710000D02*
X125630000Y-144710000D01*
X128040000Y-139770000D02*
X128370000Y-139770000D01*
X128370000Y-139770000D02*
X128370000Y-144710000D01*
X128370000Y-144710000D02*
X128040000Y-144710000D01*
X140010000Y-130060000D02*
X140010000Y-131560000D01*
X141260000Y-134060000D02*
X145760000Y-134060000D01*
X145760000Y-127560000D02*
X141260000Y-127560000D01*
X147010000Y-131560000D02*
X147010000Y-130060000D01*
X125730000Y-106630000D02*
X132270000Y-106630000D01*
X125730000Y-106960000D02*
X125730000Y-106630000D01*
X125730000Y-109040000D02*
X125730000Y-109370000D01*
X125730000Y-109370000D02*
X132270000Y-109370000D01*
X132270000Y-106630000D02*
X132270000Y-106960000D01*
X132270000Y-109370000D02*
X132270000Y-109040000D01*
X140010000Y-118630000D02*
X140010000Y-120130000D01*
X141260000Y-122630000D02*
X145760000Y-122630000D01*
X145760000Y-116130000D02*
X141260000Y-116130000D01*
X147010000Y-120130000D02*
X147010000Y-118630000D01*
X133250000Y-127540000D02*
X133250000Y-134080000D01*
X133250000Y-134080000D02*
X133580000Y-134080000D01*
X133580000Y-127540000D02*
X133250000Y-127540000D01*
X135660000Y-127540000D02*
X135990000Y-127540000D01*
X135990000Y-127540000D02*
X135990000Y-134080000D01*
X135990000Y-134080000D02*
X135660000Y-134080000D01*
X125630000Y-116910000D02*
X125960000Y-116910000D01*
X125630000Y-121850000D02*
X125630000Y-116910000D01*
X125960000Y-121850000D02*
X125630000Y-121850000D01*
X128040000Y-116910000D02*
X128370000Y-116910000D01*
X128370000Y-116910000D02*
X128370000Y-121850000D01*
X128370000Y-121850000D02*
X128040000Y-121850000D01*
X133250000Y-138970000D02*
X133580000Y-138970000D01*
X133250000Y-145510000D02*
X133250000Y-138970000D01*
X133580000Y-145510000D02*
X133250000Y-145510000D01*
X135660000Y-145510000D02*
X135990000Y-145510000D01*
X135990000Y-138970000D02*
X135660000Y-138970000D01*
X135990000Y-145510000D02*
X135990000Y-138970000D01*
X140010000Y-141490000D02*
X140010000Y-142990000D01*
X141260000Y-145490000D02*
X145760000Y-145490000D01*
X145760000Y-138990000D02*
X141260000Y-138990000D01*
X147010000Y-142990000D02*
X147010000Y-141490000D01*
X146830000Y-109545000D02*
X146830000Y-106455000D01*
X141280000Y-108000000D02*
G75*
G02*
X146830000Y-106455170I2990000J0D01*
G01*
X146830000Y-109544830D02*
G75*
G02*
X141280000Y-108000000I-2560000J1544830D01*
G01*
X146770000Y-108000000D02*
G75*
G02*
X141770000Y-108000000I-2500000J0D01*
G01*
X141770000Y-108000000D02*
G75*
G02*
X146770000Y-108000000I2500000J0D01*
G01*
X125630000Y-128340000D02*
X125960000Y-128340000D01*
X125630000Y-133280000D02*
X125630000Y-128340000D01*
X125960000Y-133280000D02*
X125630000Y-133280000D01*
X128040000Y-128340000D02*
X128370000Y-128340000D01*
X128370000Y-128340000D02*
X128370000Y-133280000D01*
X128370000Y-133280000D02*
X128040000Y-133280000D01*
X133250000Y-116110000D02*
X133250000Y-122650000D01*
X133250000Y-122650000D02*
X133580000Y-122650000D01*
X133580000Y-116110000D02*
X133250000Y-116110000D01*
X135660000Y-116110000D02*
X135990000Y-116110000D01*
X135990000Y-116110000D02*
X135990000Y-122650000D01*
X135990000Y-122650000D02*
X135660000Y-122650000D01*
X102740000Y-106550000D02*
X102740000Y-149990000D01*
X102740000Y-106550000D02*
X107820000Y-106550000D01*
X102740000Y-149990000D02*
X120780000Y-149990000D01*
X105410000Y-109220000D02*
X102740000Y-109220000D01*
X105410000Y-147320000D02*
X102740000Y-147320000D01*
X105410000Y-147320000D02*
X105410000Y-109220000D01*
X107820000Y-104010000D02*
X115700000Y-104010000D01*
X107820000Y-114430000D02*
X107820000Y-104010000D01*
X115700000Y-104010000D02*
X115700000Y-114430000D01*
X115700000Y-114430000D02*
X107820000Y-114430000D01*
X118110000Y-109220000D02*
X120780000Y-109220000D01*
X118110000Y-144780000D02*
X118110000Y-109220000D01*
X118110000Y-144780000D02*
X118110000Y-147320000D01*
X118110000Y-144780000D02*
X120780000Y-144780000D01*
X118110000Y-147320000D02*
X120780000Y-147320000D01*
X120780000Y-106550000D02*
X115700000Y-106550000D01*
X120780000Y-144780000D02*
X120780000Y-106550000D01*
X120780000Y-149990000D02*
X120780000Y-147320000D01*
%LPC*%
G36*
X120180000Y-146850000D02*
G01*
X118580000Y-146850000D01*
X118580000Y-145250000D01*
X120180000Y-145250000D01*
X120180000Y-146850000D01*
G37*
G36*
X104372228Y-145284448D02*
G01*
X104517117Y-145344463D01*
X104647515Y-145431592D01*
X104758408Y-145542485D01*
X104845537Y-145672883D01*
X104905552Y-145817772D01*
X104936148Y-145971586D01*
X104936148Y-146128414D01*
X104905552Y-146282228D01*
X104845537Y-146427117D01*
X104758408Y-146557515D01*
X104647515Y-146668408D01*
X104517117Y-146755537D01*
X104372228Y-146815552D01*
X104218414Y-146846148D01*
X104061586Y-146846148D01*
X103907772Y-146815552D01*
X103762883Y-146755537D01*
X103632485Y-146668408D01*
X103521592Y-146557515D01*
X103434463Y-146427117D01*
X103374448Y-146282228D01*
X103343852Y-146128414D01*
X103343852Y-145971586D01*
X103374448Y-145817772D01*
X103434463Y-145672883D01*
X103521592Y-145542485D01*
X103632485Y-145431592D01*
X103762883Y-145344463D01*
X103907772Y-145284448D01*
X104061586Y-145253852D01*
X104218414Y-145253852D01*
X104372228Y-145284448D01*
G37*
G36*
X134852228Y-145284448D02*
G01*
X134997117Y-145344463D01*
X135127515Y-145431592D01*
X135238408Y-145542485D01*
X135325537Y-145672883D01*
X135385552Y-145817772D01*
X135416148Y-145971586D01*
X135416148Y-146128414D01*
X135385552Y-146282228D01*
X135325537Y-146427117D01*
X135238408Y-146557515D01*
X135127515Y-146668408D01*
X134997117Y-146755537D01*
X134852228Y-146815552D01*
X134698414Y-146846148D01*
X134541586Y-146846148D01*
X134387772Y-146815552D01*
X134242883Y-146755537D01*
X134112485Y-146668408D01*
X134001592Y-146557515D01*
X133914463Y-146427117D01*
X133854448Y-146282228D01*
X133823852Y-146128414D01*
X133823852Y-145971586D01*
X133854448Y-145817772D01*
X133914463Y-145672883D01*
X134001592Y-145542485D01*
X134112485Y-145431592D01*
X134242883Y-145344463D01*
X134387772Y-145284448D01*
X134541586Y-145253852D01*
X134698414Y-145253852D01*
X134852228Y-145284448D01*
G37*
G36*
X127232228Y-143974448D02*
G01*
X127377117Y-144034463D01*
X127507515Y-144121592D01*
X127618408Y-144232485D01*
X127705537Y-144362883D01*
X127765552Y-144507772D01*
X127796148Y-144661586D01*
X127796148Y-144818414D01*
X127765552Y-144972228D01*
X127705537Y-145117117D01*
X127618408Y-145247515D01*
X127507515Y-145358408D01*
X127377117Y-145445537D01*
X127232228Y-145505552D01*
X127078414Y-145536148D01*
X126921586Y-145536148D01*
X126767772Y-145505552D01*
X126622883Y-145445537D01*
X126492485Y-145358408D01*
X126381592Y-145247515D01*
X126294463Y-145117117D01*
X126234448Y-144972228D01*
X126203852Y-144818414D01*
X126203852Y-144661586D01*
X126234448Y-144507772D01*
X126294463Y-144362883D01*
X126381592Y-144232485D01*
X126492485Y-144121592D01*
X126622883Y-144034463D01*
X126767772Y-143974448D01*
X126921586Y-143943852D01*
X127078414Y-143943852D01*
X127232228Y-143974448D01*
G37*
G36*
X140550285Y-143533060D02*
G01*
X140731397Y-143608079D01*
X140894393Y-143716990D01*
X141033010Y-143855607D01*
X141141921Y-144018603D01*
X141216940Y-144199715D01*
X141255185Y-144391983D01*
X141255185Y-144588017D01*
X141216940Y-144780285D01*
X141141921Y-144961397D01*
X141033010Y-145124393D01*
X140894393Y-145263010D01*
X140731397Y-145371921D01*
X140550285Y-145446940D01*
X140358017Y-145485185D01*
X140161983Y-145485185D01*
X139969715Y-145446940D01*
X139788603Y-145371921D01*
X139625607Y-145263010D01*
X139486990Y-145124393D01*
X139378079Y-144961397D01*
X139303060Y-144780285D01*
X139264815Y-144588017D01*
X139264815Y-144391983D01*
X139303060Y-144199715D01*
X139378079Y-144018603D01*
X139486990Y-143855607D01*
X139625607Y-143716990D01*
X139788603Y-143608079D01*
X139969715Y-143533060D01*
X140161983Y-143494815D01*
X140358017Y-143494815D01*
X140550285Y-143533060D01*
G37*
G36*
X147050285Y-143533060D02*
G01*
X147231397Y-143608079D01*
X147394393Y-143716990D01*
X147533010Y-143855607D01*
X147641921Y-144018603D01*
X147716940Y-144199715D01*
X147755185Y-144391983D01*
X147755185Y-144588017D01*
X147716940Y-144780285D01*
X147641921Y-144961397D01*
X147533010Y-145124393D01*
X147394393Y-145263010D01*
X147231397Y-145371921D01*
X147050285Y-145446940D01*
X146858017Y-145485185D01*
X146661983Y-145485185D01*
X146469715Y-145446940D01*
X146288603Y-145371921D01*
X146125607Y-145263010D01*
X145986990Y-145124393D01*
X145878079Y-144961397D01*
X145803060Y-144780285D01*
X145764815Y-144588017D01*
X145764815Y-144391983D01*
X145803060Y-144199715D01*
X145878079Y-144018603D01*
X145986990Y-143855607D01*
X146125607Y-143716990D01*
X146288603Y-143608079D01*
X146469715Y-143533060D01*
X146661983Y-143494815D01*
X146858017Y-143494815D01*
X147050285Y-143533060D01*
G37*
G36*
X104372228Y-142744448D02*
G01*
X104517117Y-142804463D01*
X104647515Y-142891592D01*
X104758408Y-143002485D01*
X104845537Y-143132883D01*
X104905552Y-143277772D01*
X104936148Y-143431586D01*
X104936148Y-143588414D01*
X104905552Y-143742228D01*
X104845537Y-143887117D01*
X104758408Y-144017515D01*
X104647515Y-144128408D01*
X104517117Y-144215537D01*
X104372228Y-144275552D01*
X104218414Y-144306148D01*
X104061586Y-144306148D01*
X103907772Y-144275552D01*
X103762883Y-144215537D01*
X103632485Y-144128408D01*
X103521592Y-144017515D01*
X103434463Y-143887117D01*
X103374448Y-143742228D01*
X103343852Y-143588414D01*
X103343852Y-143431586D01*
X103374448Y-143277772D01*
X103434463Y-143132883D01*
X103521592Y-143002485D01*
X103632485Y-142891592D01*
X103762883Y-142804463D01*
X103907772Y-142744448D01*
X104061586Y-142713852D01*
X104218414Y-142713852D01*
X104372228Y-142744448D01*
G37*
G36*
X119612228Y-142744448D02*
G01*
X119757117Y-142804463D01*
X119887515Y-142891592D01*
X119998408Y-143002485D01*
X120085537Y-143132883D01*
X120145552Y-143277772D01*
X120176148Y-143431586D01*
X120176148Y-143588414D01*
X120145552Y-143742228D01*
X120085537Y-143887117D01*
X119998408Y-144017515D01*
X119887515Y-144128408D01*
X119757117Y-144215537D01*
X119612228Y-144275552D01*
X119458414Y-144306148D01*
X119301586Y-144306148D01*
X119147772Y-144275552D01*
X119002883Y-144215537D01*
X118872485Y-144128408D01*
X118761592Y-144017515D01*
X118674463Y-143887117D01*
X118614448Y-143742228D01*
X118583852Y-143588414D01*
X118583852Y-143431586D01*
X118614448Y-143277772D01*
X118674463Y-143132883D01*
X118761592Y-143002485D01*
X118872485Y-142891592D01*
X119002883Y-142804463D01*
X119147772Y-142744448D01*
X119301586Y-142713852D01*
X119458414Y-142713852D01*
X119612228Y-142744448D01*
G37*
G36*
X104372228Y-140204448D02*
G01*
X104517117Y-140264463D01*
X104647515Y-140351592D01*
X104758408Y-140462485D01*
X104845537Y-140592883D01*
X104905552Y-140737772D01*
X104936148Y-140891586D01*
X104936148Y-141048414D01*
X104905552Y-141202228D01*
X104845537Y-141347117D01*
X104758408Y-141477515D01*
X104647515Y-141588408D01*
X104517117Y-141675537D01*
X104372228Y-141735552D01*
X104218414Y-141766148D01*
X104061586Y-141766148D01*
X103907772Y-141735552D01*
X103762883Y-141675537D01*
X103632485Y-141588408D01*
X103521592Y-141477515D01*
X103434463Y-141347117D01*
X103374448Y-141202228D01*
X103343852Y-141048414D01*
X103343852Y-140891586D01*
X103374448Y-140737772D01*
X103434463Y-140592883D01*
X103521592Y-140462485D01*
X103632485Y-140351592D01*
X103762883Y-140264463D01*
X103907772Y-140204448D01*
X104061586Y-140173852D01*
X104218414Y-140173852D01*
X104372228Y-140204448D01*
G37*
G36*
X119612228Y-140204448D02*
G01*
X119757117Y-140264463D01*
X119887515Y-140351592D01*
X119998408Y-140462485D01*
X120085537Y-140592883D01*
X120145552Y-140737772D01*
X120176148Y-140891586D01*
X120176148Y-141048414D01*
X120145552Y-141202228D01*
X120085537Y-141347117D01*
X119998408Y-141477515D01*
X119887515Y-141588408D01*
X119757117Y-141675537D01*
X119612228Y-141735552D01*
X119458414Y-141766148D01*
X119301586Y-141766148D01*
X119147772Y-141735552D01*
X119002883Y-141675537D01*
X118872485Y-141588408D01*
X118761592Y-141477515D01*
X118674463Y-141347117D01*
X118614448Y-141202228D01*
X118583852Y-141048414D01*
X118583852Y-140891586D01*
X118614448Y-140737772D01*
X118674463Y-140592883D01*
X118761592Y-140462485D01*
X118872485Y-140351592D01*
X119002883Y-140264463D01*
X119147772Y-140204448D01*
X119301586Y-140173852D01*
X119458414Y-140173852D01*
X119612228Y-140204448D01*
G37*
G36*
X140550285Y-139033060D02*
G01*
X140731397Y-139108079D01*
X140894393Y-139216990D01*
X141033010Y-139355607D01*
X141141921Y-139518603D01*
X141216940Y-139699715D01*
X141255185Y-139891983D01*
X141255185Y-140088017D01*
X141216940Y-140280285D01*
X141141921Y-140461397D01*
X141033010Y-140624393D01*
X140894393Y-140763010D01*
X140731397Y-140871921D01*
X140550285Y-140946940D01*
X140358017Y-140985185D01*
X140161983Y-140985185D01*
X139969715Y-140946940D01*
X139788603Y-140871921D01*
X139625607Y-140763010D01*
X139486990Y-140624393D01*
X139378079Y-140461397D01*
X139303060Y-140280285D01*
X139264815Y-140088017D01*
X139264815Y-139891983D01*
X139303060Y-139699715D01*
X139378079Y-139518603D01*
X139486990Y-139355607D01*
X139625607Y-139216990D01*
X139788603Y-139108079D01*
X139969715Y-139033060D01*
X140161983Y-138994815D01*
X140358017Y-138994815D01*
X140550285Y-139033060D01*
G37*
G36*
X147050285Y-139033060D02*
G01*
X147231397Y-139108079D01*
X147394393Y-139216990D01*
X147533010Y-139355607D01*
X147641921Y-139518603D01*
X147716940Y-139699715D01*
X147755185Y-139891983D01*
X147755185Y-140088017D01*
X147716940Y-140280285D01*
X147641921Y-140461397D01*
X147533010Y-140624393D01*
X147394393Y-140763010D01*
X147231397Y-140871921D01*
X147050285Y-140946940D01*
X146858017Y-140985185D01*
X146661983Y-140985185D01*
X146469715Y-140946940D01*
X146288603Y-140871921D01*
X146125607Y-140763010D01*
X145986990Y-140624393D01*
X145878079Y-140461397D01*
X145803060Y-140280285D01*
X145764815Y-140088017D01*
X145764815Y-139891983D01*
X145803060Y-139699715D01*
X145878079Y-139518603D01*
X145986990Y-139355607D01*
X146125607Y-139216990D01*
X146288603Y-139108079D01*
X146469715Y-139033060D01*
X146661983Y-138994815D01*
X146858017Y-138994815D01*
X147050285Y-139033060D01*
G37*
G36*
X127232228Y-138974448D02*
G01*
X127377117Y-139034463D01*
X127507515Y-139121592D01*
X127618408Y-139232485D01*
X127705537Y-139362883D01*
X127765552Y-139507772D01*
X127796148Y-139661586D01*
X127796148Y-139818414D01*
X127765552Y-139972228D01*
X127705537Y-140117117D01*
X127618408Y-140247515D01*
X127507515Y-140358408D01*
X127377117Y-140445537D01*
X127232228Y-140505552D01*
X127078414Y-140536148D01*
X126921586Y-140536148D01*
X126767772Y-140505552D01*
X126622883Y-140445537D01*
X126492485Y-140358408D01*
X126381592Y-140247515D01*
X126294463Y-140117117D01*
X126234448Y-139972228D01*
X126203852Y-139818414D01*
X126203852Y-139661586D01*
X126234448Y-139507772D01*
X126294463Y-139362883D01*
X126381592Y-139232485D01*
X126492485Y-139121592D01*
X126622883Y-139034463D01*
X126767772Y-138974448D01*
X126921586Y-138943852D01*
X127078414Y-138943852D01*
X127232228Y-138974448D01*
G37*
G36*
X104372228Y-137664448D02*
G01*
X104517117Y-137724463D01*
X104647515Y-137811592D01*
X104758408Y-137922485D01*
X104845537Y-138052883D01*
X104905552Y-138197772D01*
X104936148Y-138351586D01*
X104936148Y-138508414D01*
X104905552Y-138662228D01*
X104845537Y-138807117D01*
X104758408Y-138937515D01*
X104647515Y-139048408D01*
X104517117Y-139135537D01*
X104372228Y-139195552D01*
X104218414Y-139226148D01*
X104061586Y-139226148D01*
X103907772Y-139195552D01*
X103762883Y-139135537D01*
X103632485Y-139048408D01*
X103521592Y-138937515D01*
X103434463Y-138807117D01*
X103374448Y-138662228D01*
X103343852Y-138508414D01*
X103343852Y-138351586D01*
X103374448Y-138197772D01*
X103434463Y-138052883D01*
X103521592Y-137922485D01*
X103632485Y-137811592D01*
X103762883Y-137724463D01*
X103907772Y-137664448D01*
X104061586Y-137633852D01*
X104218414Y-137633852D01*
X104372228Y-137664448D01*
G37*
G36*
X119612228Y-137664448D02*
G01*
X119757117Y-137724463D01*
X119887515Y-137811592D01*
X119998408Y-137922485D01*
X120085537Y-138052883D01*
X120145552Y-138197772D01*
X120176148Y-138351586D01*
X120176148Y-138508414D01*
X120145552Y-138662228D01*
X120085537Y-138807117D01*
X119998408Y-138937515D01*
X119887515Y-139048408D01*
X119757117Y-139135537D01*
X119612228Y-139195552D01*
X119458414Y-139226148D01*
X119301586Y-139226148D01*
X119147772Y-139195552D01*
X119002883Y-139135537D01*
X118872485Y-139048408D01*
X118761592Y-138937515D01*
X118674463Y-138807117D01*
X118614448Y-138662228D01*
X118583852Y-138508414D01*
X118583852Y-138351586D01*
X118614448Y-138197772D01*
X118674463Y-138052883D01*
X118761592Y-137922485D01*
X118872485Y-137811592D01*
X119002883Y-137724463D01*
X119147772Y-137664448D01*
X119301586Y-137633852D01*
X119458414Y-137633852D01*
X119612228Y-137664448D01*
G37*
G36*
X134852228Y-137664448D02*
G01*
X134997117Y-137724463D01*
X135127515Y-137811592D01*
X135238408Y-137922485D01*
X135325537Y-138052883D01*
X135385552Y-138197772D01*
X135416148Y-138351586D01*
X135416148Y-138508414D01*
X135385552Y-138662228D01*
X135325537Y-138807117D01*
X135238408Y-138937515D01*
X135127515Y-139048408D01*
X134997117Y-139135537D01*
X134852228Y-139195552D01*
X134698414Y-139226148D01*
X134541586Y-139226148D01*
X134387772Y-139195552D01*
X134242883Y-139135537D01*
X134112485Y-139048408D01*
X134001592Y-138937515D01*
X133914463Y-138807117D01*
X133854448Y-138662228D01*
X133823852Y-138508414D01*
X133823852Y-138351586D01*
X133854448Y-138197772D01*
X133914463Y-138052883D01*
X134001592Y-137922485D01*
X134112485Y-137811592D01*
X134242883Y-137724463D01*
X134387772Y-137664448D01*
X134541586Y-137633852D01*
X134698414Y-137633852D01*
X134852228Y-137664448D01*
G37*
G36*
X69342000Y-139192000D02*
G01*
X67818000Y-139192000D01*
X67818000Y-137668000D01*
X69342000Y-137668000D01*
X69342000Y-139192000D01*
G37*
G36*
X71341197Y-137700811D02*
G01*
X71479204Y-137757976D01*
X71603408Y-137840966D01*
X71709034Y-137946592D01*
X71792024Y-138070796D01*
X71849189Y-138208803D01*
X71878331Y-138355311D01*
X71878331Y-138504689D01*
X71849189Y-138651197D01*
X71792024Y-138789204D01*
X71709034Y-138913408D01*
X71603408Y-139019034D01*
X71479204Y-139102024D01*
X71341197Y-139159189D01*
X71194689Y-139188331D01*
X71045311Y-139188331D01*
X70898803Y-139159189D01*
X70760796Y-139102024D01*
X70636592Y-139019034D01*
X70530966Y-138913408D01*
X70447976Y-138789204D01*
X70390811Y-138651197D01*
X70361669Y-138504689D01*
X70361669Y-138355311D01*
X70390811Y-138208803D01*
X70447976Y-138070796D01*
X70530966Y-137946592D01*
X70636592Y-137840966D01*
X70760796Y-137757976D01*
X70898803Y-137700811D01*
X71045311Y-137671669D01*
X71194689Y-137671669D01*
X71341197Y-137700811D01*
G37*
G36*
X73881197Y-137700811D02*
G01*
X74019204Y-137757976D01*
X74143408Y-137840966D01*
X74249034Y-137946592D01*
X74332024Y-138070796D01*
X74389189Y-138208803D01*
X74418331Y-138355311D01*
X74418331Y-138504689D01*
X74389189Y-138651197D01*
X74332024Y-138789204D01*
X74249034Y-138913408D01*
X74143408Y-139019034D01*
X74019204Y-139102024D01*
X73881197Y-139159189D01*
X73734689Y-139188331D01*
X73585311Y-139188331D01*
X73438803Y-139159189D01*
X73300796Y-139102024D01*
X73176592Y-139019034D01*
X73070966Y-138913408D01*
X72987976Y-138789204D01*
X72930811Y-138651197D01*
X72901669Y-138504689D01*
X72901669Y-138355311D01*
X72930811Y-138208803D01*
X72987976Y-138070796D01*
X73070966Y-137946592D01*
X73176592Y-137840966D01*
X73300796Y-137757976D01*
X73438803Y-137700811D01*
X73585311Y-137671669D01*
X73734689Y-137671669D01*
X73881197Y-137700811D01*
G37*
G36*
X76421197Y-137700811D02*
G01*
X76559204Y-137757976D01*
X76683408Y-137840966D01*
X76789034Y-137946592D01*
X76872024Y-138070796D01*
X76929189Y-138208803D01*
X76958331Y-138355311D01*
X76958331Y-138504689D01*
X76929189Y-138651197D01*
X76872024Y-138789204D01*
X76789034Y-138913408D01*
X76683408Y-139019034D01*
X76559204Y-139102024D01*
X76421197Y-139159189D01*
X76274689Y-139188331D01*
X76125311Y-139188331D01*
X75978803Y-139159189D01*
X75840796Y-139102024D01*
X75716592Y-139019034D01*
X75610966Y-138913408D01*
X75527976Y-138789204D01*
X75470811Y-138651197D01*
X75441669Y-138504689D01*
X75441669Y-138355311D01*
X75470811Y-138208803D01*
X75527976Y-138070796D01*
X75610966Y-137946592D01*
X75716592Y-137840966D01*
X75840796Y-137757976D01*
X75978803Y-137700811D01*
X76125311Y-137671669D01*
X76274689Y-137671669D01*
X76421197Y-137700811D01*
G37*
G36*
X78961197Y-137700811D02*
G01*
X79099204Y-137757976D01*
X79223408Y-137840966D01*
X79329034Y-137946592D01*
X79412024Y-138070796D01*
X79469189Y-138208803D01*
X79498331Y-138355311D01*
X79498331Y-138504689D01*
X79469189Y-138651197D01*
X79412024Y-138789204D01*
X79329034Y-138913408D01*
X79223408Y-139019034D01*
X79099204Y-139102024D01*
X78961197Y-139159189D01*
X78814689Y-139188331D01*
X78665311Y-139188331D01*
X78518803Y-139159189D01*
X78380796Y-139102024D01*
X78256592Y-139019034D01*
X78150966Y-138913408D01*
X78067976Y-138789204D01*
X78010811Y-138651197D01*
X77981669Y-138504689D01*
X77981669Y-138355311D01*
X78010811Y-138208803D01*
X78067976Y-138070796D01*
X78150966Y-137946592D01*
X78256592Y-137840966D01*
X78380796Y-137757976D01*
X78518803Y-137700811D01*
X78665311Y-137671669D01*
X78814689Y-137671669D01*
X78961197Y-137700811D01*
G37*
G36*
X104372228Y-135124448D02*
G01*
X104517117Y-135184463D01*
X104647515Y-135271592D01*
X104758408Y-135382485D01*
X104845537Y-135512883D01*
X104905552Y-135657772D01*
X104936148Y-135811586D01*
X104936148Y-135968414D01*
X104905552Y-136122228D01*
X104845537Y-136267117D01*
X104758408Y-136397515D01*
X104647515Y-136508408D01*
X104517117Y-136595537D01*
X104372228Y-136655552D01*
X104218414Y-136686148D01*
X104061586Y-136686148D01*
X103907772Y-136655552D01*
X103762883Y-136595537D01*
X103632485Y-136508408D01*
X103521592Y-136397515D01*
X103434463Y-136267117D01*
X103374448Y-136122228D01*
X103343852Y-135968414D01*
X103343852Y-135811586D01*
X103374448Y-135657772D01*
X103434463Y-135512883D01*
X103521592Y-135382485D01*
X103632485Y-135271592D01*
X103762883Y-135184463D01*
X103907772Y-135124448D01*
X104061586Y-135093852D01*
X104218414Y-135093852D01*
X104372228Y-135124448D01*
G37*
G36*
X119612228Y-135124448D02*
G01*
X119757117Y-135184463D01*
X119887515Y-135271592D01*
X119998408Y-135382485D01*
X120085537Y-135512883D01*
X120145552Y-135657772D01*
X120176148Y-135811586D01*
X120176148Y-135968414D01*
X120145552Y-136122228D01*
X120085537Y-136267117D01*
X119998408Y-136397515D01*
X119887515Y-136508408D01*
X119757117Y-136595537D01*
X119612228Y-136655552D01*
X119458414Y-136686148D01*
X119301586Y-136686148D01*
X119147772Y-136655552D01*
X119002883Y-136595537D01*
X118872485Y-136508408D01*
X118761592Y-136397515D01*
X118674463Y-136267117D01*
X118614448Y-136122228D01*
X118583852Y-135968414D01*
X118583852Y-135811586D01*
X118614448Y-135657772D01*
X118674463Y-135512883D01*
X118761592Y-135382485D01*
X118872485Y-135271592D01*
X119002883Y-135184463D01*
X119147772Y-135124448D01*
X119301586Y-135093852D01*
X119458414Y-135093852D01*
X119612228Y-135124448D01*
G37*
G36*
X134852228Y-133854448D02*
G01*
X134997117Y-133914463D01*
X135127515Y-134001592D01*
X135238408Y-134112485D01*
X135325537Y-134242883D01*
X135385552Y-134387772D01*
X135416148Y-134541586D01*
X135416148Y-134698414D01*
X135385552Y-134852228D01*
X135325537Y-134997117D01*
X135238408Y-135127515D01*
X135127515Y-135238408D01*
X134997117Y-135325537D01*
X134852228Y-135385552D01*
X134698414Y-135416148D01*
X134541586Y-135416148D01*
X134387772Y-135385552D01*
X134242883Y-135325537D01*
X134112485Y-135238408D01*
X134001592Y-135127515D01*
X133914463Y-134997117D01*
X133854448Y-134852228D01*
X133823852Y-134698414D01*
X133823852Y-134541586D01*
X133854448Y-134387772D01*
X133914463Y-134242883D01*
X134001592Y-134112485D01*
X134112485Y-134001592D01*
X134242883Y-133914463D01*
X134387772Y-133854448D01*
X134541586Y-133823852D01*
X134698414Y-133823852D01*
X134852228Y-133854448D01*
G37*
G36*
X104372228Y-132584448D02*
G01*
X104517117Y-132644463D01*
X104647515Y-132731592D01*
X104758408Y-132842485D01*
X104845537Y-132972883D01*
X104905552Y-133117772D01*
X104936148Y-133271586D01*
X104936148Y-133428414D01*
X104905552Y-133582228D01*
X104845537Y-133727117D01*
X104758408Y-133857515D01*
X104647515Y-133968408D01*
X104517117Y-134055537D01*
X104372228Y-134115552D01*
X104218414Y-134146148D01*
X104061586Y-134146148D01*
X103907772Y-134115552D01*
X103762883Y-134055537D01*
X103632485Y-133968408D01*
X103521592Y-133857515D01*
X103434463Y-133727117D01*
X103374448Y-133582228D01*
X103343852Y-133428414D01*
X103343852Y-133271586D01*
X103374448Y-133117772D01*
X103434463Y-132972883D01*
X103521592Y-132842485D01*
X103632485Y-132731592D01*
X103762883Y-132644463D01*
X103907772Y-132584448D01*
X104061586Y-132553852D01*
X104218414Y-132553852D01*
X104372228Y-132584448D01*
G37*
G36*
X119612228Y-132584448D02*
G01*
X119757117Y-132644463D01*
X119887515Y-132731592D01*
X119998408Y-132842485D01*
X120085537Y-132972883D01*
X120145552Y-133117772D01*
X120176148Y-133271586D01*
X120176148Y-133428414D01*
X120145552Y-133582228D01*
X120085537Y-133727117D01*
X119998408Y-133857515D01*
X119887515Y-133968408D01*
X119757117Y-134055537D01*
X119612228Y-134115552D01*
X119458414Y-134146148D01*
X119301586Y-134146148D01*
X119147772Y-134115552D01*
X119002883Y-134055537D01*
X118872485Y-133968408D01*
X118761592Y-133857515D01*
X118674463Y-133727117D01*
X118614448Y-133582228D01*
X118583852Y-133428414D01*
X118583852Y-133271586D01*
X118614448Y-133117772D01*
X118674463Y-132972883D01*
X118761592Y-132842485D01*
X118872485Y-132731592D01*
X119002883Y-132644463D01*
X119147772Y-132584448D01*
X119301586Y-132553852D01*
X119458414Y-132553852D01*
X119612228Y-132584448D01*
G37*
G36*
X127232228Y-132544448D02*
G01*
X127377117Y-132604463D01*
X127507515Y-132691592D01*
X127618408Y-132802485D01*
X127705537Y-132932883D01*
X127765552Y-133077772D01*
X127796148Y-133231586D01*
X127796148Y-133388414D01*
X127765552Y-133542228D01*
X127705537Y-133687117D01*
X127618408Y-133817515D01*
X127507515Y-133928408D01*
X127377117Y-134015537D01*
X127232228Y-134075552D01*
X127078414Y-134106148D01*
X126921586Y-134106148D01*
X126767772Y-134075552D01*
X126622883Y-134015537D01*
X126492485Y-133928408D01*
X126381592Y-133817515D01*
X126294463Y-133687117D01*
X126234448Y-133542228D01*
X126203852Y-133388414D01*
X126203852Y-133231586D01*
X126234448Y-133077772D01*
X126294463Y-132932883D01*
X126381592Y-132802485D01*
X126492485Y-132691592D01*
X126622883Y-132604463D01*
X126767772Y-132544448D01*
X126921586Y-132513852D01*
X127078414Y-132513852D01*
X127232228Y-132544448D01*
G37*
G36*
X140550285Y-132103060D02*
G01*
X140731397Y-132178079D01*
X140894393Y-132286990D01*
X141033010Y-132425607D01*
X141141921Y-132588603D01*
X141216940Y-132769715D01*
X141255185Y-132961983D01*
X141255185Y-133158017D01*
X141216940Y-133350285D01*
X141141921Y-133531397D01*
X141033010Y-133694393D01*
X140894393Y-133833010D01*
X140731397Y-133941921D01*
X140550285Y-134016940D01*
X140358017Y-134055185D01*
X140161983Y-134055185D01*
X139969715Y-134016940D01*
X139788603Y-133941921D01*
X139625607Y-133833010D01*
X139486990Y-133694393D01*
X139378079Y-133531397D01*
X139303060Y-133350285D01*
X139264815Y-133158017D01*
X139264815Y-132961983D01*
X139303060Y-132769715D01*
X139378079Y-132588603D01*
X139486990Y-132425607D01*
X139625607Y-132286990D01*
X139788603Y-132178079D01*
X139969715Y-132103060D01*
X140161983Y-132064815D01*
X140358017Y-132064815D01*
X140550285Y-132103060D01*
G37*
G36*
X147050285Y-132103060D02*
G01*
X147231397Y-132178079D01*
X147394393Y-132286990D01*
X147533010Y-132425607D01*
X147641921Y-132588603D01*
X147716940Y-132769715D01*
X147755185Y-132961983D01*
X147755185Y-133158017D01*
X147716940Y-133350285D01*
X147641921Y-133531397D01*
X147533010Y-133694393D01*
X147394393Y-133833010D01*
X147231397Y-133941921D01*
X147050285Y-134016940D01*
X146858017Y-134055185D01*
X146661983Y-134055185D01*
X146469715Y-134016940D01*
X146288603Y-133941921D01*
X146125607Y-133833010D01*
X145986990Y-133694393D01*
X145878079Y-133531397D01*
X145803060Y-133350285D01*
X145764815Y-133158017D01*
X145764815Y-132961983D01*
X145803060Y-132769715D01*
X145878079Y-132588603D01*
X145986990Y-132425607D01*
X146125607Y-132286990D01*
X146288603Y-132178079D01*
X146469715Y-132103060D01*
X146661983Y-132064815D01*
X146858017Y-132064815D01*
X147050285Y-132103060D01*
G37*
G36*
X104372228Y-130044448D02*
G01*
X104517117Y-130104463D01*
X104647515Y-130191592D01*
X104758408Y-130302485D01*
X104845537Y-130432883D01*
X104905552Y-130577772D01*
X104936148Y-130731586D01*
X104936148Y-130888414D01*
X104905552Y-131042228D01*
X104845537Y-131187117D01*
X104758408Y-131317515D01*
X104647515Y-131428408D01*
X104517117Y-131515537D01*
X104372228Y-131575552D01*
X104218414Y-131606148D01*
X104061586Y-131606148D01*
X103907772Y-131575552D01*
X103762883Y-131515537D01*
X103632485Y-131428408D01*
X103521592Y-131317515D01*
X103434463Y-131187117D01*
X103374448Y-131042228D01*
X103343852Y-130888414D01*
X103343852Y-130731586D01*
X103374448Y-130577772D01*
X103434463Y-130432883D01*
X103521592Y-130302485D01*
X103632485Y-130191592D01*
X103762883Y-130104463D01*
X103907772Y-130044448D01*
X104061586Y-130013852D01*
X104218414Y-130013852D01*
X104372228Y-130044448D01*
G37*
G36*
X119612228Y-130044448D02*
G01*
X119757117Y-130104463D01*
X119887515Y-130191592D01*
X119998408Y-130302485D01*
X120085537Y-130432883D01*
X120145552Y-130577772D01*
X120176148Y-130731586D01*
X120176148Y-130888414D01*
X120145552Y-131042228D01*
X120085537Y-131187117D01*
X119998408Y-131317515D01*
X119887515Y-131428408D01*
X119757117Y-131515537D01*
X119612228Y-131575552D01*
X119458414Y-131606148D01*
X119301586Y-131606148D01*
X119147772Y-131575552D01*
X119002883Y-131515537D01*
X118872485Y-131428408D01*
X118761592Y-131317515D01*
X118674463Y-131187117D01*
X118614448Y-131042228D01*
X118583852Y-130888414D01*
X118583852Y-130731586D01*
X118614448Y-130577772D01*
X118674463Y-130432883D01*
X118761592Y-130302485D01*
X118872485Y-130191592D01*
X119002883Y-130104463D01*
X119147772Y-130044448D01*
X119301586Y-130013852D01*
X119458414Y-130013852D01*
X119612228Y-130044448D01*
G37*
G36*
X140550285Y-127603060D02*
G01*
X140731397Y-127678079D01*
X140894393Y-127786990D01*
X141033010Y-127925607D01*
X141141921Y-128088603D01*
X141216940Y-128269715D01*
X141255185Y-128461983D01*
X141255185Y-128658017D01*
X141216940Y-128850285D01*
X141141921Y-129031397D01*
X141033010Y-129194393D01*
X140894393Y-129333010D01*
X140731397Y-129441921D01*
X140550285Y-129516940D01*
X140358017Y-129555185D01*
X140161983Y-129555185D01*
X139969715Y-129516940D01*
X139788603Y-129441921D01*
X139625607Y-129333010D01*
X139486990Y-129194393D01*
X139378079Y-129031397D01*
X139303060Y-128850285D01*
X139264815Y-128658017D01*
X139264815Y-128461983D01*
X139303060Y-128269715D01*
X139378079Y-128088603D01*
X139486990Y-127925607D01*
X139625607Y-127786990D01*
X139788603Y-127678079D01*
X139969715Y-127603060D01*
X140161983Y-127564815D01*
X140358017Y-127564815D01*
X140550285Y-127603060D01*
G37*
G36*
X147050285Y-127603060D02*
G01*
X147231397Y-127678079D01*
X147394393Y-127786990D01*
X147533010Y-127925607D01*
X147641921Y-128088603D01*
X147716940Y-128269715D01*
X147755185Y-128461983D01*
X147755185Y-128658017D01*
X147716940Y-128850285D01*
X147641921Y-129031397D01*
X147533010Y-129194393D01*
X147394393Y-129333010D01*
X147231397Y-129441921D01*
X147050285Y-129516940D01*
X146858017Y-129555185D01*
X146661983Y-129555185D01*
X146469715Y-129516940D01*
X146288603Y-129441921D01*
X146125607Y-129333010D01*
X145986990Y-129194393D01*
X145878079Y-129031397D01*
X145803060Y-128850285D01*
X145764815Y-128658017D01*
X145764815Y-128461983D01*
X145803060Y-128269715D01*
X145878079Y-128088603D01*
X145986990Y-127925607D01*
X146125607Y-127786990D01*
X146288603Y-127678079D01*
X146469715Y-127603060D01*
X146661983Y-127564815D01*
X146858017Y-127564815D01*
X147050285Y-127603060D01*
G37*
G36*
X127232228Y-127544448D02*
G01*
X127377117Y-127604463D01*
X127507515Y-127691592D01*
X127618408Y-127802485D01*
X127705537Y-127932883D01*
X127765552Y-128077772D01*
X127796148Y-128231586D01*
X127796148Y-128388414D01*
X127765552Y-128542228D01*
X127705537Y-128687117D01*
X127618408Y-128817515D01*
X127507515Y-128928408D01*
X127377117Y-129015537D01*
X127232228Y-129075552D01*
X127078414Y-129106148D01*
X126921586Y-129106148D01*
X126767772Y-129075552D01*
X126622883Y-129015537D01*
X126492485Y-128928408D01*
X126381592Y-128817515D01*
X126294463Y-128687117D01*
X126234448Y-128542228D01*
X126203852Y-128388414D01*
X126203852Y-128231586D01*
X126234448Y-128077772D01*
X126294463Y-127932883D01*
X126381592Y-127802485D01*
X126492485Y-127691592D01*
X126622883Y-127604463D01*
X126767772Y-127544448D01*
X126921586Y-127513852D01*
X127078414Y-127513852D01*
X127232228Y-127544448D01*
G37*
G36*
X104372228Y-127504448D02*
G01*
X104517117Y-127564463D01*
X104647515Y-127651592D01*
X104758408Y-127762485D01*
X104845537Y-127892883D01*
X104905552Y-128037772D01*
X104936148Y-128191586D01*
X104936148Y-128348414D01*
X104905552Y-128502228D01*
X104845537Y-128647117D01*
X104758408Y-128777515D01*
X104647515Y-128888408D01*
X104517117Y-128975537D01*
X104372228Y-129035552D01*
X104218414Y-129066148D01*
X104061586Y-129066148D01*
X103907772Y-129035552D01*
X103762883Y-128975537D01*
X103632485Y-128888408D01*
X103521592Y-128777515D01*
X103434463Y-128647117D01*
X103374448Y-128502228D01*
X103343852Y-128348414D01*
X103343852Y-128191586D01*
X103374448Y-128037772D01*
X103434463Y-127892883D01*
X103521592Y-127762485D01*
X103632485Y-127651592D01*
X103762883Y-127564463D01*
X103907772Y-127504448D01*
X104061586Y-127473852D01*
X104218414Y-127473852D01*
X104372228Y-127504448D01*
G37*
G36*
X119612228Y-127504448D02*
G01*
X119757117Y-127564463D01*
X119887515Y-127651592D01*
X119998408Y-127762485D01*
X120085537Y-127892883D01*
X120145552Y-128037772D01*
X120176148Y-128191586D01*
X120176148Y-128348414D01*
X120145552Y-128502228D01*
X120085537Y-128647117D01*
X119998408Y-128777515D01*
X119887515Y-128888408D01*
X119757117Y-128975537D01*
X119612228Y-129035552D01*
X119458414Y-129066148D01*
X119301586Y-129066148D01*
X119147772Y-129035552D01*
X119002883Y-128975537D01*
X118872485Y-128888408D01*
X118761592Y-128777515D01*
X118674463Y-128647117D01*
X118614448Y-128502228D01*
X118583852Y-128348414D01*
X118583852Y-128191586D01*
X118614448Y-128037772D01*
X118674463Y-127892883D01*
X118761592Y-127762485D01*
X118872485Y-127651592D01*
X119002883Y-127564463D01*
X119147772Y-127504448D01*
X119301586Y-127473852D01*
X119458414Y-127473852D01*
X119612228Y-127504448D01*
G37*
G36*
X134852228Y-126234448D02*
G01*
X134997117Y-126294463D01*
X135127515Y-126381592D01*
X135238408Y-126492485D01*
X135325537Y-126622883D01*
X135385552Y-126767772D01*
X135416148Y-126921586D01*
X135416148Y-127078414D01*
X135385552Y-127232228D01*
X135325537Y-127377117D01*
X135238408Y-127507515D01*
X135127515Y-127618408D01*
X134997117Y-127705537D01*
X134852228Y-127765552D01*
X134698414Y-127796148D01*
X134541586Y-127796148D01*
X134387772Y-127765552D01*
X134242883Y-127705537D01*
X134112485Y-127618408D01*
X134001592Y-127507515D01*
X133914463Y-127377117D01*
X133854448Y-127232228D01*
X133823852Y-127078414D01*
X133823852Y-126921586D01*
X133854448Y-126767772D01*
X133914463Y-126622883D01*
X134001592Y-126492485D01*
X134112485Y-126381592D01*
X134242883Y-126294463D01*
X134387772Y-126234448D01*
X134541586Y-126203852D01*
X134698414Y-126203852D01*
X134852228Y-126234448D01*
G37*
G36*
X104372228Y-124964448D02*
G01*
X104517117Y-125024463D01*
X104647515Y-125111592D01*
X104758408Y-125222485D01*
X104845537Y-125352883D01*
X104905552Y-125497772D01*
X104936148Y-125651586D01*
X104936148Y-125808414D01*
X104905552Y-125962228D01*
X104845537Y-126107117D01*
X104758408Y-126237515D01*
X104647515Y-126348408D01*
X104517117Y-126435537D01*
X104372228Y-126495552D01*
X104218414Y-126526148D01*
X104061586Y-126526148D01*
X103907772Y-126495552D01*
X103762883Y-126435537D01*
X103632485Y-126348408D01*
X103521592Y-126237515D01*
X103434463Y-126107117D01*
X103374448Y-125962228D01*
X103343852Y-125808414D01*
X103343852Y-125651586D01*
X103374448Y-125497772D01*
X103434463Y-125352883D01*
X103521592Y-125222485D01*
X103632485Y-125111592D01*
X103762883Y-125024463D01*
X103907772Y-124964448D01*
X104061586Y-124933852D01*
X104218414Y-124933852D01*
X104372228Y-124964448D01*
G37*
G36*
X119612228Y-124964448D02*
G01*
X119757117Y-125024463D01*
X119887515Y-125111592D01*
X119998408Y-125222485D01*
X120085537Y-125352883D01*
X120145552Y-125497772D01*
X120176148Y-125651586D01*
X120176148Y-125808414D01*
X120145552Y-125962228D01*
X120085537Y-126107117D01*
X119998408Y-126237515D01*
X119887515Y-126348408D01*
X119757117Y-126435537D01*
X119612228Y-126495552D01*
X119458414Y-126526148D01*
X119301586Y-126526148D01*
X119147772Y-126495552D01*
X119002883Y-126435537D01*
X118872485Y-126348408D01*
X118761592Y-126237515D01*
X118674463Y-126107117D01*
X118614448Y-125962228D01*
X118583852Y-125808414D01*
X118583852Y-125651586D01*
X118614448Y-125497772D01*
X118674463Y-125352883D01*
X118761592Y-125222485D01*
X118872485Y-125111592D01*
X119002883Y-125024463D01*
X119147772Y-124964448D01*
X119301586Y-124933852D01*
X119458414Y-124933852D01*
X119612228Y-124964448D01*
G37*
G36*
X104372228Y-122424448D02*
G01*
X104517117Y-122484463D01*
X104647515Y-122571592D01*
X104758408Y-122682485D01*
X104845537Y-122812883D01*
X104905552Y-122957772D01*
X104936148Y-123111586D01*
X104936148Y-123268414D01*
X104905552Y-123422228D01*
X104845537Y-123567117D01*
X104758408Y-123697515D01*
X104647515Y-123808408D01*
X104517117Y-123895537D01*
X104372228Y-123955552D01*
X104218414Y-123986148D01*
X104061586Y-123986148D01*
X103907772Y-123955552D01*
X103762883Y-123895537D01*
X103632485Y-123808408D01*
X103521592Y-123697515D01*
X103434463Y-123567117D01*
X103374448Y-123422228D01*
X103343852Y-123268414D01*
X103343852Y-123111586D01*
X103374448Y-122957772D01*
X103434463Y-122812883D01*
X103521592Y-122682485D01*
X103632485Y-122571592D01*
X103762883Y-122484463D01*
X103907772Y-122424448D01*
X104061586Y-122393852D01*
X104218414Y-122393852D01*
X104372228Y-122424448D01*
G37*
G36*
X119612228Y-122424448D02*
G01*
X119757117Y-122484463D01*
X119887515Y-122571592D01*
X119998408Y-122682485D01*
X120085537Y-122812883D01*
X120145552Y-122957772D01*
X120176148Y-123111586D01*
X120176148Y-123268414D01*
X120145552Y-123422228D01*
X120085537Y-123567117D01*
X119998408Y-123697515D01*
X119887515Y-123808408D01*
X119757117Y-123895537D01*
X119612228Y-123955552D01*
X119458414Y-123986148D01*
X119301586Y-123986148D01*
X119147772Y-123955552D01*
X119002883Y-123895537D01*
X118872485Y-123808408D01*
X118761592Y-123697515D01*
X118674463Y-123567117D01*
X118614448Y-123422228D01*
X118583852Y-123268414D01*
X118583852Y-123111586D01*
X118614448Y-122957772D01*
X118674463Y-122812883D01*
X118761592Y-122682485D01*
X118872485Y-122571592D01*
X119002883Y-122484463D01*
X119147772Y-122424448D01*
X119301586Y-122393852D01*
X119458414Y-122393852D01*
X119612228Y-122424448D01*
G37*
G36*
X134852228Y-122424448D02*
G01*
X134997117Y-122484463D01*
X135127515Y-122571592D01*
X135238408Y-122682485D01*
X135325537Y-122812883D01*
X135385552Y-122957772D01*
X135416148Y-123111586D01*
X135416148Y-123268414D01*
X135385552Y-123422228D01*
X135325537Y-123567117D01*
X135238408Y-123697515D01*
X135127515Y-123808408D01*
X134997117Y-123895537D01*
X134852228Y-123955552D01*
X134698414Y-123986148D01*
X134541586Y-123986148D01*
X134387772Y-123955552D01*
X134242883Y-123895537D01*
X134112485Y-123808408D01*
X134001592Y-123697515D01*
X133914463Y-123567117D01*
X133854448Y-123422228D01*
X133823852Y-123268414D01*
X133823852Y-123111586D01*
X133854448Y-122957772D01*
X133914463Y-122812883D01*
X134001592Y-122682485D01*
X134112485Y-122571592D01*
X134242883Y-122484463D01*
X134387772Y-122424448D01*
X134541586Y-122393852D01*
X134698414Y-122393852D01*
X134852228Y-122424448D01*
G37*
G36*
X127232228Y-121114448D02*
G01*
X127377117Y-121174463D01*
X127507515Y-121261592D01*
X127618408Y-121372485D01*
X127705537Y-121502883D01*
X127765552Y-121647772D01*
X127796148Y-121801586D01*
X127796148Y-121958414D01*
X127765552Y-122112228D01*
X127705537Y-122257117D01*
X127618408Y-122387515D01*
X127507515Y-122498408D01*
X127377117Y-122585537D01*
X127232228Y-122645552D01*
X127078414Y-122676148D01*
X126921586Y-122676148D01*
X126767772Y-122645552D01*
X126622883Y-122585537D01*
X126492485Y-122498408D01*
X126381592Y-122387515D01*
X126294463Y-122257117D01*
X126234448Y-122112228D01*
X126203852Y-121958414D01*
X126203852Y-121801586D01*
X126234448Y-121647772D01*
X126294463Y-121502883D01*
X126381592Y-121372485D01*
X126492485Y-121261592D01*
X126622883Y-121174463D01*
X126767772Y-121114448D01*
X126921586Y-121083852D01*
X127078414Y-121083852D01*
X127232228Y-121114448D01*
G37*
G36*
X140550285Y-120673060D02*
G01*
X140731397Y-120748079D01*
X140894393Y-120856990D01*
X141033010Y-120995607D01*
X141141921Y-121158603D01*
X141216940Y-121339715D01*
X141255185Y-121531983D01*
X141255185Y-121728017D01*
X141216940Y-121920285D01*
X141141921Y-122101397D01*
X141033010Y-122264393D01*
X140894393Y-122403010D01*
X140731397Y-122511921D01*
X140550285Y-122586940D01*
X140358017Y-122625185D01*
X140161983Y-122625185D01*
X139969715Y-122586940D01*
X139788603Y-122511921D01*
X139625607Y-122403010D01*
X139486990Y-122264393D01*
X139378079Y-122101397D01*
X139303060Y-121920285D01*
X139264815Y-121728017D01*
X139264815Y-121531983D01*
X139303060Y-121339715D01*
X139378079Y-121158603D01*
X139486990Y-120995607D01*
X139625607Y-120856990D01*
X139788603Y-120748079D01*
X139969715Y-120673060D01*
X140161983Y-120634815D01*
X140358017Y-120634815D01*
X140550285Y-120673060D01*
G37*
G36*
X147050285Y-120673060D02*
G01*
X147231397Y-120748079D01*
X147394393Y-120856990D01*
X147533010Y-120995607D01*
X147641921Y-121158603D01*
X147716940Y-121339715D01*
X147755185Y-121531983D01*
X147755185Y-121728017D01*
X147716940Y-121920285D01*
X147641921Y-122101397D01*
X147533010Y-122264393D01*
X147394393Y-122403010D01*
X147231397Y-122511921D01*
X147050285Y-122586940D01*
X146858017Y-122625185D01*
X146661983Y-122625185D01*
X146469715Y-122586940D01*
X146288603Y-122511921D01*
X146125607Y-122403010D01*
X145986990Y-122264393D01*
X145878079Y-122101397D01*
X145803060Y-121920285D01*
X145764815Y-121728017D01*
X145764815Y-121531983D01*
X145803060Y-121339715D01*
X145878079Y-121158603D01*
X145986990Y-120995607D01*
X146125607Y-120856990D01*
X146288603Y-120748079D01*
X146469715Y-120673060D01*
X146661983Y-120634815D01*
X146858017Y-120634815D01*
X147050285Y-120673060D01*
G37*
G36*
X104372228Y-119884448D02*
G01*
X104517117Y-119944463D01*
X104647515Y-120031592D01*
X104758408Y-120142485D01*
X104845537Y-120272883D01*
X104905552Y-120417772D01*
X104936148Y-120571586D01*
X104936148Y-120728414D01*
X104905552Y-120882228D01*
X104845537Y-121027117D01*
X104758408Y-121157515D01*
X104647515Y-121268408D01*
X104517117Y-121355537D01*
X104372228Y-121415552D01*
X104218414Y-121446148D01*
X104061586Y-121446148D01*
X103907772Y-121415552D01*
X103762883Y-121355537D01*
X103632485Y-121268408D01*
X103521592Y-121157515D01*
X103434463Y-121027117D01*
X103374448Y-120882228D01*
X103343852Y-120728414D01*
X103343852Y-120571586D01*
X103374448Y-120417772D01*
X103434463Y-120272883D01*
X103521592Y-120142485D01*
X103632485Y-120031592D01*
X103762883Y-119944463D01*
X103907772Y-119884448D01*
X104061586Y-119853852D01*
X104218414Y-119853852D01*
X104372228Y-119884448D01*
G37*
G36*
X119612228Y-119884448D02*
G01*
X119757117Y-119944463D01*
X119887515Y-120031592D01*
X119998408Y-120142485D01*
X120085537Y-120272883D01*
X120145552Y-120417772D01*
X120176148Y-120571586D01*
X120176148Y-120728414D01*
X120145552Y-120882228D01*
X120085537Y-121027117D01*
X119998408Y-121157515D01*
X119887515Y-121268408D01*
X119757117Y-121355537D01*
X119612228Y-121415552D01*
X119458414Y-121446148D01*
X119301586Y-121446148D01*
X119147772Y-121415552D01*
X119002883Y-121355537D01*
X118872485Y-121268408D01*
X118761592Y-121157515D01*
X118674463Y-121027117D01*
X118614448Y-120882228D01*
X118583852Y-120728414D01*
X118583852Y-120571586D01*
X118614448Y-120417772D01*
X118674463Y-120272883D01*
X118761592Y-120142485D01*
X118872485Y-120031592D01*
X119002883Y-119944463D01*
X119147772Y-119884448D01*
X119301586Y-119853852D01*
X119458414Y-119853852D01*
X119612228Y-119884448D01*
G37*
G36*
X104372228Y-117344448D02*
G01*
X104517117Y-117404463D01*
X104647515Y-117491592D01*
X104758408Y-117602485D01*
X104845537Y-117732883D01*
X104905552Y-117877772D01*
X104936148Y-118031586D01*
X104936148Y-118188414D01*
X104905552Y-118342228D01*
X104845537Y-118487117D01*
X104758408Y-118617515D01*
X104647515Y-118728408D01*
X104517117Y-118815537D01*
X104372228Y-118875552D01*
X104218414Y-118906148D01*
X104061586Y-118906148D01*
X103907772Y-118875552D01*
X103762883Y-118815537D01*
X103632485Y-118728408D01*
X103521592Y-118617515D01*
X103434463Y-118487117D01*
X103374448Y-118342228D01*
X103343852Y-118188414D01*
X103343852Y-118031586D01*
X103374448Y-117877772D01*
X103434463Y-117732883D01*
X103521592Y-117602485D01*
X103632485Y-117491592D01*
X103762883Y-117404463D01*
X103907772Y-117344448D01*
X104061586Y-117313852D01*
X104218414Y-117313852D01*
X104372228Y-117344448D01*
G37*
G36*
X119612228Y-117344448D02*
G01*
X119757117Y-117404463D01*
X119887515Y-117491592D01*
X119998408Y-117602485D01*
X120085537Y-117732883D01*
X120145552Y-117877772D01*
X120176148Y-118031586D01*
X120176148Y-118188414D01*
X120145552Y-118342228D01*
X120085537Y-118487117D01*
X119998408Y-118617515D01*
X119887515Y-118728408D01*
X119757117Y-118815537D01*
X119612228Y-118875552D01*
X119458414Y-118906148D01*
X119301586Y-118906148D01*
X119147772Y-118875552D01*
X119002883Y-118815537D01*
X118872485Y-118728408D01*
X118761592Y-118617515D01*
X118674463Y-118487117D01*
X118614448Y-118342228D01*
X118583852Y-118188414D01*
X118583852Y-118031586D01*
X118614448Y-117877772D01*
X118674463Y-117732883D01*
X118761592Y-117602485D01*
X118872485Y-117491592D01*
X119002883Y-117404463D01*
X119147772Y-117344448D01*
X119301586Y-117313852D01*
X119458414Y-117313852D01*
X119612228Y-117344448D01*
G37*
G36*
X140550285Y-116173060D02*
G01*
X140731397Y-116248079D01*
X140894393Y-116356990D01*
X141033010Y-116495607D01*
X141141921Y-116658603D01*
X141216940Y-116839715D01*
X141255185Y-117031983D01*
X141255185Y-117228017D01*
X141216940Y-117420285D01*
X141141921Y-117601397D01*
X141033010Y-117764393D01*
X140894393Y-117903010D01*
X140731397Y-118011921D01*
X140550285Y-118086940D01*
X140358017Y-118125185D01*
X140161983Y-118125185D01*
X139969715Y-118086940D01*
X139788603Y-118011921D01*
X139625607Y-117903010D01*
X139486990Y-117764393D01*
X139378079Y-117601397D01*
X139303060Y-117420285D01*
X139264815Y-117228017D01*
X139264815Y-117031983D01*
X139303060Y-116839715D01*
X139378079Y-116658603D01*
X139486990Y-116495607D01*
X139625607Y-116356990D01*
X139788603Y-116248079D01*
X139969715Y-116173060D01*
X140161983Y-116134815D01*
X140358017Y-116134815D01*
X140550285Y-116173060D01*
G37*
G36*
X147050285Y-116173060D02*
G01*
X147231397Y-116248079D01*
X147394393Y-116356990D01*
X147533010Y-116495607D01*
X147641921Y-116658603D01*
X147716940Y-116839715D01*
X147755185Y-117031983D01*
X147755185Y-117228017D01*
X147716940Y-117420285D01*
X147641921Y-117601397D01*
X147533010Y-117764393D01*
X147394393Y-117903010D01*
X147231397Y-118011921D01*
X147050285Y-118086940D01*
X146858017Y-118125185D01*
X146661983Y-118125185D01*
X146469715Y-118086940D01*
X146288603Y-118011921D01*
X146125607Y-117903010D01*
X145986990Y-117764393D01*
X145878079Y-117601397D01*
X145803060Y-117420285D01*
X145764815Y-117228017D01*
X145764815Y-117031983D01*
X145803060Y-116839715D01*
X145878079Y-116658603D01*
X145986990Y-116495607D01*
X146125607Y-116356990D01*
X146288603Y-116248079D01*
X146469715Y-116173060D01*
X146661983Y-116134815D01*
X146858017Y-116134815D01*
X147050285Y-116173060D01*
G37*
G36*
X127232228Y-116114448D02*
G01*
X127377117Y-116174463D01*
X127507515Y-116261592D01*
X127618408Y-116372485D01*
X127705537Y-116502883D01*
X127765552Y-116647772D01*
X127796148Y-116801586D01*
X127796148Y-116958414D01*
X127765552Y-117112228D01*
X127705537Y-117257117D01*
X127618408Y-117387515D01*
X127507515Y-117498408D01*
X127377117Y-117585537D01*
X127232228Y-117645552D01*
X127078414Y-117676148D01*
X126921586Y-117676148D01*
X126767772Y-117645552D01*
X126622883Y-117585537D01*
X126492485Y-117498408D01*
X126381592Y-117387515D01*
X126294463Y-117257117D01*
X126234448Y-117112228D01*
X126203852Y-116958414D01*
X126203852Y-116801586D01*
X126234448Y-116647772D01*
X126294463Y-116502883D01*
X126381592Y-116372485D01*
X126492485Y-116261592D01*
X126622883Y-116174463D01*
X126767772Y-116114448D01*
X126921586Y-116083852D01*
X127078414Y-116083852D01*
X127232228Y-116114448D01*
G37*
G36*
X104372228Y-114804448D02*
G01*
X104517117Y-114864463D01*
X104647515Y-114951592D01*
X104758408Y-115062485D01*
X104845537Y-115192883D01*
X104905552Y-115337772D01*
X104936148Y-115491586D01*
X104936148Y-115648414D01*
X104905552Y-115802228D01*
X104845537Y-115947117D01*
X104758408Y-116077515D01*
X104647515Y-116188408D01*
X104517117Y-116275537D01*
X104372228Y-116335552D01*
X104218414Y-116366148D01*
X104061586Y-116366148D01*
X103907772Y-116335552D01*
X103762883Y-116275537D01*
X103632485Y-116188408D01*
X103521592Y-116077515D01*
X103434463Y-115947117D01*
X103374448Y-115802228D01*
X103343852Y-115648414D01*
X103343852Y-115491586D01*
X103374448Y-115337772D01*
X103434463Y-115192883D01*
X103521592Y-115062485D01*
X103632485Y-114951592D01*
X103762883Y-114864463D01*
X103907772Y-114804448D01*
X104061586Y-114773852D01*
X104218414Y-114773852D01*
X104372228Y-114804448D01*
G37*
G36*
X119612228Y-114804448D02*
G01*
X119757117Y-114864463D01*
X119887515Y-114951592D01*
X119998408Y-115062485D01*
X120085537Y-115192883D01*
X120145552Y-115337772D01*
X120176148Y-115491586D01*
X120176148Y-115648414D01*
X120145552Y-115802228D01*
X120085537Y-115947117D01*
X119998408Y-116077515D01*
X119887515Y-116188408D01*
X119757117Y-116275537D01*
X119612228Y-116335552D01*
X119458414Y-116366148D01*
X119301586Y-116366148D01*
X119147772Y-116335552D01*
X119002883Y-116275537D01*
X118872485Y-116188408D01*
X118761592Y-116077515D01*
X118674463Y-115947117D01*
X118614448Y-115802228D01*
X118583852Y-115648414D01*
X118583852Y-115491586D01*
X118614448Y-115337772D01*
X118674463Y-115192883D01*
X118761592Y-115062485D01*
X118872485Y-114951592D01*
X119002883Y-114864463D01*
X119147772Y-114804448D01*
X119301586Y-114773852D01*
X119458414Y-114773852D01*
X119612228Y-114804448D01*
G37*
G36*
X134852228Y-114804448D02*
G01*
X134997117Y-114864463D01*
X135127515Y-114951592D01*
X135238408Y-115062485D01*
X135325537Y-115192883D01*
X135385552Y-115337772D01*
X135416148Y-115491586D01*
X135416148Y-115648414D01*
X135385552Y-115802228D01*
X135325537Y-115947117D01*
X135238408Y-116077515D01*
X135127515Y-116188408D01*
X134997117Y-116275537D01*
X134852228Y-116335552D01*
X134698414Y-116366148D01*
X134541586Y-116366148D01*
X134387772Y-116335552D01*
X134242883Y-116275537D01*
X134112485Y-116188408D01*
X134001592Y-116077515D01*
X133914463Y-115947117D01*
X133854448Y-115802228D01*
X133823852Y-115648414D01*
X133823852Y-115491586D01*
X133854448Y-115337772D01*
X133914463Y-115192883D01*
X134001592Y-115062485D01*
X134112485Y-114951592D01*
X134242883Y-114864463D01*
X134387772Y-114804448D01*
X134541586Y-114773852D01*
X134698414Y-114773852D01*
X134852228Y-114804448D01*
G37*
G36*
X104372228Y-112264448D02*
G01*
X104517117Y-112324463D01*
X104647515Y-112411592D01*
X104758408Y-112522485D01*
X104845537Y-112652883D01*
X104905552Y-112797772D01*
X104936148Y-112951586D01*
X104936148Y-113108414D01*
X104905552Y-113262228D01*
X104845537Y-113407117D01*
X104758408Y-113537515D01*
X104647515Y-113648408D01*
X104517117Y-113735537D01*
X104372228Y-113795552D01*
X104218414Y-113826148D01*
X104061586Y-113826148D01*
X103907772Y-113795552D01*
X103762883Y-113735537D01*
X103632485Y-113648408D01*
X103521592Y-113537515D01*
X103434463Y-113407117D01*
X103374448Y-113262228D01*
X103343852Y-113108414D01*
X103343852Y-112951586D01*
X103374448Y-112797772D01*
X103434463Y-112652883D01*
X103521592Y-112522485D01*
X103632485Y-112411592D01*
X103762883Y-112324463D01*
X103907772Y-112264448D01*
X104061586Y-112233852D01*
X104218414Y-112233852D01*
X104372228Y-112264448D01*
G37*
G36*
X119612228Y-112264448D02*
G01*
X119757117Y-112324463D01*
X119887515Y-112411592D01*
X119998408Y-112522485D01*
X120085537Y-112652883D01*
X120145552Y-112797772D01*
X120176148Y-112951586D01*
X120176148Y-113108414D01*
X120145552Y-113262228D01*
X120085537Y-113407117D01*
X119998408Y-113537515D01*
X119887515Y-113648408D01*
X119757117Y-113735537D01*
X119612228Y-113795552D01*
X119458414Y-113826148D01*
X119301586Y-113826148D01*
X119147772Y-113795552D01*
X119002883Y-113735537D01*
X118872485Y-113648408D01*
X118761592Y-113537515D01*
X118674463Y-113407117D01*
X118614448Y-113262228D01*
X118583852Y-113108414D01*
X118583852Y-112951586D01*
X118614448Y-112797772D01*
X118674463Y-112652883D01*
X118761592Y-112522485D01*
X118872485Y-112411592D01*
X119002883Y-112324463D01*
X119147772Y-112264448D01*
X119301586Y-112233852D01*
X119458414Y-112233852D01*
X119612228Y-112264448D01*
G37*
G36*
X104372228Y-109724448D02*
G01*
X104517117Y-109784463D01*
X104647515Y-109871592D01*
X104758408Y-109982485D01*
X104845537Y-110112883D01*
X104905552Y-110257772D01*
X104936148Y-110411586D01*
X104936148Y-110568414D01*
X104905552Y-110722228D01*
X104845537Y-110867117D01*
X104758408Y-110997515D01*
X104647515Y-111108408D01*
X104517117Y-111195537D01*
X104372228Y-111255552D01*
X104218414Y-111286148D01*
X104061586Y-111286148D01*
X103907772Y-111255552D01*
X103762883Y-111195537D01*
X103632485Y-111108408D01*
X103521592Y-110997515D01*
X103434463Y-110867117D01*
X103374448Y-110722228D01*
X103343852Y-110568414D01*
X103343852Y-110411586D01*
X103374448Y-110257772D01*
X103434463Y-110112883D01*
X103521592Y-109982485D01*
X103632485Y-109871592D01*
X103762883Y-109784463D01*
X103907772Y-109724448D01*
X104061586Y-109693852D01*
X104218414Y-109693852D01*
X104372228Y-109724448D01*
G37*
G36*
X119612228Y-109724448D02*
G01*
X119757117Y-109784463D01*
X119887515Y-109871592D01*
X119998408Y-109982485D01*
X120085537Y-110112883D01*
X120145552Y-110257772D01*
X120176148Y-110411586D01*
X120176148Y-110568414D01*
X120145552Y-110722228D01*
X120085537Y-110867117D01*
X119998408Y-110997515D01*
X119887515Y-111108408D01*
X119757117Y-111195537D01*
X119612228Y-111255552D01*
X119458414Y-111286148D01*
X119301586Y-111286148D01*
X119147772Y-111255552D01*
X119002883Y-111195537D01*
X118872485Y-111108408D01*
X118761592Y-110997515D01*
X118674463Y-110867117D01*
X118614448Y-110722228D01*
X118583852Y-110568414D01*
X118583852Y-110411586D01*
X118614448Y-110257772D01*
X118674463Y-110112883D01*
X118761592Y-109982485D01*
X118872485Y-109871592D01*
X119002883Y-109784463D01*
X119147772Y-109724448D01*
X119301586Y-109693852D01*
X119458414Y-109693852D01*
X119612228Y-109724448D01*
G37*
G36*
X146440000Y-108900000D02*
G01*
X144640000Y-108900000D01*
X144640000Y-107100000D01*
X146440000Y-107100000D01*
X146440000Y-108900000D01*
G37*
G36*
X143261256Y-107138754D02*
G01*
X143424257Y-107206271D01*
X143570954Y-107304291D01*
X143695709Y-107429046D01*
X143793729Y-107575743D01*
X143861246Y-107738744D01*
X143895666Y-107911785D01*
X143895666Y-108088215D01*
X143861246Y-108261256D01*
X143793729Y-108424257D01*
X143695709Y-108570954D01*
X143570954Y-108695709D01*
X143424257Y-108793729D01*
X143261256Y-108861246D01*
X143088215Y-108895666D01*
X142911785Y-108895666D01*
X142738744Y-108861246D01*
X142575743Y-108793729D01*
X142429046Y-108695709D01*
X142304291Y-108570954D01*
X142206271Y-108424257D01*
X142138754Y-108261256D01*
X142104334Y-108088215D01*
X142104334Y-107911785D01*
X142138754Y-107738744D01*
X142206271Y-107575743D01*
X142304291Y-107429046D01*
X142429046Y-107304291D01*
X142575743Y-107206271D01*
X142738744Y-107138754D01*
X142911785Y-107104334D01*
X143088215Y-107104334D01*
X143261256Y-107138754D01*
G37*
G36*
X125422228Y-107234448D02*
G01*
X125567117Y-107294463D01*
X125697515Y-107381592D01*
X125808408Y-107492485D01*
X125895537Y-107622883D01*
X125955552Y-107767772D01*
X125986148Y-107921586D01*
X125986148Y-108078414D01*
X125955552Y-108232228D01*
X125895537Y-108377117D01*
X125808408Y-108507515D01*
X125697515Y-108618408D01*
X125567117Y-108705537D01*
X125422228Y-108765552D01*
X125268414Y-108796148D01*
X125111586Y-108796148D01*
X124957772Y-108765552D01*
X124812883Y-108705537D01*
X124682485Y-108618408D01*
X124571592Y-108507515D01*
X124484463Y-108377117D01*
X124424448Y-108232228D01*
X124393852Y-108078414D01*
X124393852Y-107921586D01*
X124424448Y-107767772D01*
X124484463Y-107622883D01*
X124571592Y-107492485D01*
X124682485Y-107381592D01*
X124812883Y-107294463D01*
X124957772Y-107234448D01*
X125111586Y-107203852D01*
X125268414Y-107203852D01*
X125422228Y-107234448D01*
G37*
G36*
X133042228Y-107234448D02*
G01*
X133187117Y-107294463D01*
X133317515Y-107381592D01*
X133428408Y-107492485D01*
X133515537Y-107622883D01*
X133575552Y-107767772D01*
X133606148Y-107921586D01*
X133606148Y-108078414D01*
X133575552Y-108232228D01*
X133515537Y-108377117D01*
X133428408Y-108507515D01*
X133317515Y-108618408D01*
X133187117Y-108705537D01*
X133042228Y-108765552D01*
X132888414Y-108796148D01*
X132731586Y-108796148D01*
X132577772Y-108765552D01*
X132432883Y-108705537D01*
X132302485Y-108618408D01*
X132191592Y-108507515D01*
X132104463Y-108377117D01*
X132044448Y-108232228D01*
X132013852Y-108078414D01*
X132013852Y-107921586D01*
X132044448Y-107767772D01*
X132104463Y-107622883D01*
X132191592Y-107492485D01*
X132302485Y-107381592D01*
X132432883Y-107294463D01*
X132577772Y-107234448D01*
X132731586Y-107203852D01*
X132888414Y-107203852D01*
X133042228Y-107234448D01*
G37*
G36*
X76962000Y-107442000D02*
G01*
X75438000Y-107442000D01*
X75438000Y-105918000D01*
X76962000Y-105918000D01*
X76962000Y-107442000D01*
G37*
G36*
X78961197Y-105950811D02*
G01*
X79099204Y-106007976D01*
X79223408Y-106090966D01*
X79329034Y-106196592D01*
X79412024Y-106320796D01*
X79469189Y-106458803D01*
X79498331Y-106605311D01*
X79498331Y-106754689D01*
X79469189Y-106901197D01*
X79412024Y-107039204D01*
X79329034Y-107163408D01*
X79223408Y-107269034D01*
X79099204Y-107352024D01*
X78961197Y-107409189D01*
X78814689Y-107438331D01*
X78665311Y-107438331D01*
X78518803Y-107409189D01*
X78380796Y-107352024D01*
X78256592Y-107269034D01*
X78150966Y-107163408D01*
X78067976Y-107039204D01*
X78010811Y-106901197D01*
X77981669Y-106754689D01*
X77981669Y-106605311D01*
X78010811Y-106458803D01*
X78067976Y-106320796D01*
X78150966Y-106196592D01*
X78256592Y-106090966D01*
X78380796Y-106007976D01*
X78518803Y-105950811D01*
X78665311Y-105921669D01*
X78814689Y-105921669D01*
X78961197Y-105950811D01*
G37*
G36*
X81501197Y-105950811D02*
G01*
X81639204Y-106007976D01*
X81763408Y-106090966D01*
X81869034Y-106196592D01*
X81952024Y-106320796D01*
X82009189Y-106458803D01*
X82038331Y-106605311D01*
X82038331Y-106754689D01*
X82009189Y-106901197D01*
X81952024Y-107039204D01*
X81869034Y-107163408D01*
X81763408Y-107269034D01*
X81639204Y-107352024D01*
X81501197Y-107409189D01*
X81354689Y-107438331D01*
X81205311Y-107438331D01*
X81058803Y-107409189D01*
X80920796Y-107352024D01*
X80796592Y-107269034D01*
X80690966Y-107163408D01*
X80607976Y-107039204D01*
X80550811Y-106901197D01*
X80521669Y-106754689D01*
X80521669Y-106605311D01*
X80550811Y-106458803D01*
X80607976Y-106320796D01*
X80690966Y-106196592D01*
X80796592Y-106090966D01*
X80920796Y-106007976D01*
X81058803Y-105950811D01*
X81205311Y-105921669D01*
X81354689Y-105921669D01*
X81501197Y-105950811D01*
G37*
G36*
X84041197Y-105950811D02*
G01*
X84179204Y-106007976D01*
X84303408Y-106090966D01*
X84409034Y-106196592D01*
X84492024Y-106320796D01*
X84549189Y-106458803D01*
X84578331Y-106605311D01*
X84578331Y-106754689D01*
X84549189Y-106901197D01*
X84492024Y-107039204D01*
X84409034Y-107163408D01*
X84303408Y-107269034D01*
X84179204Y-107352024D01*
X84041197Y-107409189D01*
X83894689Y-107438331D01*
X83745311Y-107438331D01*
X83598803Y-107409189D01*
X83460796Y-107352024D01*
X83336592Y-107269034D01*
X83230966Y-107163408D01*
X83147976Y-107039204D01*
X83090811Y-106901197D01*
X83061669Y-106754689D01*
X83061669Y-106605311D01*
X83090811Y-106458803D01*
X83147976Y-106320796D01*
X83230966Y-106196592D01*
X83336592Y-106090966D01*
X83460796Y-106007976D01*
X83598803Y-105950811D01*
X83745311Y-105921669D01*
X83894689Y-105921669D01*
X84041197Y-105950811D01*
G37*
%LPD*%
M02*
